SplineFontDB: 3.0
FontName: Mikhak-Light
FullName: Mikhak Light
FamilyName: Mikhak Light
Weight: Light
Copyright: Copyright (c) 2019, Amin Abedi (www.opentypeshop.com|aminabedi68@gmail.com),\nwith Reserved Font Name Mikhak.\n\nThis Font Software is licensed under the SIL Open Font License, Version 1.1.\nThis license is copied below, and is also available with a FAQ at:\nhttp://scripts.sil.org/OFL
Version: 2.000
ItalicAngle: 0
UnderlinePosition: -450
UnderlineWidth: 100
Ascent: 1638
Descent: 410
InvalidEm: 0
sfntRevision: 0x00020000
LayerCount: 2
Layer: 0 0 "Back" 1
Layer: 1 0 "Fore" 0
PreferredKerning: 4
XUID: [1021 89 1101065813 17353]
StyleMap: 0x0040
FSType: 0
OS2Version: 4
OS2_WeightWidthSlopeOnly: 0
OS2_UseTypoMetrics: 1
CreationTime: 1497005464
ModificationTime: 1553076089
PfmFamily: 33
TTFWeight: 300
TTFWidth: 5
LineGap: 0
VLineGap: 0
OS2TypoAscent: 512
OS2TypoAOffset: 1
OS2TypoDescent: -725
OS2TypoDOffset: 1
OS2TypoLinegap: 0
OS2WinAscent: -200
OS2WinAOffset: 1
OS2WinDescent: -50
OS2WinDOffset: 1
HheadAscent: -200
HheadAOffset: 1
HheadDescent: 50
HheadDOffset: 1
OS2SubXSize: 1277
OS2SubYSize: 1185
OS2SubXOff: 0
OS2SubYOff: 256
OS2SupXSize: 1277
OS2SupYSize: 1185
OS2SupXOff: 0
OS2SupYOff: 870
OS2StrikeYSize: 91
OS2StrikeYPos: 766
OS2CapHeight: 1400
OS2XHeight: 1012
OS2Vendor: 'AA68'
Lookup: 4 1 0 "'ccmp' Glyph Composition/Decomposition in Arabic lookup 0" { "'ccmp' Glyph Composition/Decomposition in Arabic lookup 0 subtable 0"  } ['ccmp' ('arab' <'FAR ' 'dflt' > ) ]
Lookup: 1 9 0 "Single Substitution 1" { "Single Substitution 1 subtable"  } []
Lookup: 2 9 0 "Multiple Substitution 2" { "Multiple Substitution 2 subtable"  } []
Lookup: 2 9 0 "Multiple Substitution 3" { "Multiple Substitution 3 subtable"  } []
Lookup: 1 9 0 "'fina' Terminal Forms in Arabic lookup 4" { "'fina' Terminal Forms in Arabic lookup 4 subtable"  } ['fina' ('arab' <'FAR ' 'dflt' > ) ]

StartChar: a
Encoding: 97 97 0
Width: 1269
VWidth: 2426
Flags: HMW
LayerCount: 2
Fore
SplineSet
1013 1048 m 0
 1048 1048 1075 1019 1075 986 c 2
 1075 978 l 1
 1011 510 l 2
 1010 502 1008 494 1007 485 c 2
 1003 455 l 2
 996 400 992 351 992 293 c 0
 992 168 1010 108 1109 108 c 0
 1143 108 1172 79 1172 45 c 0
 1172 11 1143 -18 1109 -18 c 0
 984 -18 911 57 884 146 c 1
 807 34 687 -48 521 -48 c 0
 239 -48 98 182 98 419 c 0
 98 697 293 1064 650 1064 c 0
 754 1064 832 1026 879 994 c 0
 897 982 906 962 906 942 c 0
 906 906 876 880 844 880 c 0
 832 880 820 883 809 890 c 0
 776 912 722 938 650 938 c 0
 393 938 222 657 222 419 c 0
 222 226 325 78 521 78 c 0
 749 78 847 280 883 503 c 1
 951 995 l 2
 955 1026 982 1048 1013 1048 c 0
EndSplineSet
Colour: ffff
EndChar

StartChar: c
Encoding: 99 99 1
Width: 1031
VWidth: 2426
Flags: HMW
LayerCount: 2
Fore
SplineSet
917 907 m 0
 917 872 888 845 855 845 c 0
 840 845 826 850 814 860 c 0
 756 910 692 938 611 938 c 0
 386 938 222 654 222 411 c 0
 222 234 298 78 528 78 c 0
 656 78 750 113 839 167 c 0
 849 173 860 175 871 175 c 0
 903 175 933 150 933 113 c 0
 933 92 922 71 903 59 c 0
 800 -3 680 -48 528 -48 c 0
 212 -48 98 196 98 411 c 0
 98 684 276 1064 611 1064 c 0
 724 1064 820 1020 896 954 c 0
 910 942 917 925 917 907 c 0
EndSplineSet
Colour: ffff
EndChar

StartChar: e
Encoding: 101 101 2
Width: 1141
VWidth: 2426
Flags: HMW
LayerCount: 2
Fore
SplineSet
288 465 m 1
 449 493 606 551 746 634 c 0
 820 678 886 734 886 805 c 0
 886 880 814 938 713 938 c 0
 480 938 300 714 288 465 c 1
178 326 m 1
 172 326 166 325 160 325 c 0
 127 325 98 352 98 387 c 0
 98 424 126 447 163 450 c 1
 168 754 386 1064 713 1064 c 0
 854 1064 1012 974 1012 805 c 0
 1012 654 884 570 810 526 c 0
 655 434 481 371 303 341 c 1
 347 192 475 78 630 78 c 0
 743 78 854 120 939 197 c 0
 951 208 966 213 981 213 c 0
 1014 213 1043 186 1043 151 c 0
 1043 134 1036 117 1023 105 c 0
 915 8 775 -48 630 -48 c 0
 402 -48 229 125 178 326 c 1
EndSplineSet
Colour: ffff
EndChar

StartChar: f
Encoding: 102 102 3
Width: 773
VWidth: 2426
Flags: HMW
LayerCount: 2
Fore
SplineSet
674 1554 m 0
 674 1521 647 1492 612 1492 c 0
 595 1492 577 1498 565 1512 c 0
 536 1544 520 1546 519 1546 c 0
 506 1546 439 1469 425 1304 c 0
 415 1191 408 1048 402 895 c 1
 475 892 546 887 620 878 c 0
 651 874 676 847 676 816 c 0
 676 780 646 754 613 754 c 2
 606 754 l 1
 535 762 466 768 397 770 c 1
 388 496 386 206 386 2 c 0
 386 0 386 -2 386 -4 c 0
 386 -38 357 -66 323 -66 c 0
 285 -66 261 -36 261 2 c 0
 261 206 263 496 272 771 c 1
 235 770 198 768 160 768 c 0
 127 768 98 794 98 830 c 0
 98 862 123 890 155 892 c 0
 198 895 237 896 276 896 c 1
 282 1052 291 1198 301 1314 c 0
 313 1461 364 1672 519 1672 c 0
 574 1672 620 1640 659 1596 c 0
 670 1584 674 1569 674 1554 c 0
EndSplineSet
Colour: ffff
EndChar

StartChar: g
Encoding: 103 103 4
Width: 1177
VWidth: 2426
Flags: HMW
LayerCount: 2
Fore
SplineSet
836 954 m 0
 836 917 806 892 774 892 c 0
 763 892 752 895 742 901 c 0
 704 924 643 938 593 938 c 0
 381 938 232 672 232 420 c 0
 232 174 355 78 516 78 c 0
 850 78 912 539 912 971 c 0
 912 1005 940 1033 974 1033 c 0
 1010 1033 1035 1002 1036 974 c 0
 1038 925 1040 842 1040 764 c 2
 1040 686 l 2
 1040 201 1026 -478 521 -478 c 0
 323 -478 176 -371 106 -253 c 0
 100 -243 98 -232 98 -221 c 0
 98 -189 123 -159 160 -159 c 0
 182 -159 202 -169 214 -189 c 0
 262 -271 369 -352 521 -352 c 0
 749 -352 848 -151 889 168 c 1
 812 42 690 -48 516 -48 c 0
 285 -48 106 120 106 420 c 0
 106 696 267 1064 593 1064 c 0
 663 1064 742 1046 806 1007 c 0
 825 995 836 975 836 954 c 0
EndSplineSet
Colour: ffff
EndChar

StartChar: o
Encoding: 111 111 5
Width: 1109
VWidth: 2426
Flags: HMW
LayerCount: 2
Fore
SplineSet
567 1064 m 0
 860 1064 1012 787 1012 538 c 0
 1012 263 841 -48 540 -48 c 0
 262 -48 98 218 98 486 c 0
 98 762 250 1064 567 1064 c 0
567 938 m 0
 350 938 222 730 222 486 c 0
 222 258 358 78 540 78 c 0
 739 78 886 297 886 538 c 0
 886 749 764 938 567 938 c 0
EndSplineSet
Colour: ffff
EndChar

StartChar: s
Encoding: 115 115 6
Width: 980
VWidth: 2426
Flags: HMW
LayerCount: 2
Fore
SplineSet
870 815 m 0
 870 783 845 753 808 753 c 0
 779 753 753 773 747 802 c 0
 728 889 639 940 521 940 c 0
 395 940 279 847 270 757 c 1
 272 632 394 590 541 553 c 0
 669 521 882 455 882 239 c 0
 882 43 665 -48 488 -48 c 0
 336 -48 174 7 108 106 c 0
 101 116 98 129 98 141 c 0
 98 173 124 203 160 203 c 0
 180 203 200 194 212 176 c 0
 238 137 360 78 488 78 c 0
 645 78 758 159 758 239 c 0
 758 347 649 397 511 431 c 0
 381 464 144 523 144 760 c 0
 144 761 145 763 145 765 c 0
 160 946 348 1064 521 1064 c 0
 667 1064 832 997 869 828 c 0
 870 824 870 819 870 815 c 0
EndSplineSet
Colour: ffff
EndChar

StartChar: t
Encoding: 116 116 7
Width: 775
VWidth: 2426
Flags: HMW
LayerCount: 2
Fore
SplineSet
675 22 m 0
 675 -40 597 -48 538 -48 c 0
 282 -48 280 223 280 355 c 0
 280 495 286 632 296 768 c 1
 253 766 210 763 168 758 c 1
 160 758 l 2
 127 758 98 784 98 820 c 0
 98 851 122 878 153 882 c 0
 204 888 255 892 306 894 c 1
 316 1004 327 1113 340 1223 c 0
 344 1254 371 1278 402 1278 c 0
 438 1278 464 1249 464 1216 c 2
 464 1209 l 1
 452 1104 441 1000 432 895 c 1
 498 894 561 890 623 882 c 0
 654 878 677 851 677 820 c 0
 677 784 647 758 615 758 c 2
 607 758 l 1
 548 765 486 769 421 770 c 1
 411 632 406 495 406 355 c 0
 406 191 418 78 538 78 c 0
 559 78 587 84 612 84 c 0
 644 84 675 59 675 22 c 0
EndSplineSet
Colour: ffff
EndChar

StartChar: v
Encoding: 118 118 8
Width: 1084
VWidth: 2426
Flags: HMW
LayerCount: 2
Fore
SplineSet
98 970 m 0
 98 1001 122 1033 159 1033 c 0
 183 1033 206 1020 217 998 c 0
 324 771 451 489 527 210 c 1
 662 447 784 713 864 988 c 0
 872 1015 898 1033 925 1033 c 0
 963 1033 987 1002 987 971 c 0
 987 965 986 960 984 954 c 0
 885 613 725 288 555 12 c 0
 545 -4 527 -17 502 -17 c 0
 473 -17 447 3 441 33 c 0
 380 343 229 677 103 944 c 0
 99 952 98 961 98 970 c 0
EndSplineSet
Colour: ffff
EndChar

StartChar: w
Encoding: 119 119 9
Width: 1501
VWidth: 2426
Flags: HMW
LayerCount: 2
Fore
SplineSet
302 1016 m 0
 339 1016 364 986 364 954 c 0
 364 944 361 932 356 923 c 0
 305 833 222 574 222 374 c 0
 222 198 278 78 406 78 c 0
 579 78 716 469 716 681 c 0
 716 715 745 743 779 743 c 0
 815 743 840 713 841 682 c 0
 846 403 876 78 1038 78 c 0
 1198 78 1278 265 1278 513 c 0
 1278 666 1243 827 1195 923 c 0
 1191 932 1189 941 1189 950 c 0
 1189 981 1214 1013 1251 1013 c 0
 1274 1013 1296 1001 1307 979 c 0
 1367 859 1404 684 1404 513 c 0
 1404 267 1324 -48 1038 -48 c 0
 859 -48 783 116 751 265 c 1
 688 114 580 -48 406 -48 c 0
 164 -48 98 190 98 374 c 0
 98 604 183 869 248 985 c 0
 259 1005 280 1016 302 1016 c 0
EndSplineSet
Colour: ffff
EndChar

StartChar: x
Encoding: 120 120 10
Width: 1137
VWidth: 2426
Flags: HMW
LayerCount: 2
Fore
SplineSet
173 956 m 0
 173 987 197 1019 234 1019 c 0
 257 1019 280 1007 291 985 c 0
 356 854 448 713 552 577 c 1
 907 1011 l 2
 919 1026 937 1033 955 1033 c 0
 990 1033 1017 1004 1017 971 c 0
 1017 957 1012 942 1003 931 c 2
 631 477 l 1
 759 318 898 167 1021 44 c 0
 1033 32 1039 16 1039 -0 c 0
 1039 -34 1011 -62 977 -62 c 0
 961 -62 945 -56 933 -44 c 0
 812 77 677 221 550 377 c 1
 208 -40 l 2
 196 -55 178 -62 160 -62 c 0
 125 -62 98 -33 98 0 c 0
 98 14 103 29 112 40 c 2
 470 478 l 1
 356 626 253 780 179 929 c 0
 175 938 173 947 173 956 c 0
EndSplineSet
Colour: ffff
EndChar

StartChar: y
Encoding: 121 121 11
Width: 1133
VWidth: 2426
Flags: HMW
LayerCount: 2
Fore
SplineSet
226 1033 m 0
 262 1033 288 1004 288 971 c 2
 288 964 l 1
 274 840 268 713 268 589 c 0
 268 301 306 78 531 78 c 0
 698 78 787 242 832 499 c 0
 858 650 865 800 871 959 c 0
 872 991 899 1019 933 1019 c 0
 967 1019 995 991 995 957 c 0
 995 852 988 740 987 634 c 0
 981 156 983 -478 469 -478 c 0
 274 -478 160 -390 104 -277 c 0
 100 -268 98 -259 98 -250 c 0
 98 -219 123 -187 160 -187 c 0
 183 -187 205 -199 216 -221 c 0
 252 -294 314 -352 469 -352 c 0
 705 -352 798 -166 837 131 c 1
 771 27 669 -48 531 -48 c 0
 174 -48 142 325 142 589 c 0
 142 717 150 850 164 978 c 0
 168 1010 195 1033 226 1033 c 0
EndSplineSet
Colour: ffff
EndChar

StartChar: z
Encoding: 122 122 12
Width: 1054
VWidth: 2426
Flags: HMW
LayerCount: 2
Fore
SplineSet
160 820 m 0
 128 820 98 845 98 882 c 0
 98 912 120 939 150 944 c 0
 237 958 380 976 538 976 c 0
 663 976 834 975 877 855 c 0
 882 841 884 827 884 813 c 0
 884 771 866 721 820 680 c 0
 589 468 430 287 245 59 c 0
 241 53 237 49 236 46 c 2
 246 46 l 2
 255 46 263 48 272 49 c 0
 392 68 679 91 894 91 c 0
 928 91 957 63 957 29 c 0
 957 -5 929 -32 895 -33 c 0
 687 -37 403 -57 294 -74 c 0
 278 -77 260 -80 246 -80 c 0
 181 -80 108 -44 108 37 c 0
 108 75 124 107 147 137 c 0
 336 370 498 554 736 773 c 0
 758 793 760 807 760 813 c 0
 760 825 658 852 538 852 c 0
 390 852 251 834 170 820 c 0
 167 819 163 820 160 820 c 0
EndSplineSet
Colour: ffff
EndChar

StartChar: A
Encoding: 65 65 13
Width: 1416
VWidth: 1823
Flags: HMW
LayerCount: 2
Fore
SplineSet
159 -30 m 0
 121 -30 98 2 98 33 c 0
 98 41 99 50 103 58 c 2
 292 478 l 1
 282 489 276 504 276 520 c 0
 276 556 305 582 338 582 c 2
 339 582 l 1
 681 1342 l 2
 691 1365 715 1378 739 1378 c 0
 767 1378 788 1359 796 1339 c 2
 1126 502 l 1
 1141 490 1150 472 1150 452 c 0
 1150 448 1151 444 1150 441 c 2
 1314 23 l 2
 1317 16 1318 8 1318 1 c 0
 1318 -30 1295 -62 1257 -62 c 0
 1232 -62 1208 -47 1198 -23 c 2
 1034 394 l 1
 417 450 l 1
 217 6 l 2
 207 -17 183 -30 159 -30 c 0
471 571 m 1
 982 524 l 1
 734 1155 l 1
 471 571 l 1
EndSplineSet
Colour: ffff
EndChar

StartChar: B
Encoding: 66 66 14
Width: 1138
VWidth: 2426
Flags: HMW
LayerCount: 2
Fore
SplineSet
162 706 m 0
 162 938 138 1095 138 1280 c 0
 138 1306 154 1329 177 1338 c 0
 287 1381 413 1408 533 1408 c 0
 751 1408 960 1277 960 1028 c 0
 960 899 871 815 773 766 c 1
 940 708 1040 571 1040 376 c 0
 1040 57 753 -48 501 -48 c 0
 392 -48 280 -31 184 -1 c 0
 157 7 141 34 141 59 c 0
 141 257 162 515 162 706 c 0
287 791 m 1
 370 796 440 801 528 818 c 0
 709 853 834 922 834 1028 c 0
 834 1191 707 1284 533 1284 c 0
 447 1284 353 1266 266 1237 c 1
 277 1095 285 964 287 791 c 1
916 376 m 0
 916 581 790 676 536 676 c 0
 483 676 360 670 287 666 c 1
 286 495 281 284 269 105 c 1
 341 87 422 78 501 78 c 0
 735 78 916 161 916 376 c 0
EndSplineSet
Colour: ffff
EndChar

StartChar: C
Encoding: 67 67 15
Width: 1271
VWidth: 2426
Flags: HMW
LayerCount: 2
Fore
SplineSet
1138 1291 m 0
 1138 1253 1106 1230 1075 1230 c 0
 1067 1230 1059 1231 1051 1235 c 0
 977 1268 896 1284 814 1284 c 0
 472 1284 222 1007 222 662 c 0
 222 325 467 78 810 78 c 0
 904 78 998 100 1082 144 c 0
 1091 149 1101 151 1111 151 c 0
 1142 151 1173 126 1173 89 c 0
 1173 66 1161 45 1140 34 c 0
 1038 -20 924 -48 810 -48 c 0
 401 -48 98 257 98 662 c 0
 98 1069 398 1408 814 1408 c 0
 912 1408 1009 1390 1101 1349 c 0
 1124 1339 1138 1315 1138 1291 c 0
EndSplineSet
Colour: ffff
EndChar

StartChar: D
Encoding: 68 68 16
Width: 1279
VWidth: 2426
Flags: HMW
LayerCount: 2
Fore
SplineSet
203 1386 m 0
 269 1401 338 1408 406 1408 c 0
 856 1408 1182 1169 1182 701 c 0
 1182 284 869 -48 452 -48 c 0
 358 -48 264 -30 177 4 c 0
 152 14 138 39 138 63 c 2
 138 70 l 1
 167 293 182 566 182 811 c 0
 182 1007 175 1127 155 1319 c 0
 155 1321 155 1323 155 1325 c 0
 155 1355 178 1380 203 1386 c 0
285 1274 m 1
 301 1111 308 990 308 811 c 0
 308 578 294 325 268 105 c 1
 327 87 390 78 452 78 c 0
 797 78 1056 348 1056 701 c 0
 1056 1093 810 1284 406 1284 c 0
 366 1284 327 1280 285 1274 c 1
EndSplineSet
Colour: ffff
EndChar

StartChar: E
Encoding: 69 69 17
Width: 1098
VWidth: 2426
Flags: HMW
LayerCount: 2
Fore
SplineSet
170 673 m 1
 160 673 l 2
 127 673 98 699 98 735 c 0
 98 766 122 793 153 797 c 0
 161 798 169 799 177 800 c 1
 179 853 180 907 180 960 c 0
 180 1103 173 1184 156 1317 c 1
 156 1322 l 2
 156 1348 178 1388 218 1388 c 0
 219 1388 221 1387 222 1387 c 0
 305 1382 389 1378 472 1378 c 0
 627 1378 798 1391 924 1420 c 0
 929 1421 933 1421 938 1421 c 0
 970 1421 1000 1396 1000 1359 c 0
 1000 1331 981 1305 952 1298 c 0
 810 1265 633 1254 472 1254 c 0
 411 1254 349 1256 289 1259 c 1
 300 1159 304 1079 304 960 c 0
 304 910 304 861 302 811 c 1
 367 815 432 816 500 816 c 0
 624 816 745 809 866 795 c 0
 897 791 922 764 922 733 c 0
 922 697 892 671 859 671 c 2
 852 671 l 1
 736 685 620 692 500 692 c 0
 429 692 362 690 296 685 c 1
 289 565 278 448 263 339 c 0
 260 322 260 310 260 295 c 0
 260 121 450 108 768 108 c 2
 922 108 l 2
 956 108 985 80 985 46 c 0
 985 12 957 -15 923 -16 c 0
 872 -17 822 -18 769 -18 c 2
 723 -18 l 2
 460 -18 134 -9 134 295 c 0
 134 315 135 333 139 357 c 0
 153 455 163 562 170 673 c 1
EndSplineSet
Colour: ffff
EndChar

StartChar: F
Encoding: 70 70 18
Width: 1092
VWidth: 2426
Flags: HMW
LayerCount: 2
Fore
SplineSet
932 1400 m 0
 964 1400 994 1375 994 1338 c 0
 994 1310 975 1284 946 1277 c 0
 804 1244 627 1234 466 1234 c 0
 405 1234 342 1235 283 1238 c 1
 298 1089 306 950 309 798 c 1
 369 802 429 804 489 804 c 0
 610 804 732 795 851 781 c 0
 882 777 906 750 906 719 c 0
 906 683 876 657 843 657 c 2
 836 657 l 1
 721 671 604 678 489 678 c 0
 429 678 370 676 310 672 c 1
 310 583 l 2
 310 376 299 174 279 -7 c 0
 275 -39 248 -62 217 -62 c 0
 181 -62 155 -33 155 0 c 2
 155 7 l 1
 175 182 186 380 186 583 c 0
 186 610 186 636 185 661 c 1
 179 660 173 660 167 659 c 2
 160 659 l 2
 127 659 98 685 98 721 c 0
 98 752 122 779 153 783 c 0
 162 784 171 785 180 786 c 1
 170 966 151 1125 151 1301 c 0
 151 1327 172 1367 213 1367 c 0
 214 1367 216 1366 217 1366 c 0
 299 1361 382 1358 466 1358 c 0
 621 1358 792 1370 918 1399 c 0
 923 1400 927 1400 932 1400 c 0
EndSplineSet
Colour: ffff
EndChar

StartChar: G
Encoding: 71 71 19
Width: 1349
VWidth: 2426
Flags: HMW
LayerCount: 2
Fore
SplineSet
586 649 m 0
 586 686 616 711 648 711 c 0
 651 711 655 712 659 711 c 0
 715 701 903 698 990 698 c 0
 1057 698 1126 703 1174 711 c 0
 1177 712 1181 711 1184 711 c 0
 1218 711 1244 682 1246 654 c 0
 1249 612 1252 571 1252 532 c 0
 1252 215 1117 -48 716 -48 c 0
 366 -48 98 269 98 639 c 2
 98 645 l 1
 102 1033 306 1408 763 1408 c 0
 874 1408 985 1372 1074 1306 c 0
 1090 1294 1099 1275 1099 1256 c 0
 1099 1220 1069 1194 1037 1194 c 0
 1024 1194 1011 1198 1000 1206 c 0
 933 1256 848 1284 763 1284 c 0
 397 1284 226 998 222 645 c 1
 222 639 l 2
 222 325 448 78 716 78 c 0
 1037 78 1126 251 1126 532 c 0
 1126 547 1127 562 1126 579 c 1
 1084 575 1036 572 990 572 c 0
 899 572 717 573 637 587 c 0
 607 592 586 619 586 649 c 0
EndSplineSet
Colour: ffff
EndChar

StartChar: H
Encoding: 72 72 20
Width: 1319
VWidth: 2426
Flags: HMW
LayerCount: 2
Fore
SplineSet
1119 592 m 2
 1102 592 l 1
 1128 -18 l 2
 1130 -53 1102 -83 1066 -83 c 0
 1033 -83 1005 -57 1004 -24 c 2
 976 597 l 1
 766 605 509 611 317 613 c 1
 306 404 290 196 270 -6 c 0
 267 -38 239 -62 208 -62 c 0
 172 -62 146 -33 146 0 c 0
 146 2 146 4 146 6 c 0
 166 205 180 408 190 614 c 1
 160 619 138 645 138 676 c 0
 138 709 164 736 196 738 c 1
 204 930 208 1124 210 1317 c 0
 210 1351 238 1378 272 1378 c 0
 306 1378 334 1350 334 1316 c 0
 334 1124 331 930 323 738 c 1
 513 736 763 729 971 722 c 1
 945 1313 l 2
 943 1348 971 1378 1007 1378 c 0
 1040 1378 1068 1352 1069 1319 c 2
 1096 718 l 1
 1105 718 1114 716 1122 716 c 0
 1155 715 1181 687 1181 654 c 0
 1181 619 1152 592 1119 592 c 2
EndSplineSet
Colour: ffff
EndChar

StartChar: I
Encoding: 73 73 21
Width: 435
VWidth: 2426
Flags: HMW
LayerCount: 2
Fore
SplineSet
200 -62 m 0
 165 -62 137 -32 138 2 c 2
 173 1363 l 2
 174 1397 202 1423 235 1423 c 0
 270 1423 298 1393 297 1359 c 2
 262 -2 l 2
 261 -36 233 -62 200 -62 c 0
EndSplineSet
Colour: ffff
EndChar

StartChar: J
Encoding: 74 74 22
Width: 680
VWidth: 2426
Flags: HMW
LayerCount: 2
Fore
SplineSet
233 -48 m 0
 168 -48 98 -47 98 18 c 0
 98 54 127 80 160 80 c 0
 184 80 209 78 233 78 c 0
 376 78 412 137 412 300 c 0
 412 646 403 937 364 1254 c 1
 173 1254 l 2
 139 1254 110 1283 110 1317 c 0
 110 1351 139 1380 173 1380 c 2
 520 1380 l 2
 554 1380 582 1351 582 1317 c 0
 582 1281 553 1255 521 1255 c 2
 490 1254 l 1
 528 935 538 642 538 300 c 0
 538 107 458 -48 233 -48 c 0
EndSplineSet
Colour: ffff
EndChar

StartChar: K
Encoding: 75 75 23
Width: 1217
VWidth: 2426
Flags: HMW
LayerCount: 2
Fore
SplineSet
155 680 m 1
 146 689 142 705 142 720 c 0
 142 735 146 750 157 762 c 1
 173 1362 l 2
 174 1396 202 1422 235 1422 c 0
 270 1422 298 1392 297 1358 c 2
 284 840 l 1
 524 987 768 1171 936 1398 c 0
 948 1414 967 1423 986 1423 c 0
 1022 1423 1048 1393 1048 1361 c 0
 1048 1348 1044 1335 1036 1324 c 0
 841 1060 561 858 299 703 c 1
 510 462 819 228 1091 53 c 0
 1109 41 1119 21 1119 -0 c 0
 1119 -36 1089 -62 1057 -62 c 0
 1045 -62 1033 -60 1023 -53 c 0
 774 108 492 318 276 543 c 1
 262 -2 l 2
 261 -36 233 -62 200 -62 c 0
 165 -62 137 -32 138 2 c 2
 155 680 l 1
EndSplineSet
Colour: ffff
EndChar

StartChar: L
Encoding: 76 76 24
Width: 1166
VWidth: 2426
Flags: HMW
LayerCount: 2
Fore
SplineSet
156 1316 m 0
 156 1349 183 1378 218 1378 c 0
 250 1378 278 1353 280 1320 c 0
 291 1152 296 989 296 830 c 0
 296 586 284 347 267 106 c 1
 1008 84 l 2
 1041 83 1068 55 1068 22 c 0
 1068 -13 1040 -40 1006 -40 c 2
 1004 -40 l 1
 198 -17 l 2
 167 -16 138 10 138 45 c 0
 138 310 172 567 172 830 c 0
 172 988 156 1149 156 1316 c 0
EndSplineSet
Colour: ffff
EndChar

StartChar: M
Encoding: 77 77 25
Width: 1599
VWidth: 2426
Flags: HMW
LayerCount: 2
Fore
SplineSet
190 -62 m 0
 154 -62 128 -33 128 0 c 2
 128 7 l 1
 265 1307 l 2
 268 1339 296 1362 327 1362 c 0
 359 1362 381 1337 387 1317 c 0
 450 1088 590 784 692 608 c 0
 749 510 787 492 787 492 c 1
 787 492 819 502 873 593 c 0
 990 790 1132 1146 1169 1328 c 0
 1175 1358 1201 1378 1230 1378 c 0
 1268 1378 1291 1342 1292 1318 c 0
 1310 807 1366 469 1470 26 c 0
 1471 21 1472 17 1472 12 c 0
 1472 -20 1446 -50 1409 -50 c 0
 1381 -50 1355 -31 1348 -2 c 0
 1268 339 1216 623 1187 969 c 1
 1127 813 1052 648 981 529 c 0
 929 440 873 366 787 366 c 0
 693 366 637 454 584 546 c 0
 514 667 429 840 360 1013 c 1
 252 -7 l 2
 249 -39 221 -62 190 -62 c 0
EndSplineSet
Colour: ffff
EndChar

StartChar: N
Encoding: 78 78 26
Width: 1307
VWidth: 2426
Flags: HMW
LayerCount: 2
Fore
SplineSet
200 -62 m 0
 165 -62 138 -33 138 0 c 0
 138 445 177 865 183 1317 c 0
 183 1351 212 1378 245 1378 c 0
 266 1378 286 1366 295 1354 c 0
 566 998 813 616 1032 237 c 1
 1045 1362 l 2
 1045 1396 1073 1423 1107 1423 c 0
 1142 1423 1169 1394 1169 1360 c 2
 1154 3 l 2
 1154 -28 1128 -58 1092 -58 c 0
 1070 -58 1048 -46 1037 -26 c 0
 821 364 576 759 304 1132 c 1
 296 747 281 382 262 -3 c 0
 260 -36 233 -62 200 -62 c 0
EndSplineSet
Colour: ffff
EndChar

StartChar: O
Encoding: 79 79 27
Width: 1485
VWidth: 2426
Flags: HMW
LayerCount: 2
Fore
SplineSet
713 -48 m 0
 356 -48 98 230 98 613 c 0
 98 1024 385 1408 799 1408 c 0
 1174 1408 1388 1046 1388 684 c 0
 1388 267 1100 -48 713 -48 c 0
713 78 m 0
 1024 78 1262 325 1262 684 c 0
 1262 1010 1076 1284 799 1284 c 0
 471 1284 222 974 222 613 c 0
 222 288 430 78 713 78 c 0
EndSplineSet
Colour: ffff
EndChar

StartChar: P
Encoding: 80 80 28
Width: 1269
VWidth: 2426
Flags: HMW
LayerCount: 2
Fore
SplineSet
160 1105 m 0
 125 1105 98 1134 98 1167 c 0
 98 1182 103 1196 113 1208 c 0
 224 1335 448 1408 636 1408 c 0
 941 1408 1172 1163 1172 862 c 0
 1172 542 847 346 560 346 c 0
 507 346 422 351 347 364 c 1
 320 -4 l 2
 318 -36 290 -62 258 -62 c 0
 223 -62 196 -34 196 -1 c 2
 196 4 l 1
 225 413 l 1
 218 423 215 436 215 448 c 0
 215 465 220 479 230 489 c 1
 280 1185 l 1
 250 1167 225 1147 207 1126 c 0
 195 1112 177 1105 160 1105 c 0
409 1244 m 0
 409 1241 409 1238 409 1235 c 2
 356 491 l 1
 421 479 513 472 560 472 c 0
 805 472 1046 640 1046 862 c 0
 1046 1099 869 1284 636 1284 c 0
 563 1284 482 1269 409 1244 c 0
EndSplineSet
Colour: ffff
EndChar

StartChar: Q
Encoding: 81 81 29
Width: 1485
VWidth: 1823
Flags: HMW
LayerCount: 2
Fore
SplineSet
821 439 m 0
 821 471 847 501 883 501 c 0
 903 501 922 493 934 476 c 0
 1065 294 1181 159 1349 12 c 0
 1363 0 1370 -18 1370 -35 c 0
 1370 -70 1341 -97 1308 -97 c 0
 1293 -97 1279 -92 1267 -82 c 0
 1092 71 967 216 832 402 c 0
 824 413 821 426 821 439 c 0
EndSplineSet
Refer: 27 79 N 1 0 0 1 0 0 2
Colour: ffff
EndChar

StartChar: R
Encoding: 82 82 30
Width: 1270
VWidth: 1823
Flags: HMW
LayerCount: 2
Fore
SplineSet
244 426 m 1
 223 438 208 458 208 484 c 0
 208 513 227 534 250 542 c 1
 287 1191 l 1
 254 1171 227 1149 207 1126 c 0
 195 1112 177 1105 160 1105 c 0
 125 1105 98 1134 98 1167 c 0
 98 1182 103 1196 113 1208 c 0
 223 1333 433 1408 622 1408 c 0
 929 1408 1140 1160 1140 862 c 0
 1140 589 905 378 630 348 c 1
 1141 54 l 2
 1161 43 1172 22 1172 -0 c 0
 1172 -37 1142 -62 1110 -62 c 0
 1099 -62 1089 -60 1079 -54 c 2
 365 356 l 1
 344 -4 l 2
 342 -37 315 -62 282 -62 c 0
 246 -62 218 -31 220 4 c 2
 244 426 l 1
415 1249 m 0
 415 1246 415 1243 415 1240 c 2
 373 504 l 1
 436 480 500 470 560 470 c 0
 812 470 1014 651 1014 862 c 0
 1014 1102 853 1284 622 1284 c 0
 554 1284 481 1271 415 1249 c 0
EndSplineSet
Colour: ffff
EndChar

StartChar: S
Encoding: 83 83 31
Width: 1182
VWidth: 2426
Flags: HMW
LayerCount: 2
Fore
SplineSet
1023 1260 m 0
 1023 1223 993 1198 961 1198 c 0
 951 1198 940 1200 931 1205 c 0
 839 1256 730 1284 619 1284 c 0
 400 1284 228 1165 228 996 c 0
 228 850 378 793 600 726 c 0
 803 664 1084 590 1084 343 c 0
 1084 71 817 -48 578 -48 c 0
 413 -48 244 -10 130 53 c 0
 110 64 98 86 98 108 c 0
 98 145 130 170 161 170 c 0
 171 170 181 168 190 163 c 0
 278 114 431 78 578 78 c 0
 793 78 960 177 960 343 c 0
 960 470 797 536 564 606 c 0
 367 666 102 738 102 996 c 0
 102 1265 368 1408 619 1408 c 0
 750 1408 879 1378 991 1315 c 0
 1011 1304 1023 1282 1023 1260 c 0
EndSplineSet
Colour: ffff
EndChar

StartChar: T
Encoding: 84 84 32
Width: 1423
VWidth: 2426
Flags: HMW
LayerCount: 2
Fore
SplineSet
1325 1297 m 0
 1325 1263 1297 1235 1263 1235 c 2
 1262 1235 l 1
 778 1243 l 1
 776 1013 760 785 760 551 c 0
 760 368 770 186 770 3 c 0
 770 -31 743 -59 708 -59 c 0
 675 -59 647 -32 646 1 c 0
 640 184 636 367 636 551 c 0
 636 786 641 1014 651 1245 c 1
 159 1254 l 2
 125 1255 98 1282 98 1316 c 0
 98 1350 126 1378 160 1378 c 2
 161 1378 l 1
 1264 1359 l 2
 1298 1358 1325 1331 1325 1297 c 0
EndSplineSet
Colour: ffff
EndChar

StartChar: U
Encoding: 85 85 33
Width: 1310
VWidth: 2426
Flags: HMW
LayerCount: 2
Fore
SplineSet
274 1396 m 0
 311 1396 336 1366 336 1334 c 0
 336 1330 336 1325 335 1321 c 0
 293 1130 262 945 262 734 c 0
 262 364 335 78 631 78 c 0
 1001 78 1048 644 1048 1095 c 0
 1048 1183 1040 1273 1040 1361 c 0
 1040 1394 1067 1423 1102 1423 c 0
 1135 1423 1164 1397 1165 1364 c 0
 1169 1277 1172 1186 1172 1095 c 0
 1172 692 1159 -48 631 -48 c 0
 209 -48 138 376 138 734 c 0
 138 957 171 1152 213 1347 c 0
 219 1376 245 1396 274 1396 c 0
EndSplineSet
Colour: ffff
EndChar

StartChar: V
Encoding: 86 86 34
Width: 1368
VWidth: 2426
Flags: HMW
LayerCount: 2
Fore
SplineSet
98 1316 m 0
 98 1347 122 1378 160 1378 c 0
 186 1378 210 1362 219 1336 c 2
 609 209 l 1
 1152 1343 l 2
 1163 1365 1186 1378 1209 1378 c 0
 1246 1378 1270 1346 1270 1315 c 0
 1270 1306 1268 1297 1264 1289 c 2
 656 18 l 2
 648 1 628 -17 601 -17 c 0
 575 -17 550 -1 541 25 c 2
 101 1296 l 2
 99 1303 98 1309 98 1316 c 0
EndSplineSet
Colour: ffff
EndChar

StartChar: W
Encoding: 87 87 35
Width: 2006
VWidth: 2426
Flags: HMW
LayerCount: 2
Fore
SplineSet
98 1349 m 0
 98 1380 122 1411 160 1411 c 0
 187 1411 212 1394 220 1367 c 2
 563 229 l 1
 972 1203 l 2
 982 1227 1007 1241 1031 1241 c 0
 1061 1241 1082 1220 1089 1199 c 2
 1415 240 l 1
 1787 1336 l 2
 1796 1362 1820 1378 1846 1378 c 0
 1884 1378 1908 1347 1908 1316 c 0
 1908 1309 1907 1302 1905 1296 c 2
 1474 25 l 2
 1467 4 1446 -17 1416 -17 c 0
 1390 -17 1365 -1 1356 25 c 2
 1024 1003 l 1
 611 21 l 2
 603 2 582 -17 554 -17 c 0
 527 -17 501 0 493 27 c 2
 100 1331 l 2
 98 1337 98 1343 98 1349 c 0
EndSplineSet
Colour: ffff
EndChar

StartChar: X
Encoding: 88 88 36
Width: 1267
VWidth: 2426
Flags: HMW
LayerCount: 2
Fore
SplineSet
141 1277 m 0
 141 1309 167 1339 203 1339 c 0
 223 1339 242 1330 254 1313 c 2
 622 791 l 1
 1018 1373 l 2
 1030 1391 1050 1400 1070 1400 c 0
 1106 1400 1132 1370 1132 1338 c 0
 1132 1326 1129 1314 1122 1303 c 2
 699 682 l 1
 1158 32 l 2
 1166 21 1169 8 1169 -4 c 0
 1169 -36 1143 -66 1107 -66 c 0
 1087 -66 1068 -57 1056 -40 c 2
 624 572 l 1
 212 -35 l 2
 200 -53 180 -62 160 -62 c 0
 124 -62 98 -32 98 0 c 0
 98 12 101 24 108 35 c 2
 547 681 l 1
 152 1241 l 2
 144 1252 141 1265 141 1277 c 0
EndSplineSet
Colour: ffff
EndChar

StartChar: Y
Encoding: 89 89 37
Width: 1267
VWidth: 2426
Flags: HMW
LayerCount: 2
Fore
SplineSet
698 1 m 2
 699 -33 671 -62 636 -62 c 0
 602 -62 575 -35 574 -1 c 2
 563 613 l 1
 109 1251 l 2
 101 1262 98 1274 98 1287 c 0
 98 1319 124 1349 160 1349 c 0
 180 1349 199 1340 211 1323 c 2
 624 742 l 1
 1055 1373 l 2
 1067 1391 1087 1400 1107 1400 c 0
 1143 1400 1169 1370 1169 1338 c 0
 1169 1326 1166 1314 1159 1303 c 2
 688 614 l 1
 698 1 l 2
EndSplineSet
Colour: ffff
EndChar

StartChar: Z
Encoding: 90 90 38
Width: 1422
VWidth: 2426
Flags: HMW
LayerCount: 2
Fore
SplineSet
160 1208 m 0
 128 1208 98 1233 98 1270 c 0
 98 1298 117 1324 145 1331 c 0
 348 1382 533 1408 745 1408 c 0
 760 1408 779 1409 800 1409 c 0
 923 1409 1121 1400 1158 1273 c 0
 1161 1263 1162 1252 1162 1241 c 0
 1162 1198 1140 1160 1109 1127 c 0
 804 791 559 488 327 123 c 1
 611 151 894 166 1197 166 c 2
 1262 166 l 2
 1296 166 1325 138 1325 104 c 0
 1325 70 1296 42 1262 42 c 2
 1197 42 l 2
 854 42 533 21 213 -15 c 1
 205 -15 l 2
 168 -15 144 17 144 48 c 0
 144 59 147 69 153 79 c 0
 411 502 678 838 1017 1211 c 0
 1029 1224 1034 1232 1036 1238 c 1
 1005 1264 852 1284 745 1284 c 0
 543 1284 372 1258 175 1209 c 0
 170 1208 165 1208 160 1208 c 0
EndSplineSet
Colour: ffff
EndChar

StartChar: zero
Encoding: 48 48 39
Width: 1141
VWidth: 2426
Flags: HMW
LayerCount: 2
Fore
SplineSet
98 486 m 0
 98 799 159 1408 580 1408 c 0
 884 1408 1044 1116 1044 843 c 0
 1044 481 961 -48 510 -48 c 0
 201 -48 98 232 98 486 c 0
222 486 m 0
 222 250 307 78 510 78 c 0
 825 78 918 463 918 843 c 0
 918 1082 786 1284 580 1284 c 0
 313 1284 222 831 222 486 c 0
EndSplineSet
Colour: ffff
EndChar

StartChar: one
Encoding: 49 49 40
Width: 675
VWidth: 2426
Flags: HMW
LayerCount: 2
Fore
SplineSet
161 986 m 0
 129 986 98 1011 98 1048 c 0
 98 1069 109 1090 128 1102 c 0
 240 1169 355 1268 434 1357 c 0
 445 1369 463 1378 481 1378 c 2
 515 1378 l 2
 543 1378 577 1354 577 1316 c 2
 568 -0 l 2
 568 -34 540 -62 506 -62 c 0
 472 -62 444 -34 444 0 c 2
 452 1195 l 1
 375 1120 285 1049 192 994 c 0
 182 988 172 986 161 986 c 0
EndSplineSet
Colour: ffff
EndChar

StartChar: two
Encoding: 50 50 41
Width: 1171
VWidth: 2426
Flags: HMW
LayerCount: 2
Fore
SplineSet
208 842 m 0
 174 842 146 870 146 904 c 0
 146 1163 324 1408 609 1408 c 0
 859 1408 1016 1217 1016 1021 c 0
 1016 771 809 553 579 343 c 2
 337 122 l 1
 433 127 528 130 626 130 c 0
 754 130 884 124 1014 118 c 0
 1047 116 1074 89 1074 56 c 0
 1074 21 1044 -6 1011 -6 c 0
 1010 -6 1009 -6 1008 -6 c 0
 878 0 750 4 626 4 c 0
 470 4 318 -1 166 -17 c 1
 159 -17 l 2
 125 -17 98 11 98 45 c 0
 98 62 105 79 118 91 c 2
 495 435 l 2
 727 647 890 843 890 1021 c 0
 890 1151 789 1284 609 1284 c 0
 408 1284 270 1111 270 904 c 0
 270 870 242 842 208 842 c 0
EndSplineSet
Colour: ffff
EndChar

StartChar: three
Encoding: 51 51 42
Width: 1078
VWidth: 2426
Flags: HMW
LayerCount: 2
Fore
SplineSet
225 1005 m 0
 188 1005 163 1035 163 1067 c 0
 163 1071 163 1077 164 1081 c 0
 209 1284 377 1408 581 1408 c 0
 764 1408 932 1276 932 1008 c 0
 932 873 852 779 752 721 c 1
 879 678 975 578 980 413 c 1
 980 149 750 -48 484 -48 c 0
 355 -48 223 -7 120 78 c 0
 105 90 98 108 98 126 c 0
 98 161 127 188 160 188 c 0
 174 188 189 183 200 174 c 0
 277 111 381 78 484 78 c 0
 691 78 854 229 855 411 c 1
 849 574 725 628 531 628 c 0
 474 628 420 616 370 609 c 0
 367 609 364 609 361 609 c 0
 328 609 299 636 299 671 c 0
 299 737 372 737 431 745 c 0
 478 754 525 765 569 779 c 0
 718 826 808 895 808 1008 c 0
 808 1216 698 1284 581 1284 c 0
 429 1284 319 1198 286 1053 c 0
 280 1024 254 1005 225 1005 c 0
EndSplineSet
Colour: ffff
EndChar

StartChar: four
Encoding: 52 52 43
Width: 1268
VWidth: 2426
Flags: HMW
LayerCount: 2
Fore
SplineSet
804 843 m 0
 840 843 866 814 866 781 c 0
 866 779 866 777 866 775 c 2
 828 387 l 1
 918 402 1007 421 1093 442 c 0
 1098 443 1103 443 1108 443 c 0
 1140 443 1171 418 1171 381 c 0
 1171 353 1151 327 1123 320 c 0
 1024 296 921 275 816 259 c 1
 790 -6 l 2
 787 -38 760 -62 728 -62 c 0
 692 -62 666 -33 666 0 c 0
 666 2 666 4 666 6 c 2
 689 241 l 1
 583 229 475 222 368 222 c 0
 324 222 282 223 235 230 c 0
 199 234 142 245 112 300 c 0
 102 318 98 338 98 359 c 0
 98 403 115 435 132 458 c 0
 351 754 520 983 664 1339 c 0
 674 1363 698 1378 723 1378 c 0
 761 1378 784 1346 784 1315 c 0
 784 1307 783 1300 780 1293 c 0
 630 921 453 680 232 382 c 0
 229 378 224 366 223 361 c 1
 228 358 236 355 251 354 c 0
 292 348 327 346 368 346 c 0
 478 346 590 355 701 369 c 1
 742 787 l 2
 745 819 772 843 804 843 c 0
EndSplineSet
Colour: ffff
EndChar

StartChar: five
Encoding: 53 53 44
Width: 1113
VWidth: 2426
Flags: HMW
LayerCount: 2
Fore
SplineSet
943 1399 m 0
 975 1399 1005 1374 1005 1337 c 0
 1005 1308 985 1282 956 1276 c 0
 881 1260 772 1254 637 1254 c 0
 521 1254 402 1258 311 1269 c 1
 274 900 l 1
 353 940 436 958 518 958 c 0
 763 958 1016 827 1016 470 c 0
 1016 142 769 -48 496 -48 c 0
 364 -48 230 -4 121 83 c 0
 106 95 98 113 98 132 c 0
 98 167 127 194 160 194 c 0
 174 194 188 190 199 181 c 0
 285 112 392 78 496 78 c 0
 711 78 890 216 890 470 c 0
 890 747 721 834 518 834 c 0
 423 834 322 799 241 727 c 0
 229 717 215 712 201 712 c 0
 168 712 137 738 137 774 c 0
 137 776 137 778 137 780 c 2
 193 1347 l 2
 196 1375 223 1403 256 1403 c 0
 260 1403 263 1403 267 1402 c 0
 343 1387 495 1378 637 1378 c 0
 768 1378 873 1386 930 1398 c 0
 934 1399 939 1399 943 1399 c 0
EndSplineSet
Colour: ffff
EndChar

StartChar: six
Encoding: 54 54 45
Width: 1099
VWidth: 2426
Flags: HMW
LayerCount: 2
Fore
SplineSet
877 409 m 0
 877 650 730 748 576 748 c 0
 420 748 262 634 224 575 c 1
 223 542 222 509 222 475 c 0
 222 236 324 78 548 78 c 0
 738 78 877 223 877 409 c 0
906 1281 m 0
 906 1243 875 1219 844 1219 c 0
 838 1219 832 1219 826 1221 c 0
 747 1245 678 1254 619 1254 c 0
 388 1254 279 1065 239 759 c 1
 326 820 446 874 576 874 c 0
 793 874 1002 716 1002 409 c 0
 1002 158 809 -48 548 -48 c 0
 236 -48 98 200 98 475 c 0
 98 918 193 1380 619 1380 c 0
 692 1380 773 1367 862 1341 c 0
 889 1333 906 1308 906 1281 c 0
EndSplineSet
Colour: ffff
EndChar

StartChar: eight
Encoding: 56 56 46
Width: 1079
VWidth: 2426
Flags: HMW
LayerCount: 2
Fore
SplineSet
345 795 m 1
 474 932 634 1052 776 1133 c 1
 711 1235 633 1284 523 1284 c 0
 325 1284 222 1167 222 1024 c 0
 222 941 274 858 345 795 c 1
364 628 m 1
 277 519 226 411 226 324 c 0
 226 177 334 78 488 78 c 0
 640 78 744 179 744 295 c 0
 744 418 594 530 430 596 c 0
 409 605 386 615 364 628 c 1
897 967 m 0
 862 967 844 991 832 1021 c 1
 708 950 565 842 450 724 c 1
 459 719 468 715 476 712 c 0
 642 646 868 514 868 295 c 0
 868 98 696 -48 488 -48 c 0
 274 -48 102 103 102 324 c 0
 102 455 170 584 263 701 c 1
 176 778 98 890 98 1024 c 0
 98 1240 267 1408 523 1408 c 0
 684 1408 806 1323 888 1189 c 1
 897 1193 908 1197 919 1197 c 0
 950 1197 981 1174 981 1136 c 0
 981 1112 967 1088 944 1078 c 1
 950 1064 958 1048 958 1030 c 0
 958 999 935 967 897 967 c 0
EndSplineSet
Colour: ffff
EndChar

StartChar: period
Encoding: 46 46 47
Width: 438
VWidth: 2170
Flags: HMW
LayerCount: 2
Fore
SplineSet
99 87 m 0
 99 151 151 190 210 190 c 0
 269 190 301 152 301 93 c 0
 301 34 263 -17 204 -17 c 0
 145 -17 99 41 99 87 c 0
EndSplineSet
Colour: ff0000
EndChar

StartChar: comma
Encoding: 44 44 49
Width: 478
VWidth: 1823
Flags: HMW
LayerCount: 2
Fore
SplineSet
112 -269 m 0
 75 -269 50 -239 50 -207 c 0
 50 -196 52 -186 58 -176 c 2
 288 220 l 2
 299 240 320 251 342 251 c 0
 379 251 404 221 404 189 c 0
 404 178 402 168 396 158 c 2
 166 -238 l 2
 155 -258 134 -269 112 -269 c 0
EndSplineSet
Colour: ffff
EndChar

StartChar: bracketleft
Encoding: 91 91 51
Width: 715
VWidth: 2426
Flags: HMW
LayerCount: 2
Fore
SplineSet
361 1378 m 0
 415 1378 466 1383 515 1383 c 0
 548 1383 577 1357 577 1321 c 0
 577 1289 552 1262 520 1259 c 0
 467 1255 415 1254 361 1254 c 0
 332 1254 301 1254 274 1255 c 1
 283 1160 286 1066 286 972 c 0
 286 740 262 499 262 275 c 2
 262 266 l 2
 262 129 312 116 513 107 c 0
 546 106 573 78 573 45 c 0
 573 10 543 -17 510 -17 c 0
 509 -17 508 -17 507 -17 c 0
 310 -8 138 31 138 266 c 0
 138 496 162 738 162 972 c 0
 162 1086 156 1200 142 1314 c 1
 142 1319 l 2
 142 1346 164 1384 204 1384 c 0
 256 1384 307 1378 361 1378 c 0
EndSplineSet
Colour: ffff
EndChar

StartChar: bracketright
Encoding: 93 93 52
Width: 726
VWidth: 2426
Flags: HMW
LayerCount: 2
Fore
SplineSet
138 1343 m 0
 138 1380 168 1405 200 1405 c 0
 203 1405 207 1406 210 1405 c 0
 302 1390 407 1380 511 1378 c 0
 547 1377 572 1346 572 1315 c 0
 572 1311 572 1307 571 1303 c 0
 536 1142 534 1064 534 875 c 0
 534 682 588 480 588 285 c 0
 588 36 394 -18 207 -18 c 0
 173 -18 145 11 145 45 c 0
 145 79 173 108 207 108 c 0
 384 108 464 136 464 285 c 0
 464 477 410 679 410 875 c 0
 410 1034 411 1126 434 1256 c 1
 350 1260 266 1269 190 1281 c 0
 160 1286 138 1313 138 1343 c 0
EndSplineSet
PairPos2: "'kern' Horizontal Kerning in Arabic lookup 2 per glyph data 0" uni0622 dx=300 dy=0 dh=300 dv=0 dx=0 dy=0 dh=0 dv=0
Colour: ffff
EndChar

StartChar: braceleft
Encoding: 123 123 53
Width: 695
VWidth: 1839
Flags: HMW
LayerCount: 2
Fore
SplineSet
232 215 m 0
 232 282 246 336 246 413 c 0
 246 516 229 634 206 678 c 1
 171 685 138 705 138 746 c 0
 138 769 150 792 172 803 c 0
 191 813 209 812 212 812 c 0
 216 812 219 811 223 811 c 0
 234 840 242 905 242 983 c 0
 242 1059 236 1127 236 1186 c 0
 236 1326 318 1424 492 1424 c 0
 526 1424 555 1395 555 1361 c 0
 555 1327 526 1298 492 1298 c 0
 373 1298 360 1268 360 1186 c 0
 360 1129 367 1073 367 1008 c 0
 367 999 366 991 366 983 c 0
 366 883 364 793 321 729 c 1
 360 647 372 523 372 413 c 0
 372 364 369 318 363 279 c 0
 359 254 358 233 358 215 c 0
 358 135 372 108 495 108 c 0
 529 108 558 79 558 45 c 0
 558 11 529 -18 495 -18 c 0
 328 -18 232 67 232 215 c 0
EndSplineSet
Colour: ffff
EndChar

StartChar: braceright
Encoding: 125 125 54
Width: 695
VWidth: 0
Flags: HMW
LayerCount: 2
Fore
SplineSet
462 1190 m 0
 462 1123 448 1069 448 992 c 0
 448 889 466 771 489 727 c 1
 524 720 557 700 557 659 c 0
 557 636 545 613 523 602 c 0
 504 592 486 594 483 594 c 2
 472 594 l 1
 461 565 454 500 454 422 c 0
 454 346 460 278 460 219 c 0
 460 79 377 -18 203 -18 c 0
 169 -18 141 10 141 44 c 0
 141 78 169 106 203 106 c 0
 321 106 334 137 334 219 c 0
 334 276 328 332 328 397 c 2
 328 422 l 2
 328 522 331 612 374 676 c 1
 335 758 324 882 324 992 c 0
 324 1041 326 1087 332 1126 c 0
 336 1151 338 1172 338 1190 c 0
 338 1270 323 1298 200 1298 c 0
 166 1298 138 1326 138 1360 c 0
 138 1394 166 1422 200 1422 c 0
 367 1422 462 1338 462 1190 c 0
EndSplineSet
PairPos2: "'kern' Horizontal Kerning in Arabic lookup 2 per glyph data 0" uni0622 dx=300 dy=0 dh=300 dv=0 dx=0 dy=0 dh=0 dv=0
Colour: ffff
EndChar

StartChar: grave
Encoding: 96 96 55
Width: 539
VWidth: 2426
Flags: HMW
LayerCount: 2
Fore
SplineSet
118 1482 m 0
 118 1515 145 1544 180 1544 c 0
 199 1544 217 1536 229 1521 c 0
 294 1438 368 1301 416 1195 c 0
 420 1187 421 1179 421 1170 c 0
 421 1139 398 1107 360 1107 c 0
 336 1107 312 1120 302 1143 c 0
 258 1241 184 1376 131 1443 c 0
 122 1454 118 1468 118 1482 c 0
EndSplineSet
Colour: ffff
EndChar

StartChar: bar
Encoding: 124 124 56
Width: 417
VWidth: 2426
Flags: HMW
LayerCount: 2
Fore
SplineSet
200 -62 m 0
 166 -62 138 -34 138 0 c 0
 138 367 154 1040 154 1459 c 0
 154 1493 183 1522 217 1522 c 0
 251 1522 280 1493 280 1459 c 0
 280 1039 270 366 263 -1 c 0
 262 -35 234 -62 200 -62 c 0
EndSplineSet
Colour: ffff
EndChar

StartChar: asciicircum
Encoding: 94 94 57
Width: 718
VWidth: 2426
Flags: HMW
LayerCount: 2
Fore
SplineSet
180 1107 m 0
 143 1107 118 1137 118 1169 c 0
 118 1180 121 1192 127 1202 c 2
 293 1471 l 2
 305 1490 325 1500 346 1500 c 0
 365 1500 386 1489 395 1477 c 2
 587 1236 l 2
 596 1225 600 1211 600 1197 c 0
 600 1164 573 1135 538 1135 c 0
 519 1135 501 1143 489 1158 c 2
 353 1330 l 1
 233 1136 l 2
 221 1117 201 1107 180 1107 c 0
EndSplineSet
Colour: ffff
EndChar

StartChar: hyphen
Encoding: 45 45 58
Width: 1037
VWidth: 2426
Flags: HMW
LayerCount: 2
Fore
SplineSet
160 375 m 2
 127 375 98 401 98 437 c 0
 98 469 123 496 155 499 c 0
 411 521 632 524 877 524 c 0
 911 524 940 495 940 461 c 0
 940 427 911 398 877 398 c 0
 632 398 415 397 165 375 c 1
 160 375 l 2
EndSplineSet
Colour: ffff
EndChar

StartChar: plus
Encoding: 43 43 59
Width: 1033
VWidth: 2426
Flags: HMW
LayerCount: 2
Fore
SplineSet
160 579 m 2
 127 579 98 605 98 641 c 0
 98 672 121 699 152 703 c 0
 253 715 351 722 448 726 c 1
 441 836 426 949 406 1039 c 0
 405 1043 405 1049 405 1053 c 0
 405 1085 430 1115 467 1115 c 0
 496 1115 522 1096 528 1067 c 0
 551 967 566 846 573 729 c 1
 588 729 603 730 618 730 c 0
 703 730 789 727 876 723 c 0
 909 721 936 694 936 661 c 0
 936 626 906 599 873 599 c 0
 787 599 702 604 618 604 c 2
 578 604 l 1
 578 566 l 2
 578 447 571 343 546 272 c 0
 537 246 513 231 487 231 c 0
 449 231 425 262 425 293 c 0
 425 300 426 307 428 314 c 0
 443 357 454 453 454 566 c 0
 454 578 453 589 453 601 c 1
 359 597 265 591 168 579 c 1
 160 579 l 2
EndSplineSet
Colour: ffff
EndChar

StartChar: exclam
Encoding: 33 33 60
Width: 583
VWidth: 0
Flags: HMW
LayerCount: 2
Fore
SplineSet
396 85 m 0
 396 41 363 -18 298 -18 c 0
 255 -18 188 10 188 84 c 0
 188 143 235 190 294 190 c 0
 358 190 396 135 396 85 c 0
188 1361 m 2
 188 1393 214 1423 250 1423 c 0
 281 1423 308 1400 312 1369 c 0
 349 1101 358 837 358 547 c 0
 358 508 358 466 357 423 c 0
 356 389 327 362 294 362 c 0
 259 362 232 390 232 424 c 2
 232 547 l 2
 232 835 223 1093 188 1353 c 1
 188 1361 l 2
EndSplineSet
Colour: ffff
EndChar

StartChar: quotesingle
Encoding: 39 39 62
Width: 331
VWidth: 2426
Flags: HMW
LayerCount: 2
Fore
SplineSet
200 906 m 0
 197 882 179 872 160 872 c 0
 140 872 120 885 120 909 c 2
 120 914 l 1
 127 976 131 1050 131 1126 c 0
 131 1206 120 1287 120 1362 c 0
 120 1387 141 1399 161 1399 c 0
 180 1399 198 1389 200 1365 c 0
 207 1290 211 1206 211 1126 c 0
 211 1048 207 972 200 906 c 0
EndSplineSet
Colour: ffff00
EndChar

StartChar: parenleft
Encoding: 40 40 63
Width: 606
VWidth: 1839
Flags: HMW
LayerCount: 2
Fore
SplineSet
361 1474 m 0
 398 1474 422 1442 422 1411 c 0
 422 1402 420 1394 416 1385 c 0
 291 1129 262 962 262 682 c 0
 262 410 334 244 462 -19 c 0
 466 -28 468 -36 468 -45 c 0
 468 -76 444 -108 407 -108 c 0
 384 -108 361 -95 350 -73 c 0
 222 190 138 384 138 682 c 0
 138 972 173 1169 304 1439 c 0
 315 1461 338 1474 361 1474 c 0
EndSplineSet
Colour: ffff
EndChar

StartChar: parenright
Encoding: 41 41 64
Width: 606
VWidth: 1839
Flags: HMW
LayerCount: 2
Fore
SplineSet
245 -108 m 0
 208 -108 184 -76 184 -45 c 0
 184 -36 186 -28 190 -19 c 0
 315 237 344 404 344 684 c 0
 344 956 272 1122 144 1385 c 0
 140 1394 138 1402 138 1411 c 0
 138 1442 163 1474 200 1474 c 0
 223 1474 245 1461 256 1439 c 0
 384 1176 468 982 468 684 c 0
 468 394 433 197 302 -73 c 0
 291 -95 268 -108 245 -108 c 0
EndSplineSet
PairPos2: "'kern' Horizontal Kerning in Arabic lookup 2 per glyph data 0" uni0622 dx=320 dy=0 dh=320 dv=0 dx=0 dy=0 dh=0 dv=0
Colour: ffff
EndChar

StartChar: less
Encoding: 60 60 65
Width: 645
VWidth: 1839
Flags: HMW
LayerCount: 2
Fore
SplineSet
547 413 m 0
 547 381 522 351 485 351 c 0
 464 351 444 362 432 381 c 0
 361 498 276 597 179 682 c 0
 165 695 159 712 159 728 c 0
 159 748 167 766 180 777 c 0
 277 858 362 955 431 1076 c 0
 442 1096 464 1107 486 1107 c 0
 523 1107 547 1077 547 1045 c 0
 547 1035 544 1024 539 1014 c 0
 475 902 399 808 313 728 c 1
 398 646 474 551 538 445 c 0
 544 435 547 424 547 413 c 0
EndSplineSet
Colour: ffff
EndChar

StartChar: backslash
Encoding: 92 92 66
Width: 1105
VWidth: 2426
Flags: HMW
LayerCount: 2
Fore
SplineSet
118 1316 m 0
 118 1348 144 1378 180 1378 c 0
 199 1378 218 1369 230 1353 c 0
 543 931 790 574 984 21 c 0
 986 14 988 7 988 0 c 0
 988 -31 964 -62 926 -62 c 0
 900 -62 875 -46 866 -21 c 0
 678 516 443 859 130 1279 c 0
 122 1290 118 1303 118 1316 c 0
EndSplineSet
Colour: ffff
EndChar

StartChar: asterisk
Encoding: 42 42 67
Width: 1108
VWidth: 1839
Flags: HMW
LayerCount: 2
Fore
SplineSet
455 1345 m 0
 455 1377 480 1407 517 1407 c 0
 547 1407 574 1386 579 1356 c 0
 599 1242 610 1130 614 1020 c 1
 713 1072 817 1119 926 1160 c 0
 933 1163 941 1163 948 1163 c 0
 979 1163 1010 1140 1010 1102 c 0
 1010 1077 995 1051 970 1042 c 0
 868 1004 772 961 679 913 c 1
 772 854 862 788 947 718 c 0
 962 706 969 688 969 670 c 0
 969 635 940 608 907 608 c 0
 893 608 878 613 867 622 c 0
 786 689 702 750 614 806 c 1
 609 693 597 583 579 472 c 0
 574 442 547 420 517 420 c 0
 480 420 455 450 455 482 c 0
 455 485 454 489 455 492 c 0
 472 595 484 698 489 803 c 1
 402 748 319 687 240 622 c 0
 229 613 214 608 200 608 c 0
 167 608 138 635 138 670 c 0
 138 688 145 706 160 718 c 0
 246 789 335 854 429 913 c 1
 337 961 240 1004 138 1042 c 0
 113 1051 98 1077 98 1102 c 0
 98 1140 130 1163 161 1163 c 0
 168 1163 175 1163 182 1160 c 0
 289 1120 391 1073 489 1022 c 1
 485 1124 474 1228 455 1334 c 0
 454 1338 455 1341 455 1345 c 0
EndSplineSet
Colour: ffff
EndChar

StartChar: numbersign
Encoding: 35 35 68
Width: 1734
VWidth: 1823
Flags: HMW
LayerCount: 2
Fore
SplineSet
388 -62 m 0
 350 -62 326 -31 326 0 c 0
 326 6 326 12 328 18 c 2
 449 423 l 1
 158 434 l 2
 125 435 98 463 98 496 c 0
 98 531 126 558 160 558 c 2
 162 558 l 1
 486 546 l 1
 583 869 l 1
 254 860 l 1
 252 860 l 2
 218 860 190 887 190 922 c 0
 190 955 217 983 250 984 c 2
 620 995 l 1
 735 1379 l 2
 743 1406 768 1423 795 1423 c 0
 833 1423 857 1392 857 1361 c 0
 857 1355 857 1349 855 1343 c 2
 752 999 l 1
 1183 1012 l 1
 1252 1373 l 2
 1258 1403 1284 1423 1313 1423 c 0
 1350 1423 1375 1393 1375 1361 c 0
 1375 1357 1375 1353 1374 1349 c 2
 1311 1016 l 1
 1572 1023 l 1
 1574 1023 l 2
 1608 1023 1636 996 1636 961 c 0
 1636 928 1609 900 1576 899 c 2
 1287 890 l 1
 1216 519 l 1
 1512 507 l 2
 1545 506 1572 478 1572 445 c 0
 1572 410 1544 383 1510 383 c 2
 1508 383 l 1
 1192 394 l 1
 1114 -12 l 2
 1108 -42 1082 -62 1053 -62 c 0
 1016 -62 991 -32 991 0 c 0
 991 4 991 8 992 12 c 2
 1066 399 l 1
 578 418 l 1
 448 -18 l 2
 440 -45 415 -62 388 -62 c 0
1159 886 m 1
 714 873 l 1
 615 541 l 1
 1089 523 l 1
 1159 886 l 1
EndSplineSet
Colour: ffff
EndChar

StartChar: slash
Encoding: 47 47 70
Width: 965
VWidth: 1839
Flags: HMW
LayerCount: 2
Fore
SplineSet
200 -62 m 0
 163 -62 138 -32 138 0 c 0
 138 11 140 22 146 32 c 0
 415 478 608 913 704 1374 c 0
 710 1403 736 1423 765 1423 c 0
 802 1423 828 1393 828 1361 c 0
 828 1357 827 1352 826 1348 c 0
 726 869 527 422 254 -32 c 0
 242 -51 221 -62 200 -62 c 0
EndSplineSet
Colour: ffff
EndChar

StartChar: greater
Encoding: 62 62 71
Width: 645
VWidth: 1823
Flags: HMW
LayerCount: 2
Fore
SplineSet
98 1046 m 0
 98 1078 123 1108 160 1108 c 0
 181 1108 201 1097 213 1078 c 0
 284 961 369 862 466 777 c 0
 480 764 486 747 486 731 c 0
 486 711 478 693 465 682 c 0
 368 601 283 504 214 383 c 0
 203 363 182 352 160 352 c 0
 123 352 98 382 98 414 c 0
 98 424 101 435 106 445 c 0
 170 557 246 651 332 731 c 1
 247 813 171 908 107 1014 c 0
 101 1024 98 1035 98 1046 c 0
EndSplineSet
Colour: ffff
EndChar

StartChar: equal
Encoding: 61 61 72
Width: 1037
VWidth: 1839
Flags: HMW
LayerCount: 2
Fore
SplineSet
98 471 m 0
 98 508 128 533 160 533 c 0
 164 533 168 533 172 532 c 0
 214 524 396 518 498 518 c 0
 603 518 744 523 872 533 c 1
 877 533 l 2
 910 533 940 507 940 471 c 0
 940 439 914 411 882 409 c 0
 750 399 607 394 498 394 c 0
 390 394 218 396 148 410 c 0
 119 416 98 442 98 471 c 0
98 875 m 0
 98 911 127 937 160 937 c 2
 165 937 l 1
 276 927 467 924 557 924 c 0
 666 924 781 929 872 937 c 1
 877 937 l 2
 910 937 940 911 940 875 c 0
 940 843 914 816 882 813 c 0
 787 805 670 798 557 798 c 0
 463 798 274 803 155 813 c 0
 123 816 98 843 98 875 c 0
EndSplineSet
Colour: ffff
EndChar

StartChar: AE
Encoding: 198 198 75
Width: 1968
VWidth: 2426
Flags: HMW
LayerCount: 2
Fore
SplineSet
1786 693 m 0
 1786 657 1756 631 1723 631 c 2
 1718 631 l 1
 1574 643 1378 648 1179 648 c 0
 1167 648 1155 648 1143 648 c 1
 1137 485 1126 329 1104 205 c 0
 1101 191 1100 180 1100 173 c 0
 1100 115 1167 70 1310 62 c 0
 1436 54 1536 50 1662 50 c 0
 1684 50 1704 49 1724 49 c 0
 1745 49 1765 50 1786 50 c 0
 1819 50 1849 23 1849 -12 c 0
 1849 -45 1822 -72 1789 -74 c 0
 1766 -75 1745 -76 1724 -76 c 2
 1662 -76 l 2
 1532 -76 1428 -70 1302 -62 c 0
 1163 -54 976 -5 976 173 c 0
 976 192 978 209 982 228 c 0
 1001 339 1012 489 1018 647 c 1
 875 645 717 641 600 634 c 1
 491 378 355 133 208 -40 c 0
 196 -54 178 -62 160 -62 c 0
 125 -62 98 -33 98 0 c 0
 98 14 102 28 112 40 c 0
 243 195 371 421 474 659 c 1
 468 668 465 680 465 692 c 0
 465 721 485 746 513 753 c 1
 595 956 658 1162 690 1336 c 0
 695 1362 719 1387 751 1387 c 0
 823 1387 1212 1380 1284 1380 c 0
 1463 1380 1633 1397 1794 1435 c 0
 1799 1436 1803 1436 1808 1436 c 0
 1840 1436 1870 1411 1870 1374 c 0
 1870 1346 1850 1320 1822 1313 c 0
 1651 1273 1471 1254 1284 1254 c 0
 1262 1254 1210 1255 1148 1256 c 1
 1149 1214 1150 1167 1150 1119 c 0
 1150 1012 1149 892 1147 773 c 1
 1158 773 1168 774 1179 774 c 0
 1380 774 1578 767 1728 755 c 0
 1760 752 1786 725 1786 693 c 0
652 762 m 1
 764 767 898 770 1021 772 c 1
 1024 891 1024 1011 1024 1119 c 0
 1024 1168 1024 1214 1023 1257 c 1
 940 1258 857 1260 802 1261 c 1
 770 1106 718 934 652 762 c 1
EndSplineSet
Colour: ffff
EndChar

StartChar: cedilla
Encoding: 184 184 77
Width: 717
VWidth: 2426
Flags: HMW
LayerCount: 2
Fore
SplineSet
265 0 m 0
 265 35 294 62 327 62 c 0
 341 62 355 58 366 49 c 0
 461 -28 620 -200 620 -361 c 0
 620 -490 505 -564 319 -564 c 0
 252 -564 189 -554 143 -541 c 0
 116 -533 98 -508 98 -481 c 0
 98 -443 130 -419 161 -419 c 0
 167 -419 171 -419 177 -421 c 0
 209 -430 264 -438 319 -438 c 0
 485 -438 494 -392 494 -361 c 0
 494 -278 371 -116 288 -49 c 0
 273 -37 265 -18 265 0 c 0
EndSplineSet
Colour: ffff
EndChar

StartChar: Oslash
Encoding: 216 216 78
Width: 1494
VWidth: 1823
Flags: HMW
LayerCount: 2
Fore
SplineSet
170 -62 m 0
 134 -62 108 -32 108 0 c 0
 108 12 111 25 118 35 c 0
 471 565 850 961 1292 1362 c 0
 1304 1373 1319 1378 1334 1378 c 0
 1367 1378 1396 1351 1396 1316 c 0
 1396 1299 1389 1282 1376 1270 c 0
 938 873 569 485 222 -35 c 0
 210 -53 190 -62 170 -62 c 0
EndSplineSet
Refer: 27 79 N 1 0 0 1 0 0 2
Colour: ffff
EndChar

StartChar: uni0627
Encoding: 1575 1575 80
Width: 445
VWidth: 1839
Flags: HMW
AnchorPoint: "Anchor-3" 200 1169 basechar 0
AnchorPoint: "Anchor-1" 218 0 basechar 0
LayerCount: 2
Fore
SplineSet
138 1166 m 2
 138 1198 164 1228 200 1228 c 0
 231 1228 258 1205 262 1174 c 0
 294 934 308 796 308 531 c 0
 308 364 300 163 286 -4 c 0
 283 -36 256 -61 224 -61 c 0
 188 -61 162 -32 162 1 c 2
 162 6 l 1
 176 169 182 368 182 531 c 0
 182 792 170 918 138 1158 c 1
 138 1166 l 2
EndSplineSet
PairPos2: "'kern' Horizontal Kerning in Arabic lookup 2 per glyph data 0" uni063A dx=-267 dy=0 dh=-267 dv=0 dx=0 dy=0 dh=0 dv=0
PairPos2: "'kern' Horizontal Kerning in Arabic lookup 2 per glyph data 0" uni0639 dx=-267 dy=0 dh=-267 dv=0 dx=0 dy=0 dh=0 dv=0
Substitution2: "'fina' Terminal Forms in Arabic lookup 4 subtable" uniFE8E
PairPos2: "'kern' Horizontal Kerning in Arabic lookup 2 per glyph data 1" uni0639 dx=-200 dy=0 dh=-200 dv=0 dx=0 dy=0 dh=0 dv=0
PairPos2: "'kern' Horizontal Kerning in Arabic lookup 2 per glyph data 1" uni063A dx=-200 dy=0 dh=-200 dv=0 dx=0 dy=0 dh=0 dv=0
Colour: ffff
EndChar

StartChar: uni066E
Encoding: 1646 1646 81
Width: 1726
VWidth: 2370
Flags: HMW
AnchorPoint: "Anchor-3" 838 489 basechar 0
AnchorPoint: "Anchor-1" 803 -30 basechar 0
LayerCount: 2
Fore
SplineSet
1446 627 m 0
 1446 659 1471 689 1508 689 c 0
 1530 689 1551 678 1562 658 c 0
 1602 589 1628 483 1628 383 c 0
 1628 -7 1116 -48 843 -48 c 0
 547 -48 98 -10 98 373 c 0
 98 453 113 552 144 614 c 0
 155 636 178 648 201 648 c 0
 238 648 262 616 262 585 c 0
 262 576 260 567 256 558 c 0
 241 528 222 435 222 373 c 0
 222 132 517 78 843 78 c 0
 1148 78 1504 141 1504 383 c 0
 1504 459 1478 553 1454 596 c 0
 1449 606 1446 617 1446 627 c 0
EndSplineSet
Substitution2: "'fina' Terminal Forms in Arabic lookup 4 subtable" uniFBE8
Colour: ffff
EndChar

StartChar: uni0631
Encoding: 1585 1585 82
Width: 797
VWidth: 2370
Flags: HMW
AnchorPoint: "Anchor-1" 425 -394 basechar 0
AnchorPoint: "Anchor-3" 512 566 basechar 0
LayerCount: 2
Fore
SplineSet
470 484 m 0
 470 515 494 546 532 546 c 0
 560 546 585 528 592 500 c 0
 635 339 660 197 660 71 c 0
 660 -243 517 -447 173 -518 c 0
 169 -519 164 -519 160 -519 c 0
 128 -519 98 -494 98 -457 c 0
 98 -428 118 -402 147 -396 c 0
 441 -335 534 -197 534 71 c 0
 534 181 513 313 472 468 c 0
 471 473 470 479 470 484 c 0
EndSplineSet
PairPos2: "'kern' Horizontal Kerning in Arabic lookup 2 per glyph data 2" uniE01B dx=-150 dy=0 dh=-150 dv=0 dx=0 dy=0 dh=0 dv=0
PairPos2: "'kern' Horizontal Kerning in Arabic lookup 2 per glyph data 2" uniE019 dx=-150 dy=0 dh=-150 dv=0 dx=0 dy=0 dh=0 dv=0
PairPos2: "'kern' Horizontal Kerning in Arabic lookup 2 per glyph data 2" uniE017 dx=-150 dy=0 dh=-150 dv=0 dx=0 dy=0 dh=0 dv=0
Substitution2: "Single Substitution 1 subtable" uniE017
PairPos2: "'kern' Horizontal Kerning in Arabic lookup 2 per glyph data 0" period dx=-250 dy=0 dh=-250 dv=0 dx=0 dy=0 dh=0 dv=0
PairPos2: "'kern' Horizontal Kerning in Arabic lookup 2 per glyph data 0" uni060C dx=-250 dy=0 dh=-250 dv=0 dx=0 dy=0 dh=0 dv=0
PairPos2: "'kern' Horizontal Kerning in Arabic lookup 2 per glyph data 0" uni061B dx=-250 dy=0 dh=-250 dv=0 dx=0 dy=0 dh=0 dv=0
PairPos2: "'kern' Horizontal Kerning in Arabic lookup 2 per glyph data 0" parenleft dx=-250 dy=0 dh=-250 dv=0 dx=0 dy=0 dh=0 dv=0
PairPos2: "'kern' Horizontal Kerning in Arabic lookup 2 per glyph data 0" braceleft dx=-250 dy=0 dh=-250 dv=0 dx=0 dy=0 dh=0 dv=0
PairPos2: "'kern' Horizontal Kerning in Arabic lookup 2 per glyph data 0" bracketleft dx=-250 dy=0 dh=-250 dv=0 dx=0 dy=0 dh=0 dv=0
PairPos2: "'kern' Horizontal Kerning in Arabic lookup 2 per glyph data 5" space dx=-372 dy=0 dh=-372 dv=0 dx=0 dy=0 dh=0 dv=0
PairPos2: "'kern' Horizontal Kerning in Arabic lookup 2 per glyph data 2" uni0626 dx=-50 dy=0 dh=-50 dv=0 dx=0 dy=0 dh=0 dv=0
PairPos2: "'kern' Horizontal Kerning in Arabic lookup 2 per glyph data 2" uni064A dx=-50 dy=0 dh=-50 dv=0 dx=0 dy=0 dh=0 dv=0
PairPos2: "'kern' Horizontal Kerning in Arabic lookup 2 per glyph data 2" uni0649 dx=-50 dy=0 dh=-50 dv=0 dx=0 dy=0 dh=0 dv=0
PairPos2: "'kern' Horizontal Kerning in Arabic lookup 2 per glyph data 2" uni06CC dx=-50 dy=0 dh=-50 dv=0 dx=0 dy=0 dh=0 dv=0
PairPos2: "'kern' Horizontal Kerning in Arabic lookup 2 per glyph data 2" uniFBFE dx=-40 dy=0 dh=-40 dv=0 dx=0 dy=0 dh=0 dv=0
PairPos2: "'kern' Horizontal Kerning in Arabic lookup 2 per glyph data 2" uniFEF3 dx=-40 dy=0 dh=-40 dv=0 dx=0 dy=0 dh=0 dv=0
PairPos2: "'kern' Horizontal Kerning in Arabic lookup 2 per glyph data 2" uniFB58 dx=-40 dy=0 dh=-40 dv=0 dx=0 dy=0 dh=0 dv=0
Substitution2: "'fina' Terminal Forms in Arabic lookup 4 subtable" uniFEAE
PairPos2: "'kern' Horizontal Kerning in Arabic lookup 2 per glyph data 3" uni06A9 dx=-267 dy=0 dh=-267 dv=0 dx=0 dy=0 dh=0 dv=0
PairPos2: "'kern' Horizontal Kerning in Arabic lookup 2 per glyph data 3" uni06AF dx=-267 dy=0 dh=-267 dv=0 dx=0 dy=0 dh=0 dv=0
PairPos2: "'kern' Horizontal Kerning in Arabic lookup 2 per glyph data 3" uniFB90 dx=-267 dy=0 dh=-267 dv=0 dx=0 dy=0 dh=0 dv=0
PairPos2: "'kern' Horizontal Kerning in Arabic lookup 2 per glyph data 3" uniFB94 dx=-267 dy=0 dh=-267 dv=0 dx=0 dy=0 dh=0 dv=0
PairPos2: "'kern' Horizontal Kerning in Arabic lookup 2 per glyph data 3" uniFEDB dx=-267 dy=0 dh=-267 dv=0 dx=0 dy=0 dh=0 dv=0
PairPos2: "'kern' Horizontal Kerning in Arabic lookup 2 per glyph data 2" uni0622 dx=-167 dy=0 dh=-167 dv=0 dx=0 dy=0 dh=0 dv=0
PairPos2: "'kern' Horizontal Kerning in Arabic lookup 2 per glyph data 2" uni0623 dx=-167 dy=0 dh=-167 dv=0 dx=0 dy=0 dh=0 dv=0
PairPos2: "'kern' Horizontal Kerning in Arabic lookup 2 per glyph data 2" uni0624 dx=-133 dy=0 dh=-133 dv=0 dx=0 dy=0 dh=0 dv=0
PairPos2: "'kern' Horizontal Kerning in Arabic lookup 2 per glyph data 2" uni0627 dx=-167 dy=0 dh=-167 dv=0 dx=0 dy=0 dh=0 dv=0
PairPos2: "'kern' Horizontal Kerning in Arabic lookup 2 per glyph data 2" uni0628 dx=-234 dy=0 dh=-234 dv=0 dx=0 dy=0 dh=0 dv=0
PairPos2: "'kern' Horizontal Kerning in Arabic lookup 2 per glyph data 2" uni0629 dx=-234 dy=0 dh=-234 dv=0 dx=0 dy=0 dh=0 dv=0
PairPos2: "'kern' Horizontal Kerning in Arabic lookup 2 per glyph data 2" uni062A dx=-234 dy=0 dh=-234 dv=0 dx=0 dy=0 dh=0 dv=0
PairPos2: "'kern' Horizontal Kerning in Arabic lookup 2 per glyph data 2" uni062B dx=-234 dy=0 dh=-234 dv=0 dx=0 dy=0 dh=0 dv=0
PairPos2: "'kern' Horizontal Kerning in Arabic lookup 2 per glyph data 2" uni062F dx=-250 dy=0 dh=-250 dv=0 dx=0 dy=0 dh=0 dv=0
PairPos2: "'kern' Horizontal Kerning in Arabic lookup 2 per glyph data 2" uni0630 dx=-250 dy=0 dh=-250 dv=0 dx=0 dy=0 dh=0 dv=0
PairPos2: "'kern' Horizontal Kerning in Arabic lookup 2 per glyph data 2" uni0631 dx=-150 dy=0 dh=-150 dv=0 dx=0 dy=0 dh=0 dv=0
PairPos2: "'kern' Horizontal Kerning in Arabic lookup 2 per glyph data 2" uni0632 dx=-150 dy=0 dh=-150 dv=0 dx=0 dy=0 dh=0 dv=0
PairPos2: "'kern' Horizontal Kerning in Arabic lookup 2 per glyph data 2" uni0633 dx=-234 dy=0 dh=-234 dv=0 dx=0 dy=0 dh=0 dv=0
PairPos2: "'kern' Horizontal Kerning in Arabic lookup 2 per glyph data 2" uni0634 dx=-234 dy=0 dh=-234 dv=0 dx=0 dy=0 dh=0 dv=0
PairPos2: "'kern' Horizontal Kerning in Arabic lookup 2 per glyph data 2" uni0635 dx=-234 dy=0 dh=-234 dv=0 dx=0 dy=0 dh=0 dv=0
PairPos2: "'kern' Horizontal Kerning in Arabic lookup 2 per glyph data 2" uni0636 dx=-234 dy=0 dh=-234 dv=0 dx=0 dy=0 dh=0 dv=0
PairPos2: "'kern' Horizontal Kerning in Arabic lookup 2 per glyph data 2" uni0637 dx=-234 dy=0 dh=-234 dv=0 dx=0 dy=0 dh=0 dv=0
PairPos2: "'kern' Horizontal Kerning in Arabic lookup 2 per glyph data 2" uni0638 dx=-234 dy=0 dh=-234 dv=0 dx=0 dy=0 dh=0 dv=0
PairPos2: "'kern' Horizontal Kerning in Arabic lookup 2 per glyph data 2" uni0641 dx=-234 dy=0 dh=-234 dv=0 dx=0 dy=0 dh=0 dv=0
PairPos2: "'kern' Horizontal Kerning in Arabic lookup 2 per glyph data 2" uni0642 dx=-40 dy=0 dh=-40 dv=0 dx=0 dy=0 dh=0 dv=0
PairPos2: "'kern' Horizontal Kerning in Arabic lookup 2 per glyph data 2" uni0643 dx=-234 dy=0 dh=-234 dv=0 dx=0 dy=0 dh=0 dv=0
PairPos2: "'kern' Horizontal Kerning in Arabic lookup 2 per glyph data 2" uni0644 dx=-100 dy=0 dh=-100 dv=0 dx=0 dy=0 dh=0 dv=0
PairPos2: "'kern' Horizontal Kerning in Arabic lookup 2 per glyph data 2" uni0645 dx=-234 dy=0 dh=-234 dv=0 dx=0 dy=0 dh=0 dv=0
PairPos2: "'kern' Horizontal Kerning in Arabic lookup 2 per glyph data 2" uni0646 dx=-40 dy=0 dh=-40 dv=0 dx=0 dy=0 dh=0 dv=0
PairPos2: "'kern' Horizontal Kerning in Arabic lookup 2 per glyph data 2" uni0647 dx=-234 dy=0 dh=-234 dv=0 dx=0 dy=0 dh=0 dv=0
PairPos2: "'kern' Horizontal Kerning in Arabic lookup 2 per glyph data 2" uni0648 dx=-133 dy=0 dh=-133 dv=0 dx=0 dy=0 dh=0 dv=0
PairPos2: "'kern' Horizontal Kerning in Arabic lookup 2 per glyph data 2" uni067E dx=-234 dy=0 dh=-234 dv=0 dx=0 dy=0 dh=0 dv=0
PairPos2: "'kern' Horizontal Kerning in Arabic lookup 2 per glyph data 2" uni0698 dx=-150 dy=0 dh=-150 dv=0 dx=0 dy=0 dh=0 dv=0
PairPos2: "'kern' Horizontal Kerning in Arabic lookup 2 per glyph data 2" uni06A9 dx=-400 dy=0 dh=-400 dv=0 dx=0 dy=0 dh=0 dv=0
PairPos2: "'kern' Horizontal Kerning in Arabic lookup 2 per glyph data 2" uni06AF dx=-400 dy=0 dh=-400 dv=0 dx=0 dy=0 dh=0 dv=0
PairPos2: "'kern' Horizontal Kerning in Arabic lookup 2 per glyph data 2" uni06C0 dx=-234 dy=0 dh=-234 dv=0 dx=0 dy=0 dh=0 dv=0
PairPos2: "'kern' Horizontal Kerning in Arabic lookup 2 per glyph data 2" uni06CA dx=-133 dy=0 dh=-133 dv=0 dx=0 dy=0 dh=0 dv=0
PairPos2: "'kern' Horizontal Kerning in Arabic lookup 2 per glyph data 2" uniFB7C dx=-234 dy=0 dh=-234 dv=0 dx=0 dy=0 dh=0 dv=0
PairPos2: "'kern' Horizontal Kerning in Arabic lookup 2 per glyph data 2" uniFB90 dx=-400 dy=0 dh=-400 dv=0 dx=0 dy=0 dh=0 dv=0
PairPos2: "'kern' Horizontal Kerning in Arabic lookup 2 per glyph data 2" uniFB94 dx=-400 dy=0 dh=-400 dv=0 dx=0 dy=0 dh=0 dv=0
PairPos2: "'kern' Horizontal Kerning in Arabic lookup 2 per glyph data 2" uniFE8B dx=-200 dy=0 dh=-200 dv=0 dx=0 dy=0 dh=0 dv=0
PairPos2: "'kern' Horizontal Kerning in Arabic lookup 2 per glyph data 2" uniFE91 dx=-200 dy=0 dh=-200 dv=0 dx=0 dy=0 dh=0 dv=0
PairPos2: "'kern' Horizontal Kerning in Arabic lookup 2 per glyph data 2" uniFE97 dx=-200 dy=0 dh=-200 dv=0 dx=0 dy=0 dh=0 dv=0
PairPos2: "'kern' Horizontal Kerning in Arabic lookup 2 per glyph data 2" uniFE9B dx=-200 dy=0 dh=-200 dv=0 dx=0 dy=0 dh=0 dv=0
PairPos2: "'kern' Horizontal Kerning in Arabic lookup 2 per glyph data 2" uniFE9F dx=-134 dy=0 dh=-134 dv=0 dx=0 dy=0 dh=0 dv=0
PairPos2: "'kern' Horizontal Kerning in Arabic lookup 2 per glyph data 2" uniFEA3 dx=-134 dy=0 dh=-134 dv=0 dx=0 dy=0 dh=0 dv=0
PairPos2: "'kern' Horizontal Kerning in Arabic lookup 2 per glyph data 2" uniFEA7 dx=-134 dy=0 dh=-134 dv=0 dx=0 dy=0 dh=0 dv=0
PairPos2: "'kern' Horizontal Kerning in Arabic lookup 2 per glyph data 2" uniFEB3 dx=-234 dy=0 dh=-234 dv=0 dx=0 dy=0 dh=0 dv=0
PairPos2: "'kern' Horizontal Kerning in Arabic lookup 2 per glyph data 2" uniFEB7 dx=-234 dy=0 dh=-234 dv=0 dx=0 dy=0 dh=0 dv=0
PairPos2: "'kern' Horizontal Kerning in Arabic lookup 2 per glyph data 2" uniFEBB dx=-234 dy=0 dh=-234 dv=0 dx=0 dy=0 dh=0 dv=0
PairPos2: "'kern' Horizontal Kerning in Arabic lookup 2 per glyph data 2" uniFEBF dx=-234 dy=0 dh=-234 dv=0 dx=0 dy=0 dh=0 dv=0
PairPos2: "'kern' Horizontal Kerning in Arabic lookup 2 per glyph data 2" uniFEC3 dx=-234 dy=0 dh=-234 dv=0 dx=0 dy=0 dh=0 dv=0
PairPos2: "'kern' Horizontal Kerning in Arabic lookup 2 per glyph data 2" uniFEC7 dx=-234 dy=0 dh=-234 dv=0 dx=0 dy=0 dh=0 dv=0
PairPos2: "'kern' Horizontal Kerning in Arabic lookup 2 per glyph data 2" uniFECB dx=-234 dy=0 dh=-234 dv=0 dx=0 dy=0 dh=0 dv=0
PairPos2: "'kern' Horizontal Kerning in Arabic lookup 2 per glyph data 2" uniFECF dx=-234 dy=0 dh=-234 dv=0 dx=0 dy=0 dh=0 dv=0
PairPos2: "'kern' Horizontal Kerning in Arabic lookup 2 per glyph data 2" uniFED3 dx=-234 dy=0 dh=-234 dv=0 dx=0 dy=0 dh=0 dv=0
PairPos2: "'kern' Horizontal Kerning in Arabic lookup 2 per glyph data 2" uniFED7 dx=-234 dy=0 dh=-234 dv=0 dx=0 dy=0 dh=0 dv=0
PairPos2: "'kern' Horizontal Kerning in Arabic lookup 2 per glyph data 2" uniFEDB dx=-400 dy=0 dh=-400 dv=0 dx=0 dy=0 dh=0 dv=0
PairPos2: "'kern' Horizontal Kerning in Arabic lookup 2 per glyph data 2" uniFEDF dx=-234 dy=0 dh=-234 dv=0 dx=0 dy=0 dh=0 dv=0
PairPos2: "'kern' Horizontal Kerning in Arabic lookup 2 per glyph data 2" uniFEE3 dx=-234 dy=0 dh=-234 dv=0 dx=0 dy=0 dh=0 dv=0
PairPos2: "'kern' Horizontal Kerning in Arabic lookup 2 per glyph data 2" uniFEE7 dx=-234 dy=0 dh=-234 dv=0 dx=0 dy=0 dh=0 dv=0
PairPos2: "'kern' Horizontal Kerning in Arabic lookup 2 per glyph data 2" uniFEEB dx=-234 dy=0 dh=-234 dv=0 dx=0 dy=0 dh=0 dv=0
PairPos2: "'kern' Horizontal Kerning in Arabic lookup 2 per glyph data 2" uniFEF5 dx=-234 dy=0 dh=-234 dv=0 dx=0 dy=0 dh=0 dv=0
PairPos2: "'kern' Horizontal Kerning in Arabic lookup 2 per glyph data 2" uniFEF7 dx=-234 dy=0 dh=-234 dv=0 dx=0 dy=0 dh=0 dv=0
PairPos2: "'kern' Horizontal Kerning in Arabic lookup 2 per glyph data 2" uniFEF9 dx=-234 dy=0 dh=-234 dv=0 dx=0 dy=0 dh=0 dv=0
PairPos2: "'kern' Horizontal Kerning in Arabic lookup 2 per glyph data 2" uniFEFB dx=-234 dy=0 dh=-234 dv=0 dx=0 dy=0 dh=0 dv=0
PairPos2: "'kern' Horizontal Kerning in Arabic lookup 2 per glyph data 1" uni0639 dx=-90 dy=0 dh=-90 dv=0 dx=0 dy=0 dh=0 dv=0
PairPos2: "'kern' Horizontal Kerning in Arabic lookup 2 per glyph data 1" uni063A dx=-90 dy=0 dh=-90 dv=0 dx=0 dy=0 dh=0 dv=0
Colour: ffff
EndChar

StartChar: uni0633
Encoding: 1587 1587 83
Width: 2260
VWidth: 2279
Flags: HMW
AnchorPoint: "Anchor-1" 644 -563 basechar 0
AnchorPoint: "Anchor-3" 1542 533 basechar 0
LayerCount: 2
Fore
SplineSet
1643 482 m 0
 1678 482 1705 453 1705 420 c 0
 1705 399 1701 377 1698 358 c 0
 1695 330 1694 308 1694 275 c 0
 1694 150 1745 78 1867 78 c 0
 1922 78 1959 96 1987 128 c 0
 2017 162 2038 218 2038 298 c 0
 2038 392 2020 475 2000 551 c 0
 1999 556 1998 562 1998 567 c 0
 1998 598 2022 629 2060 629 c 0
 2088 629 2113 611 2120 583 c 0
 2142 503 2162 408 2162 298 c 0
 2162 106 2056 -46 1867 -46 c 0
 1755 -46 1662 4 1614 87 c 1
 1555 -6 1464 -42 1364 -42 c 0
 1293 -42 1232 -22 1182 15 c 1
 1183 2 1182 -10 1182 -23 c 0
 1182 -308 999 -536 644 -536 c 0
 281 -536 98 -324 98 -58 c 0
 98 86 139 240 198 383 c 0
 208 407 232 421 257 421 c 0
 295 421 318 389 318 358 c 0
 318 350 317 343 314 335 c 0
 259 202 222 62 222 -58 c 0
 222 -256 337 -410 644 -410 c 0
 935 -410 1058 -248 1058 -23 c 0
 1058 93 1029 226 979 360 c 0
 976 367 976 374 976 381 c 0
 976 412 1000 444 1038 444 c 0
 1063 444 1088 429 1097 404 c 0
 1174 198 1227 82 1364 82 c 0
 1456 82 1504 108 1545 240 c 0
 1560 288 1572 362 1581 429 c 0
 1585 458 1611 482 1643 482 c 0
EndSplineSet
Substitution2: "'init' Initial Forms in Arabic lookup 6 subtable" uniFEB3
Substitution2: "'medi' Medial Forms in Arabic lookup 5 subtable" uniFEB4
Substitution2: "'fina' Terminal Forms in Arabic lookup 4 subtable" uniFEB2
Colour: ffff
EndChar

StartChar: uni066F
Encoding: 1647 1647 84
Width: 1439
VWidth: 2370
Flags: HMW
AnchorPoint: "Anchor-1" 710 -526 basechar 0
AnchorPoint: "Anchor-3" 987 823 basechar 0
LayerCount: 2
Fore
SplineSet
996 76 m 0
 1091 76 1155 95 1216 126 c 1
 1210 359 1146 580 998 580 c 0
 888 580 786 442 786 260 c 0
 786 122 843 76 996 76 c 0
305 517 m 0
 342 517 366 486 366 455 c 0
 366 445 365 435 360 426 c 0
 270 251 222 89 222 -40 c 0
 222 -255 353 -404 717 -404 c 0
 1034 -404 1178 -262 1210 -14 c 1
 1147 -37 1076 -48 996 -48 c 0
 799 -48 660 50 660 260 c 0
 660 470 780 706 998 706 c 0
 1303 706 1342 299 1342 91 c 0
 1342 -289 1132 -528 717 -528 c 0
 313 -528 98 -335 98 -40 c 0
 98 119 153 297 249 484 c 0
 260 505 282 517 305 517 c 0
EndSplineSet
Substitution2: "'fina' Terminal Forms in Arabic lookup 4 subtable" uniE005
Colour: ffff
EndChar

StartChar: uni06BA
Encoding: 1722 1722 85
Width: 1384
VWidth: 2370
Flags: HMW
AnchorPoint: "Anchor-3" 692 493 basechar 0
AnchorPoint: "Anchor-1" 709 -476 basechar 0
LayerCount: 2
Back
SplineSet
251 404 m 17
 203 285 160 148 160 -2 c 0
 160 -298 390 -425 702 -425 c 0
 1019 -425 1224 -277 1224 27 c 0
 1224 188 1179 332 1127 459 c 1033
EndSplineSet
Fore
SplineSet
235 466 m 0
 273 466 296 434 296 403 c 0
 296 396 295 389 292 382 c 0
 247 265 222 120 222 16 c 0
 222 -221 352 -362 697 -362 c 0
 1046 -362 1162 -207 1162 23 c 0
 1162 147 1128 301 1071 434 c 0
 1068 442 1066 450 1066 458 c 0
 1066 489 1090 521 1128 521 c 0
 1152 521 1176 507 1186 484 c 0
 1249 337 1286 169 1286 23 c 0
 1286 -273 1100 -488 697 -488 c 0
 306 -488 98 -295 98 16 c 0
 98 138 125 293 176 426 c 0
 185 451 210 466 235 466 c 0
EndSplineSet
Colour: ffff
EndChar

StartChar: uni06A1
Encoding: 1697 1697 86
Width: 1719
VWidth: 2370
Flags: HMW
AnchorPoint: "Anchor-1" 811 -30 basechar 0
AnchorPoint: "Anchor-3" 1302 1200 basechar 0
LayerCount: 2
Fore
SplineSet
194 632 m 0
 232 632 256 601 256 570 c 0
 256 564 255 559 253 553 c 0
 236 493 222 430 222 367 c 0
 222 137 494 74 829 74 c 0
 1180 74 1468 139 1494 367 c 1
 1422 345 1340 330 1259 330 c 0
 1024 330 932 475 932 658 c 0
 932 854 1043 1094 1280 1094 c 0
 1555 1094 1622 741 1622 406 c 0
 1622 6 1177 -52 829 -52 c 0
 518 -52 98 -1 98 367 c 0
 98 448 114 521 133 587 c 0
 141 614 167 632 194 632 c 0
1495 499 m 1
 1481 810 1396 970 1280 970 c 0
 1149 970 1056 826 1056 658 c 0
 1056 521 1092 456 1259 456 c 0
 1339 456 1428 474 1495 499 c 1
EndSplineSet
Substitution2: "'medi' Medial Forms in Arabic lookup 5 subtable" uniE006
Substitution2: "'fina' Terminal Forms in Arabic lookup 4 subtable" uniE005
Colour: ffff
EndChar

StartChar: uni0644
Encoding: 1604 1604 87
Width: 1296
VWidth: 2370
Flags: HMW
AnchorPoint: "Anchor-3" 510 596 basechar 0
AnchorPoint: "Anchor-1" 623 -526 basechar 0
LayerCount: 2
Fore
SplineSet
1005 1211 m 0
 1005 1244 1032 1273 1067 1273 c 0
 1099 1273 1127 1247 1129 1215 c 0
 1157 825 1178 497 1178 148 c 0
 1178 -208 1011 -486 622 -486 c 0
 249 -486 98 -286 98 -15 c 0
 98 127 145 278 199 386 c 0
 210 408 233 420 256 420 c 0
 293 420 317 388 317 357 c 0
 317 348 315 339 311 330 c 0
 265 238 222 99 222 -15 c 0
 222 -228 307 -362 622 -362 c 0
 929 -362 1054 -170 1054 148 c 0
 1054 493 1005 820 1005 1211 c 0
EndSplineSet
Substitution2: "'init' Initial Forms in Arabic lookup 6 subtable" uniFEDF
Substitution2: "'medi' Medial Forms in Arabic lookup 5 subtable" uniFEE0
Substitution2: "'fina' Terminal Forms in Arabic lookup 4 subtable" uniFEDE
Colour: ffff
EndChar

StartChar: uni0645
Encoding: 1605 1605 88
Width: 1171
VWidth: 2370
Flags: HMW
AnchorPoint: "Anchor-3" 738 649 basechar 0
AnchorPoint: "Anchor-1" 614 -170 basechar 0
LayerCount: 2
Fore
SplineSet
430 143 m 1
 533 126 649 78 755 78 c 0
 878 78 948 130 948 278 c 0
 948 414 881 510 738 510 c 0
 585 510 499 308 476 192 c 0
 471 169 453 149 430 143 c 1
386 149 m 1
 366 160 353 181 353 204 c 0
 353 208 353 212 354 216 c 0
 377 328 469 636 738 636 c 0
 961 636 1074 462 1074 278 c 0
 1074 66 936 -48 755 -48 c 0
 620 -48 508 8 392 23 c 0
 377 25 363 26 349 26 c 0
 277 26 222 0 222 -184 c 2
 222 -207 l 1
 252 -751 l 2
 254 -786 226 -816 190 -816 c 0
 157 -816 130 -790 128 -757 c 2
 98 -212 l 1
 98 -184 l 2
 98 32 193 150 349 150 c 0
 361 150 374 150 386 149 c 1
EndSplineSet
Substitution2: "'init' Initial Forms in Arabic lookup 6 subtable" uniFEE3
Substitution2: "'medi' Medial Forms in Arabic lookup 5 subtable" uniFEE4
Substitution2: "'fina' Terminal Forms in Arabic lookup 4 subtable" uniFEE2
Colour: ffff
EndChar

StartChar: uni0635
Encoding: 1589 1589 89
Width: 2305
VWidth: 2279
Flags: HMW
AnchorPoint: "Anchor-1" 589 -563 basechar 0
AnchorPoint: "Anchor-3" 1879 791 basechar 0
LayerCount: 2
Fore
SplineSet
1380 116 m 1
 1449 92 1537 78 1650 78 c 0
 1866 78 2082 192 2082 378 c 0
 2082 478 1999 548 1873 548 c 0
 1665 548 1510 389 1385 124 c 0
 1384 121 1382 119 1380 116 c 1
989 366 m 0
 989 397 1013 428 1050 428 c 0
 1084 428 1102 404 1115 375 c 0
 1153 289 1199 222 1269 172 c 1
 1270 174 1270 177 1271 178 c 0
 1402 455 1589 672 1873 672 c 0
 2043 672 2208 566 2208 378 c 0
 2208 80 1888 -48 1650 -48 c 0
 1439 -48 1290 -4 1177 85 c 1
 1180 52 1182 23 1182 -7 c 0
 1182 -332 979 -536 589 -536 c 0
 352 -536 98 -411 98 -117 c 0
 98 62 180 257 281 415 c 0
 293 433 314 443 335 443 c 0
 371 443 396 413 396 381 c 0
 396 370 394 357 387 347 c 0
 294 201 222 24 222 -117 c 0
 222 -317 384 -410 589 -410 c 0
 927 -410 1056 -264 1056 -7 c 0
 1056 93 1035 214 992 347 c 0
 990 353 989 360 989 366 c 0
EndSplineSet
Substitution2: "'init' Initial Forms in Arabic lookup 6 subtable" uniFEBB
Substitution2: "'medi' Medial Forms in Arabic lookup 5 subtable" uniFEBC
Substitution2: "'fina' Terminal Forms in Arabic lookup 4 subtable" uniFEBA
Colour: ffff
EndChar

StartChar: uni0648
Encoding: 1608 1608 90
Width: 898
VWidth: 2370
Flags: HMW
AnchorPoint: "Anchor-1" 504 -437 basechar 0
AnchorPoint: "Anchor-3" 464 721 basechar 0
LayerCount: 2
Fore
SplineSet
675 74 m 1
 675 85 676 96 676 108 c 0
 676 337 605 584 464 584 c 0
 382 584 286 465 286 260 c 0
 286 132 339 78 472 78 c 0
 511 78 557 84 610 97 c 0
 615 98 619 98 624 98 c 0
 643 98 663 90 675 74 c 1
200 -523 m 0
 168 -523 138 -498 138 -461 c 0
 138 -432 159 -406 189 -400 c 0
 469 -347 626 -239 666 -11 c 1
 658 -17 649 -23 640 -25 c 0
 579 -40 523 -48 472 -48 c 0
 279 -48 162 72 162 260 c 0
 162 481 264 708 464 708 c 0
 753 708 800 311 800 108 c 0
 800 -288 558 -457 212 -522 c 0
 208 -523 204 -523 200 -523 c 0
EndSplineSet
PairPos2: "'kern' Horizontal Kerning in Arabic lookup 2 per glyph data 4" uni0625 dx=223 dy=0 dh=223 dv=0 dx=0 dy=0 dh=0 dv=0
Substitution2: "'fina' Terminal Forms in Arabic lookup 4 subtable" uniFEEE
PairPos2: "'kern' Horizontal Kerning in Arabic lookup 2 per glyph data 3" uni06A9 dx=-233 dy=0 dh=-233 dv=0 dx=0 dy=0 dh=0 dv=0
PairPos2: "'kern' Horizontal Kerning in Arabic lookup 2 per glyph data 3" uni06AF dx=-233 dy=0 dh=-233 dv=0 dx=0 dy=0 dh=0 dv=0
PairPos2: "'kern' Horizontal Kerning in Arabic lookup 2 per glyph data 3" uniFB90 dx=-233 dy=0 dh=-233 dv=0 dx=0 dy=0 dh=0 dv=0
PairPos2: "'kern' Horizontal Kerning in Arabic lookup 2 per glyph data 3" uniFB94 dx=-233 dy=0 dh=-233 dv=0 dx=0 dy=0 dh=0 dv=0
PairPos2: "'kern' Horizontal Kerning in Arabic lookup 2 per glyph data 3" uniFEDB dx=-233 dy=0 dh=-233 dv=0 dx=0 dy=0 dh=0 dv=0
Colour: ffff
EndChar

StartChar: uni0637
Encoding: 1591 1591 91
Width: 1511
VWidth: 2370
Flags: HMW
AnchorPoint: "Anchor-3" 1135 781 basechar 0
AnchorPoint: "Anchor-1" 397 -30 basechar 0
LayerCount: 2
Fore
SplineSet
504 92 m 1
 576 84 648 80 723 80 c 0
 974 80 1288 239 1288 439 c 0
 1288 549 1199 630 1077 630 c 0
 842 630 613 358 504 92 c 1
463 -29 m 1
 451 -78 445 -137 388 -137 c 0
 350 -137 326 -105 326 -74 c 0
 326 -52 333 -30 337 -9 c 1
 272 3 208 18 144 35 c 0
 116 42 98 68 98 95 c 0
 98 133 130 157 161 157 c 0
 166 157 171 156 176 155 c 0
 236 139 295 125 355 114 c 1
 376 279 384 461 384 628 c 0
 384 873 374 1048 357 1204 c 1
 357 1211 l 2
 357 1244 383 1273 419 1273 c 0
 450 1273 478 1250 481 1218 c 0
 498 1058 510 877 510 628 c 0
 510 541 507 450 502 359 c 1
 634 564 834 756 1077 756 c 0
 1257 756 1414 627 1414 439 c 0
 1414 113 988 -44 723 -44 c 0
 634 -44 548 -39 463 -29 c 1
EndSplineSet
Substitution2: "'init' Initial Forms in Arabic lookup 6 subtable" uniFEC3
Substitution2: "'medi' Medial Forms in Arabic lookup 5 subtable" uniFEC4
Substitution2: "'fina' Terminal Forms in Arabic lookup 4 subtable" uniFEC2
Colour: ffff
EndChar

StartChar: uni06A9
Encoding: 1705 1705 92
Width: 1870
VWidth: 2370
Flags: HMW
AnchorPoint: "Anchor-3" 1305 1197 basechar 0
AnchorPoint: "Anchor-1" 768 -65 basechar 0
LayerCount: 2
Fore
SplineSet
1709 1373 m 0
 1740 1373 1772 1349 1772 1312 c 0
 1772 1289 1760 1266 1738 1255 c 2
 1081 933 l 1
 1252 755 1450 534 1450 303 c 0
 1450 33 1182 -48 768 -48 c 0
 408 -48 98 14 98 340 c 0
 98 400 107 468 130 544 c 0
 138 571 164 588 191 588 c 0
 229 588 253 557 253 526 c 0
 253 520 252 514 250 508 c 0
 230 442 222 386 222 340 c 0
 222 138 392 78 768 78 c 0
 1198 78 1326 161 1326 303 c 0
 1326 484 1121 713 931 907 c 0
 922 916 914 934 914 950 c 0
 914 973 926 996 948 1007 c 2
 1682 1367 l 2
 1691 1371 1700 1373 1709 1373 c 0
EndSplineSet
Substitution2: "'init' Initial Forms in Arabic lookup 6 subtable" uniFB90
Substitution2: "'medi' Medial Forms in Arabic lookup 5 subtable" uniFB91
Substitution2: "'fina' Terminal Forms in Arabic lookup 4 subtable" uniFB8F
Colour: ffff
EndChar

StartChar: uni062F
Encoding: 1583 1583 93
Width: 900
VWidth: 2370
Flags: HMW
AnchorPoint: "Anchor-3" 493 976 basechar 0
AnchorPoint: "Anchor-1" 377 -30 basechar 0
LayerCount: 2
Fore
SplineSet
354 771 m 0
 354 806 383 833 416 833 c 0
 431 833 446 828 458 818 c 0
 594 697 802 493 802 245 c 0
 802 53 605 -48 397 -48 c 0
 317 -48 229 -34 140 -4 c 0
 114 5 98 29 98 55 c 0
 98 93 130 117 161 117 c 0
 168 117 174 116 180 114 c 0
 256 88 331 78 397 78 c 0
 583 78 678 161 678 245 c 0
 678 421 510 603 374 724 c 0
 360 736 354 754 354 771 c 0
EndSplineSet
Substitution2: "'fina' Terminal Forms in Arabic lookup 4 subtable" uniFEAA
PairPos2: "'kern' Horizontal Kerning in Arabic lookup 2 per glyph data 3" uni06A9 dx=-267 dy=0 dh=-267 dv=0 dx=0 dy=0 dh=0 dv=0
PairPos2: "'kern' Horizontal Kerning in Arabic lookup 2 per glyph data 3" uni06AF dx=-267 dy=0 dh=-267 dv=0 dx=0 dy=0 dh=0 dv=0
PairPos2: "'kern' Horizontal Kerning in Arabic lookup 2 per glyph data 3" uniFB90 dx=-267 dy=0 dh=-267 dv=0 dx=0 dy=0 dh=0 dv=0
PairPos2: "'kern' Horizontal Kerning in Arabic lookup 2 per glyph data 3" uniFB94 dx=-267 dy=0 dh=-267 dv=0 dx=0 dy=0 dh=0 dv=0
PairPos2: "'kern' Horizontal Kerning in Arabic lookup 2 per glyph data 3" uniFEDB dx=-267 dy=0 dh=-267 dv=0 dx=0 dy=0 dh=0 dv=0
PairPos2: "'kern' Horizontal Kerning in Arabic lookup 2 per glyph data 1" uni0639 dx=-334 dy=0 dh=-334 dv=0 dx=0 dy=0 dh=0 dv=0
PairPos2: "'kern' Horizontal Kerning in Arabic lookup 2 per glyph data 1" uni063A dx=-334 dy=0 dh=-334 dv=0 dx=0 dy=0 dh=0 dv=0
Colour: ffff
EndChar

StartChar: uni062D
Encoding: 1581 1581 94
Width: 1252
VWidth: 2370
Flags: HMW
AnchorPoint: "Anchor-3" 444 811 basechar 0
AnchorPoint: "Anchor-1" 709 -714 basechar 0
LayerCount: 2
Fore
SplineSet
1088 -434 m 0
 1119 -434 1150 -459 1150 -496 c 0
 1150 -519 1138 -540 1117 -551 c 0
 987 -620 840 -656 693 -656 c 0
 418 -656 98 -524 98 -201 c 0
 98 231 605 439 880 521 c 1
 747 588 551 702 433 702 c 0
 358 702 292 671 240 522 c 0
 231 497 207 481 181 481 c 0
 143 481 119 512 119 543 c 0
 119 550 120 557 122 564 c 0
 185 745 298 828 433 828 c 0
 576 828 719 748 849 678 c 0
 946 626 1038 580 1104 567 c 0
 1131 562 1154 538 1154 506 c 0
 1154 475 1131 448 1099 444 c 0
 969 429 222 230 222 -201 c 0
 222 -416 438 -530 693 -530 c 0
 820 -530 947 -500 1059 -441 c 0
 1068 -436 1078 -434 1088 -434 c 0
EndSplineSet
Substitution2: "'init' Initial Forms in Arabic lookup 6 subtable" uniFEA3
Substitution2: "'medi' Medial Forms in Arabic lookup 5 subtable" uniFEA4
Substitution2: "'fina' Terminal Forms in Arabic lookup 4 subtable" uniFEA2
Colour: ffff
EndChar

StartChar: uni0639
Encoding: 1593 1593 95
Width: 1275
VWidth: 2370
Flags: HMW
AnchorPoint: "Anchor-3" 640 1199 basechar 0
AnchorPoint: "Anchor-1" 717 -699 basechar 0
LayerCount: 2
Fore
SplineSet
886 530 m 0
 915 530 948 505 948 467 c 0
 948 434 922 407 889 405 c 0
 811 401 752 392 685 370 c 0
 441 290 222 81 222 -172 c 0
 222 -418 436 -536 717 -536 c 0
 851 -536 986 -505 1087 -453 c 0
 1096 -448 1105 -447 1115 -447 c 0
 1146 -447 1177 -472 1177 -509 c 0
 1177 -532 1165 -554 1144 -565 c 0
 1022 -627 869 -662 717 -662 c 0
 412 -662 98 -520 98 -172 c 0
 98 93 276 302 487 419 c 1
 338 460 220 567 220 745 c 0
 220 982 425 1156 632 1156 c 0
 737 1156 832 1116 899 1044 c 0
 910 1032 915 1016 915 1001 c 0
 915 968 887 939 853 939 c 0
 836 939 819 945 807 958 c 0
 764 1004 705 1032 632 1032 c 0
 491 1032 346 906 346 745 c 0
 346 590 475 520 687 520 c 0
 752 520 822 530 886 530 c 0
EndSplineSet
PairPos2: "'kern' Horizontal Kerning in Arabic lookup 2 per glyph data 2" uniFEEE dx=-100 dy=0 dh=-100 dv=0 dx=0 dy=0 dh=0 dv=0
PairPos2: "'kern' Horizontal Kerning in Arabic lookup 2 per glyph data 2" uniFE86 dx=-100 dy=0 dh=-100 dv=0 dx=0 dy=0 dh=0 dv=0
PairPos2: "'kern' Horizontal Kerning in Arabic lookup 2 per glyph data 2" uni06CA dx=-100 dy=0 dh=-100 dv=0 dx=0 dy=0 dh=0 dv=0
PairPos2: "'kern' Horizontal Kerning in Arabic lookup 2 per glyph data 2" uni0648 dx=-100 dy=0 dh=-100 dv=0 dx=0 dy=0 dh=0 dv=0
PairPos2: "'kern' Horizontal Kerning in Arabic lookup 2 per glyph data 2" uni0624 dx=-100 dy=0 dh=-100 dv=0 dx=0 dy=0 dh=0 dv=0
Substitution2: "'init' Initial Forms in Arabic lookup 6 subtable" uniFECB
Substitution2: "'medi' Medial Forms in Arabic lookup 5 subtable" uniFECC
Substitution2: "'fina' Terminal Forms in Arabic lookup 4 subtable" uniFECA
Colour: ffff
EndChar

StartChar: uni0622
Encoding: 1570 1570 97
Width: 522
VWidth: 1839
Flags: HMW
AnchorPoint: "Anchor-3" 342 1626 basechar 0
AnchorPoint: "Anchor-1" 220 0 basechar 0
LayerCount: 2
Fore
SplineSet
218 1146 m 2
 218 1178 244 1208 280 1208 c 0
 311 1208 338 1185 342 1154 c 0
 371 935 386 705 386 468 c 0
 386 312 379 155 366 -4 c 0
 363 -36 336 -61 304 -61 c 0
 268 -61 242 -32 242 1 c 0
 242 158 262 314 262 468 c 0
 262 699 247 925 218 1138 c 1
 218 1146 l 2
-91 1375 m 0
 -129 1375 -152 1407 -152 1438 c 0
 -152 1445 -151 1452 -148 1459 c 0
 -84 1624 22 1744 179 1744 c 0
 254 1744 332 1717 415 1665 c 0
 472 1629 529 1600 602 1600 c 0
 653 1600 703 1623 703 1736 c 0
 703 1770 731 1798 765 1798 c 0
 799 1798 828 1770 828 1736 c 0
 828 1567 721 1476 602 1476 c 0
 495 1476 412 1519 349 1559 c 0
 280 1603 224 1618 179 1618 c 0
 96 1618 24 1562 -32 1415 c 0
 -41 1390 -66 1375 -91 1375 c 0
EndSplineSet
PairPos2: "'kern' Horizontal Kerning in Arabic lookup 2 per glyph data 0" uni0622 dx=300 dy=0 dh=300 dv=0 dx=0 dy=0 dh=0 dv=0
PairPos2: "'kern' Horizontal Kerning in Arabic lookup 2 per glyph data 0" uniE00A dx=300 dy=0 dh=300 dv=0 dx=0 dy=0 dh=0 dv=0
PairPos2: "'kern' Horizontal Kerning in Arabic lookup 2 per glyph data 0" bracketleft dx=250 dy=0 dh=250 dv=0 dx=0 dy=0 dh=0 dv=0
PairPos2: "'kern' Horizontal Kerning in Arabic lookup 2 per glyph data 0" braceleft dx=250 dy=0 dh=250 dv=0 dx=0 dy=0 dh=0 dv=0
PairPos2: "'kern' Horizontal Kerning in Arabic lookup 2 per glyph data 0" parenleft dx=250 dy=0 dh=250 dv=0 dx=0 dy=0 dh=0 dv=0
Substitution2: "Single Substitution 1 subtable" uniE00A
PairPos2: "'kern' Horizontal Kerning in Arabic lookup 2 per glyph data 0" uni063A dx=-267 dy=0 dh=-267 dv=0 dx=0 dy=0 dh=0 dv=0
PairPos2: "'kern' Horizontal Kerning in Arabic lookup 2 per glyph data 0" uni0639 dx=-267 dy=0 dh=-267 dv=0 dx=0 dy=0 dh=0 dv=0
Ligature2: "'liga' Standard Ligatures in Arabic lookup 10 subtable" uni0627 uni0653
Substitution2: "'fina' Terminal Forms in Arabic lookup 4 subtable" uniFE82
PairPos2: "'kern' Horizontal Kerning in Arabic lookup 2 per glyph data 1" uni0639 dx=-200 dy=0 dh=-200 dv=0 dx=0 dy=0 dh=0 dv=0
PairPos2: "'kern' Horizontal Kerning in Arabic lookup 2 per glyph data 1" uni063A dx=-200 dy=0 dh=-200 dv=0 dx=0 dy=0 dh=0 dv=0
LCarets2: 1 0
Colour: ffff
EndChar

StartChar: uni0647
Encoding: 1607 1607 113
Width: 865
VWidth: 2370
Flags: HMW
AnchorPoint: "Anchor-1" 233 59 basechar 0
AnchorPoint: "Anchor-3" 376 976 basechar 0
LayerCount: 2
Fore
SplineSet
433 649 m 1
 301 521 222 348 222 242 c 0
 222 156 289 78 429 78 c 0
 570 78 642 154 642 257 c 0
 642 348 568 499 433 649 c 1
273 833 m 0
 273 868 302 895 335 895 c 0
 350 895 364 890 376 880 c 0
 413 848 447 815 480 782 c 0
 650 608 768 417 768 257 c 0
 768 78 624 -48 429 -48 c 0
 237 -48 98 76 98 242 c 0
 98 398 196 592 346 739 c 1
 329 755 312 771 294 786 c 0
 280 798 273 815 273 833 c 0
EndSplineSet
Substitution2: "'init' Initial Forms in Arabic lookup 6 subtable" uniFEEB
Substitution2: "'medi' Medial Forms in Arabic lookup 5 subtable" uniFEEC
Substitution2: "'fina' Terminal Forms in Arabic lookup 4 subtable" uniFEEA
Colour: ffff
EndChar

StartChar: uniFEB3
Encoding: 65203 65203 114
Width: 1545
VWidth: 2370
Flags: HMW
AnchorPoint: "Anchor-1" 844 0 basechar 0
AnchorPoint: "Anchor-3" 908 535 basechar 0
LayerCount: 2
Fore
SplineSet
1262 619 m 0
 1262 650 1286 681 1324 681 c 0
 1351 681 1376 664 1384 637 c 0
 1416 527 1448 413 1448 286 c 0
 1448 205 1433 122 1380 58 c 0
 1329 -3 1249 -36 1148 -36 c 0
 1061 -36 984 -1 931 65 c 0
 912 89 896 118 884 148 c 1
 825 46 726 -38 583 -38 c 0
 465 -38 377 35 338 130 c 1
 264 36 150 -18 0 -18 c 0
 -34 -18 -62 11 -62 45 c 0
 -62 79 -34 108 0 108 c 0
 207 108 284 224 317 399 c 0
 320 426 324 454 329 491 c 0
 334 522 361 544 391 544 c 0
 430 544 453 509 453 481 c 0
 453 447 447 413 441 381 c 0
 438 349 436 320 436 275 c 0
 436 170 484 88 583 88 c 0
 708 88 779 179 820 318 c 0
 838 379 842 428 853 498 c 0
 858 529 885 550 915 550 c 0
 954 550 977 515 977 487 c 0
 977 453 970 427 970 387 c 0
 970 285 993 189 1029 143 c 0
 1057 107 1092 90 1148 90 c 0
 1224 90 1261 110 1284 138 c 0
 1308 168 1322 218 1322 286 c 0
 1322 393 1296 493 1264 601 c 0
 1262 607 1262 613 1262 619 c 0
EndSplineSet
Colour: ffff
EndChar

StartChar: uniFEB4
Encoding: 65204 65204 115
Width: 1767
VWidth: 2370
Flags: HMW
AnchorPoint: "Anchor-3" 900 535 basechar 0
AnchorPoint: "Anchor-1" 858 0 basechar 0
LayerCount: 2
Fore
SplineSet
1189 -32 m 0
 1051 -32 960 52 917 160 c 1
 860 50 762 -36 612 -36 c 0
 527 -36 454 -7 407 54 c 0
 388 78 374 108 364 136 c 1
 287 28 165 -18 0 -18 c 0
 -34 -18 -62 11 -62 45 c 0
 -62 79 -34 108 0 108 c 0
 249 108 317 207 343 499 c 0
 346 530 372 555 405 555 c 0
 439 555 467 527 467 493 c 0
 467 454 462 382 462 344 c 0
 462 238 479 166 507 130 c 0
 526 105 554 88 612 88 c 0
 789 88 849 271 881 499 c 0
 884 523 909 552 943 552 c 0
 977 552 1005 524 1005 490 c 0
 1005 460 1002 430 1002 399 c 0
 1002 294 1024 204 1062 153 c 0
 1091 114 1127 92 1189 92 c 0
 1247 92 1284 115 1315 157 c 0
 1355 212 1378 307 1378 419 c 0
 1378 438 1378 458 1377 480 c 2
 1372 565 l 2
 1370 594 1394 631 1434 631 c 0
 1465 631 1493 608 1496 576 c 0
 1544 135 1583 108 1767 108 c 0
 1801 108 1830 79 1830 45 c 0
 1830 11 1801 -18 1767 -18 c 0
 1627 -18 1517 21 1456 154 c 1
 1411 50 1320 -32 1189 -32 c 0
EndSplineSet
Colour: ffff
EndChar

StartChar: uniFEB2
Encoding: 65202 65202 116
Width: 2402
VWidth: 2370
Flags: HMW
AnchorPoint: "Anchor-3" 1607 559 basechar 0
AnchorPoint: "Anchor-1" 644 -564 basechar 0
LayerCount: 2
Fore
SplineSet
1991 512 m 0
 1991 543 2015 575 2053 575 c 0
 2082 575 2108 555 2114 525 c 0
 2128 449 2143 363 2160 305 c 0
 2202 161 2250 108 2402 108 c 0
 2436 108 2465 79 2465 45 c 0
 2465 11 2436 -18 2402 -18 c 0
 2267 -18 2169 29 2107 120 c 1
 2070 23 1988 -46 1866 -46 c 0
 1758 -46 1671 -2 1627 80 c 1
 1566 -9 1474 -42 1371 -42 c 0
 1300 -42 1235 -20 1181 24 c 1
 1182 10 1182 -8 1182 -23 c 0
 1182 -308 999 -536 644 -536 c 0
 281 -536 98 -324 98 -58 c 0
 98 86 139 240 198 383 c 0
 208 407 232 421 257 421 c 0
 295 421 318 389 318 358 c 0
 318 350 317 343 314 335 c 0
 259 202 222 62 222 -58 c 0
 222 -256 337 -410 644 -410 c 0
 935 -410 1058 -248 1058 -23 c 0
 1058 93 1029 226 979 360 c 0
 976 367 976 374 976 381 c 0
 976 412 1000 444 1038 444 c 0
 1063 444 1088 429 1097 404 c 0
 1187 163 1261 82 1371 82 c 0
 1474 82 1523 109 1564 239 c 0
 1579 287 1591 362 1600 429 c 0
 1604 458 1630 482 1662 482 c 0
 1697 482 1724 453 1724 420 c 0
 1724 402 1720 384 1718 367 c 0
 1714 332 1712 301 1712 265 c 0
 1712 196 1729 143 1752 117 c 0
 1772 94 1804 78 1866 78 c 0
 1926 78 1954 99 1975 134 c 0
 1998 172 2012 234 2012 309 c 0
 2012 371 2001 443 1991 502 c 0
 1990 505 1991 509 1991 512 c 0
EndSplineSet
Colour: ffff
EndChar

StartChar: uniFE8E
Encoding: 65166 65166 134
Width: 551
VWidth: 2370
Flags: HMW
AnchorPoint: "Anchor-3" 213 1211 basechar 0
AnchorPoint: "Anchor-1" 337 0 basechar 0
LayerCount: 2
Fore
SplineSet
213 1273 m 0
 248 1273 275 1245 275 1211 c 0
 275 996 262 748 262 555 c 0
 262 497 262 444 263 399 c 0
 266 282 278 210 311 172 c 0
 341 137 404 108 551 108 c 0
 585 108 614 79 614 45 c 0
 614 11 585 -18 551 -18 c 0
 392 -18 283 13 217 90 c 0
 146 172 142 282 139 397 c 0
 138 444 138 497 138 555 c 0
 138 749 143 997 151 1213 c 0
 152 1246 180 1273 213 1273 c 0
EndSplineSet
PairPos2: "'kern' Horizontal Kerning in Arabic lookup 2 per glyph data 1" uni0639 dx=-200 dy=0 dh=-200 dv=0 dx=0 dy=0 dh=0 dv=0
PairPos2: "'kern' Horizontal Kerning in Arabic lookup 2 per glyph data 1" uni063A dx=-200 dy=0 dh=-200 dv=0 dx=0 dy=0 dh=0 dv=0
Colour: ffff
EndChar

StartChar: uniFEA2
Encoding: 65186 65186 142
Width: 1332
VWidth: 1255
Flags: HMW
AnchorPoint: "Anchor-3" 449 811 basechar 0
AnchorPoint: "Anchor-1" 714 -744 basechar 0
LayerCount: 2
Fore
SplineSet
1394 45 m 0
 1394 11 1366 -18 1332 -18 c 0
 1052 -18 830 149 830 458 c 0
 830 492 858 520 892 520 c 0
 926 520 955 492 955 458 c 0
 955 223 1102 108 1332 108 c 0
 1366 108 1394 79 1394 45 c 0
EndSplineSet
Refer: 94 1581 N 1 0 0 1 0 0 2
Colour: ffff
EndChar

StartChar: uniFEA3
Encoding: 65187 65187 143
Width: 1302
VWidth: 2370
Flags: HMW
AnchorPoint: "Anchor-1" 609 0 basechar 0
AnchorPoint: "Anchor-3" 424 811 basechar 0
LayerCount: 2
Fore
SplineSet
150 470 m 0
 112 470 88 500 88 532 c 0
 88 537 89 543 90 548 c 0
 137 730 276 830 415 830 c 0
 549 830 697 739 846 655 c 0
 956 592 1068 531 1162 500 c 0
 1188 491 1204 466 1204 440 c 0
 1204 406 1178 383 1153 379 c 0
 1042 359 931 299 805 227 c 0
 605 113 347 -18 0 -18 c 0
 -34 -18 -62 11 -62 45 c 0
 -62 79 -34 108 0 108 c 0
 315 108 547 223 743 335 c 0
 816 377 887 418 962 450 c 1
 819 522 531 704 415 704 c 0
 338 704 245 650 210 516 c 0
 203 488 178 470 150 470 c 0
EndSplineSet
Colour: ffff
EndChar

StartChar: uniFEA4
Encoding: 65188 65188 144
Width: 1351
VWidth: 1373
Flags: HMW
AnchorPoint: "Anchor-3" 396 811 basechar 0
AnchorPoint: "Anchor-1" 510 0 basechar 0
LayerCount: 2
Fore
SplineSet
953 440 m 0
 987 440 1016 411 1016 377 c 0
 1016 212 1141 108 1351 108 c 0
 1385 108 1414 79 1414 45 c 0
 1414 11 1385 -18 1351 -18 c 0
 1099 -18 890 126 890 377 c 0
 890 411 919 440 953 440 c 0
EndSplineSet
Refer: 143 65187 N 1 0 0 1 0 0 2
Colour: ffff
EndChar

StartChar: uniFEAA
Encoding: 65194 65194 148
Width: 1120
VWidth: 1437
Flags: HMW
AnchorPoint: "Anchor-1" 391 -106 basechar 0
AnchorPoint: "Anchor-3" 587 877 basechar 0
LayerCount: 2
Fore
SplineSet
523 780 m 0
 523 811 548 843 585 843 c 0
 608 843 630 831 641 809 c 0
 711 670 749 581 803 430 c 0
 812 415 819 397 823 377 c 0
 882 220 948 108 1120 108 c 0
 1154 108 1182 79 1182 45 c 0
 1182 11 1154 -18 1120 -18 c 0
 963 -18 865 54 798 149 c 1
 728 6 555 -48 389 -48 c 0
 305 -48 220 -34 138 -3 c 0
 113 6 98 31 98 56 c 0
 98 94 130 117 161 117 c 0
 168 117 175 116 182 113 c 0
 248 88 317 78 389 78 c 0
 584 78 706 144 706 297 c 0
 706 339 693 369 682 400 c 0
 634 542 597 617 529 753 c 0
 525 762 523 771 523 780 c 0
EndSplineSet
PairPos2: "'kern' Horizontal Kerning in Arabic lookup 2 per glyph data 3" uni06A9 dx=-267 dy=0 dh=-267 dv=0 dx=0 dy=0 dh=0 dv=0
PairPos2: "'kern' Horizontal Kerning in Arabic lookup 2 per glyph data 3" uni06AF dx=-267 dy=0 dh=-267 dv=0 dx=0 dy=0 dh=0 dv=0
PairPos2: "'kern' Horizontal Kerning in Arabic lookup 2 per glyph data 3" uniFB90 dx=-267 dy=0 dh=-267 dv=0 dx=0 dy=0 dh=0 dv=0
PairPos2: "'kern' Horizontal Kerning in Arabic lookup 2 per glyph data 3" uniFB94 dx=-267 dy=0 dh=-267 dv=0 dx=0 dy=0 dh=0 dv=0
PairPos2: "'kern' Horizontal Kerning in Arabic lookup 2 per glyph data 3" uniFEDB dx=-267 dy=0 dh=-267 dv=0 dx=0 dy=0 dh=0 dv=0
PairPos2: "'kern' Horizontal Kerning in Arabic lookup 2 per glyph data 1" uni0639 dx=-334 dy=0 dh=-334 dv=0 dx=0 dy=0 dh=0 dv=0
PairPos2: "'kern' Horizontal Kerning in Arabic lookup 2 per glyph data 1" uni063A dx=-334 dy=0 dh=-334 dv=0 dx=0 dy=0 dh=0 dv=0
Colour: ffff
EndChar

StartChar: uniFEAE
Encoding: 65198 65198 150
Width: 907
VWidth: 2234
Flags: HMW
AnchorPoint: "Anchor-1" 493 -394 basechar 0
AnchorPoint: "Anchor-3" 462 566 basechar 0
LayerCount: 2
Fore
SplineSet
440 484 m 0
 440 516 465 546 502 546 c 0
 569 546 574 458 586 404 c 0
 633 224 670 108 907 108 c 0
 941 108 970 79 970 45 c 0
 970 11 941 -18 907 -18 c 0
 789 -18 698 7 629 61 c 1
 625 -202 474 -403 183 -515 c 0
 176 -518 168 -519 161 -519 c 0
 130 -519 98 -496 98 -458 c 0
 98 -433 113 -408 138 -399 c 0
 397 -299 504 -141 504 71 c 0
 504 215 470 346 441 469 c 0
 440 474 440 479 440 484 c 0
EndSplineSet
PairPos2: "'kern' Horizontal Kerning in Arabic lookup 2 per glyph data 2" uniE01B dx=-150 dy=0 dh=-150 dv=0 dx=0 dy=0 dh=0 dv=0
PairPos2: "'kern' Horizontal Kerning in Arabic lookup 2 per glyph data 2" uniE019 dx=-150 dy=0 dh=-150 dv=0 dx=0 dy=0 dh=0 dv=0
PairPos2: "'kern' Horizontal Kerning in Arabic lookup 2 per glyph data 2" uniE017 dx=-150 dy=0 dh=-150 dv=0 dx=0 dy=0 dh=0 dv=0
Substitution2: "Single Substitution 1 subtable" uniE018
PairPos2: "'kern' Horizontal Kerning in Arabic lookup 2 per glyph data 0" period dx=-250 dy=0 dh=-250 dv=0 dx=0 dy=0 dh=0 dv=0
PairPos2: "'kern' Horizontal Kerning in Arabic lookup 2 per glyph data 0" uni060C dx=-250 dy=0 dh=-250 dv=0 dx=0 dy=0 dh=0 dv=0
PairPos2: "'kern' Horizontal Kerning in Arabic lookup 2 per glyph data 0" uni061B dx=-250 dy=0 dh=-250 dv=0 dx=0 dy=0 dh=0 dv=0
PairPos2: "'kern' Horizontal Kerning in Arabic lookup 2 per glyph data 0" parenleft dx=-250 dy=0 dh=-250 dv=0 dx=0 dy=0 dh=0 dv=0
PairPos2: "'kern' Horizontal Kerning in Arabic lookup 2 per glyph data 0" braceleft dx=-250 dy=0 dh=-250 dv=0 dx=0 dy=0 dh=0 dv=0
PairPos2: "'kern' Horizontal Kerning in Arabic lookup 2 per glyph data 0" bracketleft dx=-250 dy=0 dh=-250 dv=0 dx=0 dy=0 dh=0 dv=0
PairPos2: "'kern' Horizontal Kerning in Arabic lookup 2 per glyph data 5" space dx=-342 dy=0 dh=-342 dv=0 dx=0 dy=0 dh=0 dv=0
PairPos2: "'kern' Horizontal Kerning in Arabic lookup 2 per glyph data 2" uni0626 dx=-50 dy=0 dh=-50 dv=0 dx=0 dy=0 dh=0 dv=0
PairPos2: "'kern' Horizontal Kerning in Arabic lookup 2 per glyph data 2" uni064A dx=-50 dy=0 dh=-50 dv=0 dx=0 dy=0 dh=0 dv=0
PairPos2: "'kern' Horizontal Kerning in Arabic lookup 2 per glyph data 2" uni0649 dx=-50 dy=0 dh=-50 dv=0 dx=0 dy=0 dh=0 dv=0
PairPos2: "'kern' Horizontal Kerning in Arabic lookup 2 per glyph data 2" uni06CC dx=-50 dy=0 dh=-50 dv=0 dx=0 dy=0 dh=0 dv=0
PairPos2: "'kern' Horizontal Kerning in Arabic lookup 2 per glyph data 2" uniFBFE dx=-40 dy=0 dh=-40 dv=0 dx=0 dy=0 dh=0 dv=0
PairPos2: "'kern' Horizontal Kerning in Arabic lookup 2 per glyph data 2" uniFEF3 dx=-40 dy=0 dh=-40 dv=0 dx=0 dy=0 dh=0 dv=0
PairPos2: "'kern' Horizontal Kerning in Arabic lookup 2 per glyph data 2" uniFB58 dx=-40 dy=0 dh=-40 dv=0 dx=0 dy=0 dh=0 dv=0
PairPos2: "'kern' Horizontal Kerning in Arabic lookup 2 per glyph data 3" uni06A9 dx=-267 dy=0 dh=-267 dv=0 dx=0 dy=0 dh=0 dv=0
PairPos2: "'kern' Horizontal Kerning in Arabic lookup 2 per glyph data 3" uni06AF dx=-267 dy=0 dh=-267 dv=0 dx=0 dy=0 dh=0 dv=0
PairPos2: "'kern' Horizontal Kerning in Arabic lookup 2 per glyph data 3" uniFB90 dx=-267 dy=0 dh=-267 dv=0 dx=0 dy=0 dh=0 dv=0
PairPos2: "'kern' Horizontal Kerning in Arabic lookup 2 per glyph data 3" uniFB94 dx=-267 dy=0 dh=-267 dv=0 dx=0 dy=0 dh=0 dv=0
PairPos2: "'kern' Horizontal Kerning in Arabic lookup 2 per glyph data 3" uniFEDB dx=-267 dy=0 dh=-267 dv=0 dx=0 dy=0 dh=0 dv=0
PairPos2: "'kern' Horizontal Kerning in Arabic lookup 2 per glyph data 2" uni0622 dx=-167 dy=0 dh=-167 dv=0 dx=0 dy=0 dh=0 dv=0
PairPos2: "'kern' Horizontal Kerning in Arabic lookup 2 per glyph data 2" uni0623 dx=-167 dy=0 dh=-167 dv=0 dx=0 dy=0 dh=0 dv=0
PairPos2: "'kern' Horizontal Kerning in Arabic lookup 2 per glyph data 2" uni0624 dx=-133 dy=0 dh=-133 dv=0 dx=0 dy=0 dh=0 dv=0
PairPos2: "'kern' Horizontal Kerning in Arabic lookup 2 per glyph data 2" uni0627 dx=-167 dy=0 dh=-167 dv=0 dx=0 dy=0 dh=0 dv=0
PairPos2: "'kern' Horizontal Kerning in Arabic lookup 2 per glyph data 2" uni0628 dx=-234 dy=0 dh=-234 dv=0 dx=0 dy=0 dh=0 dv=0
PairPos2: "'kern' Horizontal Kerning in Arabic lookup 2 per glyph data 2" uni0629 dx=-234 dy=0 dh=-234 dv=0 dx=0 dy=0 dh=0 dv=0
PairPos2: "'kern' Horizontal Kerning in Arabic lookup 2 per glyph data 2" uni062A dx=-234 dy=0 dh=-234 dv=0 dx=0 dy=0 dh=0 dv=0
PairPos2: "'kern' Horizontal Kerning in Arabic lookup 2 per glyph data 2" uni062B dx=-234 dy=0 dh=-234 dv=0 dx=0 dy=0 dh=0 dv=0
PairPos2: "'kern' Horizontal Kerning in Arabic lookup 2 per glyph data 2" uni062F dx=-250 dy=0 dh=-250 dv=0 dx=0 dy=0 dh=0 dv=0
PairPos2: "'kern' Horizontal Kerning in Arabic lookup 2 per glyph data 2" uni0630 dx=-250 dy=0 dh=-250 dv=0 dx=0 dy=0 dh=0 dv=0
PairPos2: "'kern' Horizontal Kerning in Arabic lookup 2 per glyph data 2" uni0631 dx=-150 dy=0 dh=-150 dv=0 dx=0 dy=0 dh=0 dv=0
PairPos2: "'kern' Horizontal Kerning in Arabic lookup 2 per glyph data 2" uni0632 dx=-150 dy=0 dh=-150 dv=0 dx=0 dy=0 dh=0 dv=0
PairPos2: "'kern' Horizontal Kerning in Arabic lookup 2 per glyph data 2" uni0633 dx=-234 dy=0 dh=-234 dv=0 dx=0 dy=0 dh=0 dv=0
PairPos2: "'kern' Horizontal Kerning in Arabic lookup 2 per glyph data 2" uni0634 dx=-234 dy=0 dh=-234 dv=0 dx=0 dy=0 dh=0 dv=0
PairPos2: "'kern' Horizontal Kerning in Arabic lookup 2 per glyph data 2" uni0635 dx=-234 dy=0 dh=-234 dv=0 dx=0 dy=0 dh=0 dv=0
PairPos2: "'kern' Horizontal Kerning in Arabic lookup 2 per glyph data 2" uni0636 dx=-234 dy=0 dh=-234 dv=0 dx=0 dy=0 dh=0 dv=0
PairPos2: "'kern' Horizontal Kerning in Arabic lookup 2 per glyph data 2" uni0637 dx=-234 dy=0 dh=-234 dv=0 dx=0 dy=0 dh=0 dv=0
PairPos2: "'kern' Horizontal Kerning in Arabic lookup 2 per glyph data 2" uni0638 dx=-234 dy=0 dh=-234 dv=0 dx=0 dy=0 dh=0 dv=0
PairPos2: "'kern' Horizontal Kerning in Arabic lookup 2 per glyph data 2" uni0641 dx=-234 dy=0 dh=-234 dv=0 dx=0 dy=0 dh=0 dv=0
PairPos2: "'kern' Horizontal Kerning in Arabic lookup 2 per glyph data 2" uni0642 dx=-40 dy=0 dh=-40 dv=0 dx=0 dy=0 dh=0 dv=0
PairPos2: "'kern' Horizontal Kerning in Arabic lookup 2 per glyph data 2" uni0643 dx=-234 dy=0 dh=-234 dv=0 dx=0 dy=0 dh=0 dv=0
PairPos2: "'kern' Horizontal Kerning in Arabic lookup 2 per glyph data 2" uni0644 dx=-100 dy=0 dh=-100 dv=0 dx=0 dy=0 dh=0 dv=0
PairPos2: "'kern' Horizontal Kerning in Arabic lookup 2 per glyph data 2" uni0645 dx=-234 dy=0 dh=-234 dv=0 dx=0 dy=0 dh=0 dv=0
PairPos2: "'kern' Horizontal Kerning in Arabic lookup 2 per glyph data 2" uni0646 dx=-40 dy=0 dh=-40 dv=0 dx=0 dy=0 dh=0 dv=0
PairPos2: "'kern' Horizontal Kerning in Arabic lookup 2 per glyph data 2" uni0647 dx=-234 dy=0 dh=-234 dv=0 dx=0 dy=0 dh=0 dv=0
PairPos2: "'kern' Horizontal Kerning in Arabic lookup 2 per glyph data 2" uni0648 dx=-133 dy=0 dh=-133 dv=0 dx=0 dy=0 dh=0 dv=0
PairPos2: "'kern' Horizontal Kerning in Arabic lookup 2 per glyph data 2" uni067E dx=-234 dy=0 dh=-234 dv=0 dx=0 dy=0 dh=0 dv=0
PairPos2: "'kern' Horizontal Kerning in Arabic lookup 2 per glyph data 2" uni0698 dx=-150 dy=0 dh=-150 dv=0 dx=0 dy=0 dh=0 dv=0
PairPos2: "'kern' Horizontal Kerning in Arabic lookup 2 per glyph data 2" uni06A9 dx=-400 dy=0 dh=-400 dv=0 dx=0 dy=0 dh=0 dv=0
PairPos2: "'kern' Horizontal Kerning in Arabic lookup 2 per glyph data 2" uni06AF dx=-400 dy=0 dh=-400 dv=0 dx=0 dy=0 dh=0 dv=0
PairPos2: "'kern' Horizontal Kerning in Arabic lookup 2 per glyph data 2" uni06C0 dx=-234 dy=0 dh=-234 dv=0 dx=0 dy=0 dh=0 dv=0
PairPos2: "'kern' Horizontal Kerning in Arabic lookup 2 per glyph data 2" uni06CA dx=-133 dy=0 dh=-133 dv=0 dx=0 dy=0 dh=0 dv=0
PairPos2: "'kern' Horizontal Kerning in Arabic lookup 2 per glyph data 2" uniFB7C dx=-234 dy=0 dh=-234 dv=0 dx=0 dy=0 dh=0 dv=0
PairPos2: "'kern' Horizontal Kerning in Arabic lookup 2 per glyph data 2" uniFB90 dx=-400 dy=0 dh=-400 dv=0 dx=0 dy=0 dh=0 dv=0
PairPos2: "'kern' Horizontal Kerning in Arabic lookup 2 per glyph data 2" uniFB94 dx=-400 dy=0 dh=-400 dv=0 dx=0 dy=0 dh=0 dv=0
PairPos2: "'kern' Horizontal Kerning in Arabic lookup 2 per glyph data 2" uniFE8B dx=-200 dy=0 dh=-200 dv=0 dx=0 dy=0 dh=0 dv=0
PairPos2: "'kern' Horizontal Kerning in Arabic lookup 2 per glyph data 2" uniFE91 dx=-200 dy=0 dh=-200 dv=0 dx=0 dy=0 dh=0 dv=0
PairPos2: "'kern' Horizontal Kerning in Arabic lookup 2 per glyph data 2" uniFE97 dx=-200 dy=0 dh=-200 dv=0 dx=0 dy=0 dh=0 dv=0
PairPos2: "'kern' Horizontal Kerning in Arabic lookup 2 per glyph data 2" uniFE9B dx=-200 dy=0 dh=-200 dv=0 dx=0 dy=0 dh=0 dv=0
PairPos2: "'kern' Horizontal Kerning in Arabic lookup 2 per glyph data 2" uniFE9F dx=-234 dy=0 dh=-234 dv=0 dx=0 dy=0 dh=0 dv=0
PairPos2: "'kern' Horizontal Kerning in Arabic lookup 2 per glyph data 2" uniFEA3 dx=-234 dy=0 dh=-234 dv=0 dx=0 dy=0 dh=0 dv=0
PairPos2: "'kern' Horizontal Kerning in Arabic lookup 2 per glyph data 2" uniFEA7 dx=-234 dy=0 dh=-234 dv=0 dx=0 dy=0 dh=0 dv=0
PairPos2: "'kern' Horizontal Kerning in Arabic lookup 2 per glyph data 2" uniFEB3 dx=-234 dy=0 dh=-234 dv=0 dx=0 dy=0 dh=0 dv=0
PairPos2: "'kern' Horizontal Kerning in Arabic lookup 2 per glyph data 2" uniFEB7 dx=-234 dy=0 dh=-234 dv=0 dx=0 dy=0 dh=0 dv=0
PairPos2: "'kern' Horizontal Kerning in Arabic lookup 2 per glyph data 2" uniFEBB dx=-234 dy=0 dh=-234 dv=0 dx=0 dy=0 dh=0 dv=0
PairPos2: "'kern' Horizontal Kerning in Arabic lookup 2 per glyph data 2" uniFEBF dx=-234 dy=0 dh=-234 dv=0 dx=0 dy=0 dh=0 dv=0
PairPos2: "'kern' Horizontal Kerning in Arabic lookup 2 per glyph data 2" uniFEC3 dx=-234 dy=0 dh=-234 dv=0 dx=0 dy=0 dh=0 dv=0
PairPos2: "'kern' Horizontal Kerning in Arabic lookup 2 per glyph data 2" uniFEC7 dx=-234 dy=0 dh=-234 dv=0 dx=0 dy=0 dh=0 dv=0
PairPos2: "'kern' Horizontal Kerning in Arabic lookup 2 per glyph data 2" uniFECB dx=-234 dy=0 dh=-234 dv=0 dx=0 dy=0 dh=0 dv=0
PairPos2: "'kern' Horizontal Kerning in Arabic lookup 2 per glyph data 2" uniFECF dx=-234 dy=0 dh=-234 dv=0 dx=0 dy=0 dh=0 dv=0
PairPos2: "'kern' Horizontal Kerning in Arabic lookup 2 per glyph data 2" uniFED3 dx=-234 dy=0 dh=-234 dv=0 dx=0 dy=0 dh=0 dv=0
PairPos2: "'kern' Horizontal Kerning in Arabic lookup 2 per glyph data 2" uniFED7 dx=-234 dy=0 dh=-234 dv=0 dx=0 dy=0 dh=0 dv=0
PairPos2: "'kern' Horizontal Kerning in Arabic lookup 2 per glyph data 2" uniFEDB dx=-400 dy=0 dh=-400 dv=0 dx=0 dy=0 dh=0 dv=0
PairPos2: "'kern' Horizontal Kerning in Arabic lookup 2 per glyph data 2" uniFEDF dx=-234 dy=0 dh=-234 dv=0 dx=0 dy=0 dh=0 dv=0
PairPos2: "'kern' Horizontal Kerning in Arabic lookup 2 per glyph data 2" uniFEE3 dx=-234 dy=0 dh=-234 dv=0 dx=0 dy=0 dh=0 dv=0
PairPos2: "'kern' Horizontal Kerning in Arabic lookup 2 per glyph data 2" uniFEE7 dx=-234 dy=0 dh=-234 dv=0 dx=0 dy=0 dh=0 dv=0
PairPos2: "'kern' Horizontal Kerning in Arabic lookup 2 per glyph data 2" uniFEEB dx=-134 dy=0 dh=-134 dv=0 dx=0 dy=0 dh=0 dv=0
PairPos2: "'kern' Horizontal Kerning in Arabic lookup 2 per glyph data 2" uniFEF5 dx=-234 dy=0 dh=-234 dv=0 dx=0 dy=0 dh=0 dv=0
PairPos2: "'kern' Horizontal Kerning in Arabic lookup 2 per glyph data 2" uniFEF7 dx=-234 dy=0 dh=-234 dv=0 dx=0 dy=0 dh=0 dv=0
PairPos2: "'kern' Horizontal Kerning in Arabic lookup 2 per glyph data 2" uniFEF9 dx=-234 dy=0 dh=-234 dv=0 dx=0 dy=0 dh=0 dv=0
PairPos2: "'kern' Horizontal Kerning in Arabic lookup 2 per glyph data 2" uniFEFB dx=-234 dy=0 dh=-234 dv=0 dx=0 dy=0 dh=0 dv=0
PairPos2: "'kern' Horizontal Kerning in Arabic lookup 2 per glyph data 1" uni0639 dx=-90 dy=0 dh=-90 dv=0 dx=0 dy=0 dh=0 dv=0
PairPos2: "'kern' Horizontal Kerning in Arabic lookup 2 per glyph data 1" uni063A dx=-90 dy=0 dh=-90 dv=0 dx=0 dy=0 dh=0 dv=0
Colour: ffff
EndChar

StartChar: uniFEBA
Encoding: 65210 65210 155
Width: 2424
VWidth: 2279
Flags: HMW
AnchorPoint: "Anchor-3" 1879 811 basechar 0
AnchorPoint: "Anchor-1" 589 -563 basechar 0
LayerCount: 2
Fore
SplineSet
1375 140 m 1
 1445 119 1535 108 1650 108 c 0
 1866 108 2082 222 2082 408 c 0
 2082 508 1999 578 1873 578 c 0
 1665 578 1510 419 1385 154 c 0
 1383 149 1379 144 1375 140 c 1
989 366 m 0
 989 397 1013 428 1050 428 c 0
 1085 428 1102 404 1115 375 c 0
 1152 291 1198 231 1266 188 c 1
 1267 195 1268 202 1271 208 c 0
 1402 485 1589 702 1873 702 c 0
 2043 702 2208 596 2208 408 c 0
 2208 337 2189 274 2158 222 c 1
 2207 149 2278 108 2424 108 c 0
 2458 108 2487 79 2487 45 c 0
 2487 11 2458 -18 2424 -18 c 0
 2260 -18 2150 36 2076 126 c 1
 1961 27 1791 -18 1650 -18 c 0
 1439 -18 1291 15 1175 98 c 1
 1179 61 1182 27 1182 -7 c 0
 1182 -332 979 -536 589 -536 c 0
 352 -536 98 -411 98 -117 c 0
 98 62 180 257 281 415 c 0
 293 433 314 443 335 443 c 0
 371 443 396 413 396 381 c 0
 396 370 394 357 387 347 c 0
 294 201 222 24 222 -117 c 0
 222 -317 384 -410 589 -410 c 0
 927 -410 1056 -264 1056 -7 c 0
 1056 93 1035 214 992 347 c 0
 990 353 989 360 989 366 c 0
EndSplineSet
Colour: ffff
EndChar

StartChar: uniFEBB
Encoding: 65211 65211 156
Width: 1546
VWidth: 2370
Flags: HMW
AnchorPoint: "Anchor-3" 1101 811 basechar 0
AnchorPoint: "Anchor-1" 818 -2 basechar 0
LayerCount: 2
Fore
SplineSet
576 128 m 1
 632 114 709 108 809 108 c 0
 1066 108 1324 232 1324 434 c 0
 1324 562 1236 648 1106 648 c 0
 914 648 711 401 576 128 c 1
434 -105 m 0
 396 -105 372 -74 372 -43 c 0
 372 -36 372 -28 375 -21 c 0
 385 7 397 36 410 66 c 1
 385 84 364 105 347 129 c 1
 277 14 153 -18 0 -18 c 0
 -34 -18 -62 11 -62 45 c 0
 -62 79 -34 108 0 108 c 0
 179 108 239 142 271 272 c 0
 285 330 287 410 291 488 c 0
 293 521 320 547 353 547 c 0
 391 547 416 513 416 485 c 0
 416 445 412 410 412 374 c 0
 412 290 426 222 464 183 c 1
 598 456 818 772 1106 772 c 0
 1300 772 1448 630 1448 434 c 0
 1448 112 1078 -18 809 -18 c 0
 692 -18 599 -9 523 13 c 1
 504 -32 494 -105 434 -105 c 0
EndSplineSet
Colour: ffff
EndChar

StartChar: uniFEBC
Encoding: 65212 65212 157
Width: 1671
VWidth: 1839
Flags: HMW
AnchorPoint: "Anchor-1" 818 0 basechar 0
AnchorPoint: "Anchor-3" 1101 811 basechar 0
LayerCount: 2
Fore
SplineSet
572 124 m 1
 626 112 697 108 780 108 c 0
 1039 108 1316 235 1316 434 c 0
 1316 559 1213 648 1103 648 c 0
 928 648 734 441 572 124 c 1
414 484 m 0
 414 440 404 403 404 359 c 0
 404 278 424 212 459 177 c 1
 621 496 836 772 1103 772 c 0
 1277 772 1442 633 1442 434 c 0
 1442 364 1424 303 1392 250 c 1
 1435 151 1499 108 1671 108 c 0
 1705 108 1734 79 1734 45 c 0
 1734 11 1705 -18 1671 -18 c 0
 1490 -18 1374 39 1304 149 c 1
 1178 43 813 -20 779 -20 c 0
 776 -20 l 1
 776 -20 777 -19 780 -18 c 1
 574 -18 411 9 331 138 c 1
 266 29 153 -18 0 -18 c 0
 -34 -18 -62 11 -62 45 c 0
 -62 79 -34 108 0 108 c 0
 167 108 223 155 259 286 c 0
 275 343 281 421 290 493 c 0
 294 524 321 547 352 547 c 0
 391 547 414 512 414 484 c 0
EndSplineSet
Colour: ffff
EndChar

StartChar: uniFEC2
Encoding: 65218 65218 161
Width: 1656
VWidth: 2370
Flags: HMW
AnchorPoint: "Anchor-1" 450 0 basechar 0
AnchorPoint: "Anchor-3" 1128 811 basechar 0
LayerCount: 2
Fore
SplineSet
540 113 m 1
 981 132 1342 220 1342 469 c 0
 1342 579 1252 660 1130 660 c 0
 903 660 661 381 540 113 c 1
430 1211 m 0
 430 1244 457 1273 492 1273 c 0
 524 1273 552 1248 554 1215 c 0
 561 1104 566 1009 566 855 c 0
 566 704 561 541 551 389 c 1
 690 594 893 786 1130 786 c 0
 1310 786 1466 657 1466 469 c 0
 1466 371 1434 292 1380 230 c 1
 1435 147 1526 108 1656 108 c 0
 1690 108 1719 79 1719 45 c 0
 1719 11 1690 -18 1656 -18 c 0
 1503 -18 1367 33 1284 149 c 1
 1081 19 746 -6 472 -14 c 0
 363 -17 256 -18 161 -18 c 2
 160 -18 l 2
 126 -18 98 11 98 45 c 0
 98 79 126 108 160 108 c 0
 234 108 315 108 397 109 c 1
 429 323 442 604 442 855 c 0
 442 1008 430 1098 430 1211 c 0
EndSplineSet
Colour: ffff
EndChar

StartChar: uniFEC3
Encoding: 65219 65219 162
Width: 1250
VWidth: 2370
Flags: HMW
AnchorPoint: "Anchor-3" 815 811 basechar 0
AnchorPoint: "Anchor-1" 596 0 basechar 0
LayerCount: 2
Fore
SplineSet
250 113 m 1
 668 134 1028 227 1028 466 c 0
 1028 576 939 656 816 656 c 0
 624 656 444 454 310 223 c 0
 289 186 269 149 250 113 c 1
186 1211 m 0
 186 1244 212 1273 248 1273 c 0
 279 1273 306 1250 310 1218 c 0
 325 1085 334 947 334 747 c 0
 334 654 328 558 317 463 c 1
 442 630 607 782 816 782 c 0
 995 782 1152 654 1152 466 c 0
 1152 63 589 0 192 -14 c 1
 174 -53 155 -118 101 -118 c 0
 64 -118 39 -87 39 -55 c 0
 39 -40 45 -28 50 -17 c 1
 33 -17 16 -18 0 -18 c 0
 -34 -18 -62 11 -62 45 c 0
 -62 79 -34 108 0 108 c 2
 108 108 l 1
 128 149 139 200 151 246 c 0
 191 404 208 581 208 747 c 0
 208 943 201 1075 186 1204 c 0
 186 1206 186 1209 186 1211 c 0
EndSplineSet
Colour: ffff
EndChar

StartChar: uniFEC4
Encoding: 65220 65220 163
Width: 1338
VWidth: 2370
Flags: HMW
AnchorPoint: "Anchor-1" 596 0 basechar 0
AnchorPoint: "Anchor-3" 885 841 basechar 0
LayerCount: 2
Fore
SplineSet
349 114 m 1
 802 134 1094 218 1094 444 c 0
 1094 541 1035 648 872 648 c 0
 661 648 459 360 349 114 c 1
180 1211 m 0
 180 1244 206 1273 242 1273 c 0
 273 1273 301 1249 304 1217 c 0
 327 996 342 783 342 530 c 0
 342 475 341 418 340 366 c 1
 459 563 636 774 872 774 c 0
 1109 774 1220 597 1220 444 c 0
 1220 337 1182 255 1118 192 c 1
 1161 128 1221 108 1338 108 c 0
 1372 108 1401 79 1401 45 c 0
 1401 11 1372 -18 1338 -18 c 0
 1200 -18 1090 19 1018 119 c 1
 772 -17 348 -18 0 -18 c 0
 -34 -18 -62 11 -62 45 c 0
 -62 79 -34 108 0 108 c 0
 67 108 134 108 200 109 c 1
 212 237 218 381 218 530 c 0
 218 777 203 986 180 1205 c 0
 180 1207 180 1209 180 1211 c 0
EndSplineSet
Colour: ffff
EndChar

StartChar: uniFECA
Encoding: 65226 65226 167
Width: 1092
VWidth: 2370
Flags: HMW
AnchorPoint: "Anchor-3" 552 821 basechar 0
AnchorPoint: "Anchor-1" 676 -740 basechar 0
LayerCount: 2
Fore
SplineSet
545 344 m 1
 550 347 555 350 560 353 c 0
 732 449 788 505 788 586 c 0
 788 655 705 714 575 714 c 0
 472 714 349 671 275 622 c 1
 345 529 440 430 545 344 c 1
905 -561 m 0
 937 -561 968 -586 968 -623 c 0
 968 -652 946 -679 916 -684 c 0
 836 -699 754 -708 674 -708 c 0
 393 -708 98 -599 98 -285 c 0
 98 -27 266 155 434 274 c 1
 314 376 212 491 138 599 c 0
 131 610 128 621 128 633 c 0
 128 650 135 667 146 678 c 0
 234 766 411 838 575 838 c 0
 721 838 914 769 914 586 c 0
 914 436 803 349 655 263 c 1
 797 169 951 108 1092 108 c 0
 1126 108 1154 79 1154 45 c 0
 1154 11 1126 -18 1092 -18 c 0
 896 -18 704 73 537 193 c 1
 371 83 222 -74 222 -285 c 0
 222 -489 407 -582 674 -582 c 0
 746 -582 820 -575 894 -562 c 0
 898 -561 901 -561 905 -561 c 0
EndSplineSet
Colour: ffff
EndChar

StartChar: uniFECB
Encoding: 65227 65227 168
Width: 1020
VWidth: 2370
Flags: HMW
AnchorPoint: "Anchor-3" 565 973 basechar 0
AnchorPoint: "Anchor-1" 438 0 basechar 0
LayerCount: 2
Fore
SplineSet
860 246 m 0
 889 246 922 220 922 183 c 0
 922 150 896 122 862 121 c 0
 809 119 754 112 699 103 c 0
 641 90 577 69 517 52 c 0
 395 17 243 -18 0 -18 c 0
 -34 -18 -62 11 -62 45 c 0
 -62 79 -34 108 0 108 c 0
 126 108 224 117 306 131 c 1
 193 186 114 294 114 437 c 0
 114 666 307 854 525 854 c 0
 615 854 706 823 775 760 c 0
 788 748 795 731 795 714 c 0
 795 679 766 652 733 652 c 0
 718 652 703 657 691 668 c 0
 648 707 587 730 525 730 c 0
 379 730 240 596 240 437 c 0
 240 297 348 212 510 212 c 0
 635 212 733 246 860 246 c 0
EndSplineSet
Colour: ffff
EndChar

StartChar: uniFECC
Encoding: 65228 65228 169
Width: 1040
VWidth: 2370
Flags: HMW
AnchorPoint: "Anchor-3" 506 821 basechar 0
AnchorPoint: "Anchor-1" 515 0 basechar 0
LayerCount: 2
Fore
SplineSet
220 549 m 1
 299 450 420 334 565 247 c 1
 700 317 780 403 780 483 c 0
 780 579 657 660 521 660 c 0
 438 660 306 610 220 549 c 1
1040 -18 m 0
 861 -18 698 34 560 106 c 1
 382 28 162 -18 0 -18 c 0
 -34 -18 -62 11 -62 45 c 0
 -62 79 -34 108 0 108 c 0
 117 108 280 135 426 187 c 1
 274 292 157 419 83 523 c 0
 75 534 72 546 72 559 c 0
 72 576 79 592 91 604 c 0
 193 701 376 784 521 784 c 0
 683 784 904 689 904 483 c 0
 904 352 811 251 698 179 c 1
 803 135 918 108 1040 108 c 0
 1074 108 1102 79 1102 45 c 0
 1102 11 1074 -18 1040 -18 c 0
EndSplineSet
Colour: ffff
EndChar

StartChar: uniFED2
Encoding: 65234 65234 173
Width: 1829
VWidth: 2189
Flags: HMW
AnchorPoint: "Anchor-3" 1484 1323 basechar 0
AnchorPoint: "Anchor-1" 780 -30 basechar 0
LayerCount: 2
Fore
SplineSet
1408 179 m 1
 1527 241 1602 333 1602 484 c 0
 1602 639 1535 720 1399 720 c 0
 1289 720 1198 631 1198 472 c 0
 1198 327 1278 236 1408 179 c 1
212 639 m 0
 250 639 274 608 274 577 c 0
 274 570 273 562 270 555 c 0
 237 465 222 392 222 336 c 0
 222 120 452 78 840 78 c 0
 988 78 1133 90 1255 122 c 1
 1144 200 1072 318 1072 472 c 0
 1072 683 1207 844 1399 844 c 0
 1613 844 1726 685 1726 484 c 0
 1726 332 1664 214 1563 132 c 1
 1644 116 1735 108 1829 108 c 0
 1863 108 1892 79 1892 45 c 0
 1892 11 1863 -18 1829 -18 c 0
 1679 -18 1533 1 1412 43 c 1
 1251 -25 1044 -48 840 -48 c 0
 486 -48 98 -20 98 336 c 0
 98 412 115 499 152 599 c 0
 161 624 187 639 212 639 c 0
EndSplineSet
Refer: 223 57344 N 1 0 0 1 1253 1190 2
Colour: ffff
EndChar

StartChar: uniFED6
Encoding: 65238 65238 176
Width: 1461
VWidth: 2270
Flags: HMW
AnchorPoint: "Anchor-3" 979 1152 basechar 0
AnchorPoint: "Anchor-1" 712 -526 basechar 0
LayerCount: 2
Fore
SplineSet
1198 107 m 1
 1198 112 1198 116 1198 121 c 0
 1198 385 1137 608 977 608 c 0
 865 608 770 466 770 316 c 0
 770 148 832 106 1018 106 c 2
 1198 107 l 1
262 456 m 0
 300 456 323 424 323 393 c 0
 323 385 322 377 318 369 c 0
 255 228 222 94 222 -17 c 0
 222 -242 351 -400 704 -400 c 0
 972 -400 1142 -271 1187 -18 c 1
 1018 -18 l 2
 796 -18 646 74 646 316 c 0
 646 496 757 732 977 732 c 0
 1279 732 1324 361 1324 121 c 0
 1324 117 1323 112 1323 107 c 1
 1461 107 l 2
 1495 107 1523 79 1523 45 c 0
 1523 11 1495 -17 1461 -17 c 2
 1314 -18 l 1
 1265 -346 1028 -524 704 -524 c 0
 303 -524 98 -316 98 -17 c 0
 98 118 137 266 204 419 c 0
 214 442 238 456 262 456 c 0
EndSplineSet
Refer: 224 57345 N 1 0 0 1 639 1022 2
Colour: ffff
EndChar

StartChar: uniFEDA
Encoding: 65242 65242 179
Width: 1772
VWidth: 1424
Flags: HMW
AnchorPoint: "Anchor-3" 795 901 basechar 0
AnchorPoint: "Anchor-1" 716 -30 basechar 0
LayerCount: 2
Fore
SplineSet
1284 1211 m 0
 1284 1243 1310 1273 1346 1273 c 0
 1377 1273 1404 1250 1408 1219 c 0
 1437 999 1453 672 1453 431 c 0
 1453 198 1584 108 1772 108 c 0
 1806 108 1834 79 1834 45 c 0
 1834 11 1806 -18 1772 -18 c 0
 1605 -18 1458 51 1382 193 c 1
 1261 18 1006 -46 786 -46 c 0
 493 -46 98 -9 98 363 c 0
 98 442 120 525 154 600 c 0
 164 623 188 636 212 636 c 0
 250 636 273 604 273 573 c 0
 273 565 272 556 268 548 c 0
 240 485 222 418 222 363 c 0
 222 125 469 78 786 78 c 0
 1077 78 1328 191 1328 431 c 0
 1328 665 1311 993 1284 1203 c 0
 1284 1206 1284 1208 1284 1211 c 0
EndSplineSet
Refer: 240 1620 N 1 0 0 1 580 -618 2
Colour: ffff
EndChar

StartChar: uniFEDB
Encoding: 65243 65243 180
Width: 1054
VWidth: 2234
Flags: HMW
AnchorPoint: "Anchor-3" 489 1197 basechar 0
AnchorPoint: "Anchor-1" 268 0 basechar 0
LayerCount: 2
Fore
SplineSet
893 1373 m 0
 924 1373 956 1349 956 1312 c 0
 956 1289 944 1266 922 1255 c 2
 265 933 l 1
 435 756 634 536 634 312 c 0
 634 60 389 -18 0 -18 c 0
 -34 -18 -62 11 -62 45 c 0
 -62 79 -34 108 0 108 c 0
 403 108 510 186 510 312 c 0
 510 483 305 713 115 907 c 0
 103 919 98 935 98 951 c 0
 98 976 113 995 132 1007 c 2
 866 1367 l 2
 875 1371 884 1373 893 1373 c 0
EndSplineSet
Colour: ffff
EndChar

StartChar: uniFEDC
Encoding: 65244 65244 181
Width: 1133
VWidth: 2370
Flags: HMW
AnchorPoint: "Anchor-3" 489 1197 basechar 0
AnchorPoint: "Anchor-1" 268 0 basechar 0
LayerCount: 2
Fore
SplineSet
98 951 m 0
 98 985 126 1013 160 1013 c 0
 176 1013 193 1007 205 995 c 0
 375 822 539 647 613 449 c 0
 739 113 790 108 1133 108 c 0
 1167 108 1196 79 1196 45 c 0
 1196 11 1167 -18 1133 -18 c 0
 772 -18 635 33 495 405 c 0
 433 569 283 736 115 907 c 0
 103 919 98 935 98 951 c 0
EndSplineSet
Refer: 180 65243 N 1 0 0 1 0 0 2
Colour: ffff
EndChar

StartChar: uniFEDE
Encoding: 65246 65246 182
Width: 1490
VWidth: 2370
Flags: HMW
AnchorPoint: "Anchor-1" 623 -526 basechar 0
AnchorPoint: "Anchor-3" 510 596 basechar 0
LayerCount: 2
Fore
SplineSet
1005 1211 m 0
 1005 1244 1032 1273 1067 1273 c 0
 1099 1273 1127 1247 1129 1215 c 0
 1151 903 1170 630 1176 354 c 1
 1195 137 1282 108 1490 108 c 0
 1524 108 1553 79 1553 45 c 0
 1553 11 1524 -18 1490 -18 c 0
 1370 -18 1257 4 1175 67 c 1
 1151 -249 981 -486 622 -486 c 0
 249 -486 98 -286 98 -15 c 0
 98 127 145 278 199 386 c 0
 210 408 233 420 256 420 c 0
 293 420 317 388 317 357 c 0
 317 348 315 339 311 330 c 0
 265 238 222 99 222 -15 c 0
 222 -228 307 -362 622 -362 c 0
 929 -362 1054 -170 1054 148 c 0
 1054 493 1005 820 1005 1211 c 0
EndSplineSet
Colour: ffff
EndChar

StartChar: uniFEDF
Encoding: 65247 65247 183
Width: 494
VWidth: 2370
Flags: HMW
AnchorPoint: "Anchor-1" 223 0 basechar 0
AnchorPoint: "Anchor-3" 245 1212 basechar 0
LayerCount: 2
Fore
SplineSet
183 1211 m 0
 183 1243 209 1273 245 1273 c 0
 276 1273 303 1250 307 1219 c 0
 345 929 356 761 356 444 c 0
 356 316 341 208 289 123 c 0
 231 30 131 -18 0 -18 c 0
 -34 -18 -62 11 -62 45 c 0
 -62 79 -34 108 0 108 c 0
 102 108 150 137 183 189 c 0
 215 240 232 325 232 444 c 0
 232 759 221 915 183 1203 c 0
 183 1206 183 1208 183 1211 c 0
EndSplineSet
Colour: ffff
EndChar

StartChar: uniFEE0
Encoding: 65248 65248 184
Width: 674
VWidth: 2370
Flags: HMW
AnchorPoint: "Anchor-3" 293 1211 basechar 0
AnchorPoint: "Anchor-1" 247 0 basechar 0
LayerCount: 2
Fore
SplineSet
231 1211 m 0
 231 1244 257 1273 293 1273 c 0
 325 1273 352 1249 355 1217 c 0
 382 928 400 681 400 369 c 0
 400 178 500 108 674 108 c 0
 708 108 736 79 736 45 c 0
 736 11 708 -18 674 -18 c 0
 533 -18 411 32 340 135 c 1
 273 32 154 -18 0 -18 c 0
 -34 -18 -62 11 -62 45 c 0
 -62 79 -34 108 0 108 c 0
 194 108 274 175 274 369 c 0
 274 677 258 918 231 1205 c 0
 231 1207 231 1209 231 1211 c 0
EndSplineSet
Colour: ffff
EndChar

StartChar: uniFEE2
Encoding: 65250 65250 185
Width: 1371
VWidth: 1263
Flags: HMW
AnchorPoint: "Anchor-3" 728 649 basechar 0
AnchorPoint: "Anchor-1" 690 -169 basechar 0
LayerCount: 2
Fore
SplineSet
935 382 m 0
 935 414 960 444 997 444 c 0
 1025 444 1051 425 1058 396 c 0
 1107 185 1177 108 1371 108 c 0
 1405 108 1434 79 1434 45 c 0
 1434 11 1405 -18 1371 -18 c 0
 1114 -18 991 127 936 368 c 0
 935 373 935 377 935 382 c 0
EndSplineSet
Refer: 88 1605 N 1 0 0 1 0 0 2
Colour: ffff
EndChar

StartChar: uniFEE4
Encoding: 65252 65252 186
Width: 1239
VWidth: 1350
Flags: HMW
AnchorPoint: "Anchor-1" 581 0 basechar 0
AnchorPoint: "Anchor-3" 609 675 basechar 0
LayerCount: 2
Back
SplineSet
881 366 m 1
 927 173 1089 45 1219 45 c 1025
EndSplineSet
Fore
SplineSet
611 598 m 0
 611 633 640 660 673 660 c 0
 689 660 706 654 718 642 c 0
 842 515 911 410 953 309 c 0
 1006 183 1036 108 1239 108 c 0
 1273 108 1302 79 1302 45 c 0
 1302 11 1273 -18 1239 -18 c 0
 1088 -18 991 28 927 102 c 1
 874 4 755 -48 589 -48 c 0
 421 -48 316 19 285 125 c 1
 213 47 120 -18 0 -18 c 0
 -34 -18 -62 11 -62 45 c 0
 -62 79 -34 108 0 108 c 0
 140 108 247 262 335 422 c 0
 377 499 444 583 490 639 c 0
 501 652 519 661 539 661 c 0
 575 661 600 630 600 599 c 0
 600 586 596 573 588 562 c 0
 526 479 400 294 400 195 c 0
 400 137 421 78 589 78 c 0
 783 78 828 152 828 205 c 0
 828 299 726 454 628 554 c 0
 616 566 611 582 611 598 c 0
EndSplineSet
Colour: ffff
EndChar

StartChar: uniFEE6
Encoding: 65254 65254 187
Width: 1504
VWidth: 2286
Flags: HMW
AnchorPoint: "Anchor-3" 666 600 basechar 0
AnchorPoint: "Anchor-1" 651 -526 basechar 0
LayerCount: 2
Fore
SplineSet
1107 349 m 0
 1107 380 1131 411 1169 411 c 0
 1196 411 1221 394 1229 367 c 0
 1260 263 1285 197 1320 161 c 0
 1350 129 1397 108 1504 108 c 0
 1538 108 1567 79 1567 45 c 0
 1567 11 1538 -18 1504 -18 c 0
 1383 -18 1293 8 1230 73 c 0
 1165 139 1140 229 1109 331 c 0
 1107 337 1107 343 1107 349 c 0
EndSplineSet
Refer: 223 57344 N 1 0 0 1 462 225 2
Refer: 85 1722 N 1 0 0 1 0 0 2
Colour: ffff
EndChar

StartChar: uniFEEA
Encoding: 65258 65258 188
Width: 1081
VWidth: 2370
Flags: HMW
AnchorPoint: "Anchor-3" 443 936 basechar 0
AnchorPoint: "Anchor-1" 425 2 basechar 0
LayerCount: 2
Fore
SplineSet
612 953 m 0
 612 984 637 1015 674 1015 c 0
 716 1015 736 982 738 937 c 0
 754 762 770 587 786 412 c 0
 811 143 885 108 1081 108 c 0
 1115 108 1144 79 1144 45 c 0
 1144 11 1115 -18 1081 -18 c 0
 837 -18 691 83 662 400 c 2
 630 744 l 1
 578 705 517 675 459 647 c 0
 308 576 242 500 242 414 c 0
 242 370 336 280 518 280 c 0
 550 280 579 283 616 290 c 0
 620 291 623 290 627 290 c 0
 659 290 689 265 689 228 c 0
 689 156 587 154 518 154 c 0
 322 154 118 246 118 414 c 0
 118 576 242 684 405 761 c 0
 496 804 576 849 602 890 c 0
 610 903 614 915 614 928 c 0
 614 936 612 944 612 953 c 0
EndSplineSet
Colour: ffff
EndChar

StartChar: uniFEEB
Encoding: 65259 65259 189
Width: 1283
VWidth: 2370
Flags: HMW
AnchorPoint: "Anchor-3" 625 872 basechar 0
AnchorPoint: "Anchor-1" 585 0 basechar 0
LayerCount: 2
Fore
SplineSet
713 617 m 1
 735 565 746 507 746 450 c 0
 746 311 690 203 598 130 c 1
 666 115 736 108 800 108 c 0
 959 108 1040 186 1040 286 c 0
 1040 429 915 533 713 617 c 1
439 179 m 1
 550 230 620 310 620 450 c 0
 620 556 568 652 495 682 c 0
 477 689 458 694 436 694 c 0
 318 694 204 575 204 430 c 0
 204 328 304 236 439 179 c 1
800 -18 m 0
 684 -18 548 7 440 45 c 1
 315 0 159 -18 0 -18 c 0
 -34 -18 -62 11 -62 45 c 0
 -62 79 -34 108 0 108 c 0
 95 108 187 113 268 128 c 1
 163 197 80 299 80 430 c 0
 80 582 166 720 291 783 c 1
 249 802 208 822 169 843 c 0
 148 854 137 876 137 898 c 0
 137 935 168 960 199 960 c 0
 209 960 220 958 229 953 c 0
 365 880 528 819 682 763 c 0
 920 676 1166 543 1166 286 c 0
 1166 98 1001 -18 800 -18 c 0
EndSplineSet
Colour: ffff
EndChar

StartChar: uniFEEC
Encoding: 65260 65260 190
Width: 930
VWidth: 2370
Flags: HMW
AnchorPoint: "Anchor-3" 465 782 basechar 0
AnchorPoint: "Anchor-1" 418 -557 basechar 0
LayerCount: 2
Fore
SplineSet
243 138 m 1
 518 212 642 404 642 546 c 0
 642 628 609 674 534 674 c 0
 359 674 244 438 243 138 c 1
131 -10 m 1
 89 -15 45 -18 0 -18 c 0
 -34 -18 -62 11 -62 45 c 0
 -62 79 -34 108 0 108 c 0
 41 108 81 110 118 114 c 1
 118 121 118 129 118 136 c 0
 118 437 230 800 534 800 c 0
 695 800 766 668 766 546 c 0
 766 329 584 92 254 11 c 1
 296 -224 438 -410 554 -410 c 0
 625 -410 660 -353 660 -232 c 0
 660 -144 636 -43 607 18 c 0
 605 22 601 36 601 45 c 0
 601 79 629 108 663 108 c 2
 930 108 l 2
 964 108 992 79 992 45 c 0
 992 11 964 -18 930 -18 c 2
 753 -18 l 1
 773 -84 786 -158 786 -232 c 0
 786 -365 735 -534 554 -534 c 0
 326 -534 175 -255 131 -10 c 1
EndSplineSet
Colour: ffff
EndChar

StartChar: uniFEEE
Encoding: 65262 65262 191
Width: 931
VWidth: 2370
Flags: HMW
AnchorPoint: "Anchor-3" 464 721 basechar 0
AnchorPoint: "Anchor-1" 499 -408 basechar 0
LayerCount: 2
Fore
SplineSet
470 78 m 0
 530 78 601 85 668 93 c 1
 669 106 668 120 668 134 c 0
 668 447 563 594 460 594 c 0
 372 594 272 464 272 257 c 0
 272 183 289 143 312 119 c 0
 336 95 382 78 470 78 c 0
200 -528 m 0
 168 -528 138 -503 138 -466 c 0
 138 -437 158 -411 188 -405 c 0
 461 -353 601 -232 650 -35 c 1
 586 -44 526 -48 470 -48 c 0
 368 -48 284 -27 224 31 c 0
 167 88 148 167 148 257 c 0
 148 480 254 718 460 718 c 0
 691 718 794 445 794 134 c 0
 794 124 793 114 793 104 c 1
 843 107 893 108 931 108 c 0
 965 108 994 79 994 45 c 0
 994 11 965 -18 931 -18 c 0
 890 -18 834 -19 780 -22 c 1
 730 -299 532 -466 212 -527 c 0
 208 -528 204 -528 200 -528 c 0
EndSplineSet
PairPos2: "'kern' Horizontal Kerning in Arabic lookup 2 per glyph data 4" uni0625 dx=178 dy=0 dh=178 dv=0 dx=0 dy=0 dh=0 dv=0
PairPos2: "'kern' Horizontal Kerning in Arabic lookup 2 per glyph data 3" uni06A9 dx=-233 dy=0 dh=-233 dv=0 dx=0 dy=0 dh=0 dv=0
PairPos2: "'kern' Horizontal Kerning in Arabic lookup 2 per glyph data 3" uni06AF dx=-233 dy=0 dh=-233 dv=0 dx=0 dy=0 dh=0 dv=0
PairPos2: "'kern' Horizontal Kerning in Arabic lookup 2 per glyph data 3" uniFB90 dx=-233 dy=0 dh=-233 dv=0 dx=0 dy=0 dh=0 dv=0
PairPos2: "'kern' Horizontal Kerning in Arabic lookup 2 per glyph data 3" uniFB94 dx=-233 dy=0 dh=-233 dv=0 dx=0 dy=0 dh=0 dv=0
PairPos2: "'kern' Horizontal Kerning in Arabic lookup 2 per glyph data 3" uniFEDB dx=-233 dy=0 dh=-233 dv=0 dx=0 dy=0 dh=0 dv=0
Colour: ffff
EndChar

StartChar: uniFEFB
Encoding: 65275 65275 199
Width: 1231
VWidth: 1839
Flags: HMW
AnchorPoint: "Anchor-2" 1025 1187 baselig 0
AnchorPoint: "Anchor-2" 390 1128 baselig 1
AnchorPoint: "Anchor-0" 286 0 baselig 1
AnchorPoint: "Anchor-0" 897 -3 baselig 0
LayerCount: 2
Fore
SplineSet
322 1148 m 0
 322 1179 346 1210 384 1210 c 0
 410 1210 434 1194 443 1169 c 0
 524 943 559 711 559 363 c 0
 559 329 530 301 496 301 c 0
 462 301 434 329 434 363 c 0
 434 703 400 917 325 1127 c 0
 323 1134 322 1141 322 1148 c 0
961 1203 m 0
 961 1236 987 1265 1023 1265 c 0
 1055 1265 1082 1241 1085 1209 c 0
 1104 997 1114 839 1114 520 c 0
 1114 139 985 -18 593 -18 c 0
 440 -18 310 -8 171 12 c 0
 140 17 118 44 118 74 c 0
 118 111 148 136 180 136 c 0
 183 136 186 136 189 136 c 0
 322 116 444 108 593 108 c 0
 931 108 988 181 988 520 c 0
 988 837 980 987 961 1197 c 0
 961 1199 961 1201 961 1203 c 0
EndSplineSet
Ligature2: "'rlig' Required Ligatures in Arabic lookup 7 subtable" uniFEDF uniFE8E
PairPos2: "'kern' Horizontal Kerning in Arabic lookup 2 per glyph data 0" uni062C dx=-134 dy=0 dh=-134 dv=0 dx=0 dy=0 dh=0 dv=0
PairPos2: "'kern' Horizontal Kerning in Arabic lookup 2 per glyph data 0" uni062D dx=-134 dy=0 dh=-134 dv=0 dx=0 dy=0 dh=0 dv=0
PairPos2: "'kern' Horizontal Kerning in Arabic lookup 2 per glyph data 0" uni062E dx=-134 dy=0 dh=-134 dv=0 dx=0 dy=0 dh=0 dv=0
PairPos2: "'kern' Horizontal Kerning in Arabic lookup 2 per glyph data 0" uni0639 dx=-350 dy=0 dh=-350 dv=0 dx=0 dy=0 dh=0 dv=0
PairPos2: "'kern' Horizontal Kerning in Arabic lookup 2 per glyph data 0" uni063A dx=-350 dy=0 dh=-350 dv=0 dx=0 dy=0 dh=0 dv=0
PairPos2: "'kern' Horizontal Kerning in Arabic lookup 2 per glyph data 0" uni0686 dx=-134 dy=0 dh=-134 dv=0 dx=0 dy=0 dh=0 dv=0
LCarets2: 1 0
Colour: ffff
EndChar

StartChar: uniFEFC
Encoding: 65276 65276 200
Width: 1282
VWidth: 1839
Flags: HMW
AnchorPoint: "Anchor-0" 369 0 baselig 1
AnchorPoint: "Anchor-2" 350 1118 baselig 1
AnchorPoint: "Anchor-2" 919 1157 baselig 0
AnchorPoint: "Anchor-0" 901 -1 baselig 0
LayerCount: 2
Fore
SplineSet
441 375 m 0
 404 375 379 405 379 437 c 0
 379 441 379 445 380 449 c 0
 391 505 396 565 396 627 c 0
 396 823 346 975 290 1098 c 0
 286 1106 285 1114 285 1123 c 0
 285 1154 309 1186 347 1186 c 0
 371 1186 394 1173 404 1150 c 0
 464 1017 520 845 520 627 c 0
 520 559 515 491 502 425 c 0
 496 396 470 375 441 375 c 0
863 1166 m 0
 863 1199 889 1228 925 1228 c 0
 956 1228 983 1204 987 1173 c 0
 1017 922 1030 755 1030 514 c 0
 1030 201 1107 108 1282 108 c 0
 1316 108 1345 79 1345 45 c 0
 1345 11 1316 -18 1282 -18 c 0
 1116 -18 1011 58 956 194 c 1
 857 29 667 -18 446 -18 c 0
 360 -18 269 -10 174 -1 c 0
 142 2 118 29 118 61 c 0
 118 97 147 123 180 123 c 0
 182 123 184 123 186 123 c 0
 279 114 368 108 446 108 c 0
 746 108 906 164 906 514 c 0
 906 751 893 910 863 1159 c 0
 863 1161 863 1164 863 1166 c 0
EndSplineSet
Ligature2: "'rlig' Required Ligatures in Arabic lookup 7 subtable" uniFEE0 uniFE8E
PairPos2: "'kern' Horizontal Kerning in Arabic lookup 2 per glyph data 0" uni062C dx=-134 dy=0 dh=-134 dv=0 dx=0 dy=0 dh=0 dv=0
PairPos2: "'kern' Horizontal Kerning in Arabic lookup 2 per glyph data 0" uni062D dx=-134 dy=0 dh=-134 dv=0 dx=0 dy=0 dh=0 dv=0
PairPos2: "'kern' Horizontal Kerning in Arabic lookup 2 per glyph data 0" uni062E dx=-134 dy=0 dh=-134 dv=0 dx=0 dy=0 dh=0 dv=0
PairPos2: "'kern' Horizontal Kerning in Arabic lookup 2 per glyph data 0" uni0639 dx=-350 dy=0 dh=-350 dv=0 dx=0 dy=0 dh=0 dv=0
PairPos2: "'kern' Horizontal Kerning in Arabic lookup 2 per glyph data 0" uni063A dx=-350 dy=0 dh=-350 dv=0 dx=0 dy=0 dh=0 dv=0
PairPos2: "'kern' Horizontal Kerning in Arabic lookup 2 per glyph data 0" uni0686 dx=-134 dy=0 dh=-134 dv=0 dx=0 dy=0 dh=0 dv=0
LCarets2: 1 0
Colour: ffff
EndChar

StartChar: uni06CC
Encoding: 1740 1740 201
Width: 1347
VWidth: 2370
Flags: HMW
AnchorPoint: "Anchor-3" 382 628 basechar 0
AnchorPoint: "Anchor-1" 719 -559 basechar 0
LayerCount: 2
Back
SplineSet
159 300 m 0
 138 174 127 68 127 -20 c 0
 127 -334 369 -450 691 -450 c 0
 936 -450 1179 -333 1179 -134 c 0
 1179 57 1024 70 876 78 c 0
 687 88 555 136 555 325 c 0
 555 553 718 706 927 706 c 0
 983 706 1041 697 1100 673 c 1024
EndSplineSet
Fore
SplineSet
1197 638 m 0
 1197 602 1167 576 1135 576 c 0
 1123 576 1111 580 1100 587 c 0
 1050 622 996 636 944 636 c 0
 786 636 636 493 636 324 c 0
 636 171 741 145 929 142 c 0
 1146 139 1260 67 1260 -116 c 0
 1260 -352 1002 -488 671 -488 c 0
 307 -488 108 -344 108 -13 c 0
 108 75 119 176 142 290 c 0
 148 319 174 340 203 340 c 0
 240 340 266 310 266 278 c 0
 266 274 265 270 264 266 c 0
 242 158 232 65 232 -13 c 0
 232 -268 343 -362 671 -362 c 0
 988 -362 1134 -236 1134 -116 c 0
 1134 -11 1122 15 927 18 c 0
 745 21 510 57 510 324 c 0
 510 565 716 760 944 760 c 0
 1020 760 1098 738 1170 689 c 0
 1187 677 1197 658 1197 638 c 0
EndSplineSet
Substitution2: "'init' Initial Forms in Arabic lookup 6 subtable" uniFBFE
Substitution2: "'medi' Medial Forms in Arabic lookup 5 subtable" uniFBFF
Substitution2: "'fina' Terminal Forms in Arabic lookup 4 subtable" uniFBFD
Colour: ffff
EndChar

StartChar: uniFBFD
Encoding: 64509 64509 202
Width: 1382
VWidth: 1839
Flags: HMW
AnchorPoint: "Anchor-3" 724 206 basechar 0
AnchorPoint: "Anchor-1" 690 -549 basechar 0
LayerCount: 2
Fore
SplineSet
284 481 m 0
 322 481 346 450 346 419 c 0
 346 412 345 405 342 398 c 0
 281 232 242 70 242 -62 c 0
 242 -292 343 -448 703 -448 c 0
 1017 -448 1138 -319 1138 -234 c 0
 1138 -157 1054 -51 768 -17 c 0
 738 -13 713 12 713 45 c 0
 713 79 741 108 775 108 c 2
 1382 108 l 2
 1416 108 1444 79 1444 45 c 0
 1444 11 1416 -18 1382 -18 c 2
 1147 -18 l 1
 1222 -76 1264 -151 1264 -234 c 0
 1264 -437 1031 -572 703 -572 c 0
 287 -572 118 -354 118 -62 c 0
 118 94 160 266 224 440 c 0
 233 465 258 481 284 481 c 0
EndSplineSet
Colour: ffff
EndChar

StartChar: uniFB8F
Encoding: 64399 64399 205
Width: 1941
VWidth: 1478
Flags: HMW
AnchorPoint: "Anchor-1" 768 -65 basechar 0
AnchorPoint: "Anchor-3" 1305 1197 basechar 0
LayerCount: 2
Fore
SplineSet
914 951 m 0
 914 985 942 1013 976 1013 c 0
 992 1013 1008 1007 1020 995 c 0
 1197 816 1352 636 1428 451 c 0
 1566 115 1600 108 1941 108 c 0
 1975 108 2004 79 2004 45 c 0
 2004 11 1975 -18 1941 -18 c 0
 1578 -18 1461 39 1312 403 c 0
 1248 560 1105 732 932 907 c 0
 920 919 914 935 914 951 c 0
EndSplineSet
Refer: 92 1705 N 1 0 0 1 0 0 2
Colour: ffff
EndChar

StartChar: uniFBE8
Encoding: 64488 64488 218
Width: 512
VWidth: 1437
Flags: HMW
AnchorPoint: "Anchor-3" 276 732 basechar 0
AnchorPoint: "Anchor-1" 274 45 basechar 0
LayerCount: 2
Fore
SplineSet
230 666 m 0
 230 697 254 728 292 728 c 0
 319 728 344 711 352 685 c 0
 391 561 414 448 414 349 c 0
 414 249 394 157 328 88 c 0
 257 14 147 -18 0 -18 c 0
 -34 -18 -62 11 -62 45 c 0
 -62 79 -34 108 0 108 c 0
 132 108 201 136 238 174 c 0
 272 209 290 264 290 349 c 0
 290 428 269 529 232 647 c 0
 230 653 230 660 230 666 c 0
EndSplineSet
Colour: ffff
EndChar

StartChar: uniFBE9
Encoding: 64489 64489 219
Width: 811
VWidth: 1437
Flags: HMW
AnchorPoint: "Anchor-3" 233 565 basechar 0
AnchorPoint: "Anchor-1" 211 0 basechar 0
LayerCount: 2
Fore
SplineSet
333 532 m 0
 333 564 358 594 395 594 c 0
 426 594 454 571 457 539 c 0
 473 394 491 233 560 168 c 0
 601 130 672 108 811 108 c 0
 845 108 874 79 874 45 c 0
 874 11 845 -18 811 -18 c 0
 612 -18 483 28 414 157 c 1
 344 27 204 -18 0 -18 c 0
 -34 -18 -62 11 -62 45 c 0
 -62 79 -34 108 0 108 c 0
 169 108 246 140 287 191 c 0
 323 236 340 327 340 425 c 0
 340 457 333 498 333 532 c 0
EndSplineSet
Colour: ffff
EndChar

StartChar: uniFEE3
Encoding: 65251 65251 222
Width: 1016
VWidth: 2370
Flags: HMW
AnchorPoint: "Anchor-3" 593 677 basechar 0
AnchorPoint: "Anchor-1" 583 -28 basechar 0
LayerCount: 2
Fore
SplineSet
279 101 m 0
 279 136 308 163 341 163 c 0
 354 163 368 159 379 150 c 0
 437 105 520 78 596 78 c 0
 708 78 794 125 794 278 c 0
 794 455 682 556 593 556 c 0
 489 556 427 461 372 315 c 0
 313 156 235 -18 0 -18 c 0
 -34 -18 -62 11 -62 45 c 0
 -62 79 -34 108 0 108 c 0
 152 108 193 196 254 359 c 0
 307 503 395 680 593 680 c 0
 774 680 918 501 918 278 c 0
 918 51 758 -48 596 -48 c 0
 492 -48 385 -11 303 52 c 0
 287 64 279 82 279 101 c 0
EndSplineSet
Colour: ffff
EndChar

StartChar: uniE000
Encoding: 57344 57344 223
Width: 466
VWidth: 2160
Flags: HMW
LayerCount: 2
Fore
SplineSet
108 146 m 0
 108 198 159 238 218 238 c 0
 277 238 311 199 311 140 c 0
 311 81 271 31 212 31 c 0
 153 31 108 88 108 146 c 0
EndSplineSet
Colour: ff0000
EndChar

StartChar: uniE001
Encoding: 57345 57345 224
Width: 660
VWidth: 1823
Flags: HMW
LayerCount: 2
Fore
SplineSet
476 87 m 0
 476 91 476 96 477 100 c 0
 477 104 440 120 380 120 c 0
 289 120 213 92 155 49 c 0
 144 41 131 37 118 37 c 0
 86 37 56 63 56 99 c 0
 56 118 65 137 81 149 c 0
 159 206 261 246 380 246 c 0
 467 246 602 223 602 99 c 0
 602 54 578 22 538 22 c 0
 500 22 476 54 476 87 c 0
EndSplineSet
Colour: ffff
EndChar

StartChar: uniE002
Encoding: 57346 57346 225
Width: 696
VWidth: 1823
Flags: HMW
LayerCount: 2
Fore
SplineSet
85 319 m 0
 53 319 23 345 23 381 c 0
 23 400 31 419 48 431 c 0
 112 478 268 526 402 526 c 0
 486 526 612 496 612 370 c 0
 612 232 453 91 338 58 c 0
 332 56 328 56 322 56 c 0
 291 56 259 80 259 118 c 0
 259 145 277 170 304 178 c 0
 377 199 486 322 486 370 c 0
 486 382 482 402 402 402 c 0
 300 402 148 350 122 331 c 0
 111 323 98 319 85 319 c 0
EndSplineSet
Colour: ffff
EndChar

StartChar: uniE003
Encoding: 57347 57347 226
Width: 696
VWidth: 1823
Flags: HMW
LayerCount: 2
Fore
SplineSet
475 64 m 0
 439 64 413 94 413 126 c 0
 413 138 416 151 423 161 c 0
 434 177 440 195 440 230 c 0
 440 297 391 344 308 344 c 0
 240 344 184 289 184 234 c 0
 184 167 217 135 275 82 c 0
 288 70 295 53 295 36 c 0
 295 1 266 -26 233 -26 c 0
 218 -26 203 -21 191 -10 c 0
 135 41 60 111 60 234 c 0
 60 369 180 468 308 468 c 0
 443 468 566 377 566 230 c 0
 566 165 544 64 475 64 c 0
EndSplineSet
Colour: ffff
EndChar

StartChar: uniE004
Encoding: 57348 57348 227
Width: 1959
VWidth: 2370
Flags: HMW
AnchorPoint: "Anchor-3" 852 553 basechar 0
AnchorPoint: "Anchor-1" 796 -25 basechar 0
LayerCount: 2
Fore
SplineSet
197 685 m 0
 235 685 259 654 259 623 c 0
 259 617 258 610 256 604 c 0
 233 532 222 468 222 414 c 0
 222 207 372 78 711 78 c 0
 1178 78 1439 241 1505 568 c 0
 1511 596 1536 618 1566 618 c 0
 1600 618 1628 590 1628 556 c 0
 1628 524 1626 494 1626 465 c 0
 1626 190 1717 108 1959 108 c 0
 1993 108 2022 79 2022 45 c 0
 2022 11 1993 -18 1959 -18 c 0
 1730 -18 1570 72 1520 281 c 1
 1364 53 1081 -48 711 -48 c 0
 342 -48 98 115 98 414 c 0
 98 484 110 560 136 642 c 0
 144 668 170 685 197 685 c 0
EndSplineSet
Colour: ffff
EndChar

StartChar: uniE005
Encoding: 57349 57349 228
Width: 852
VWidth: 2370
Flags: HMW
AnchorPoint: "Anchor-3" 438 1141 basechar 0
AnchorPoint: "Anchor-1" 380 0 basechar 0
LayerCount: 2
Fore
SplineSet
626 516 m 1
 610 801 531 984 418 984 c 0
 291 984 212 824 212 665 c 0
 212 527 278 478 435 478 c 0
 497 478 553 492 603 512 c 0
 610 515 618 516 626 516 c 1
418 1108 m 0
 705 1108 754 700 754 399 c 0
 754 66 436 -18 0 -18 c 0
 -34 -18 -62 11 -62 45 c 0
 -62 79 -34 108 0 108 c 0
 442 108 623 189 629 388 c 1
 572 367 506 352 435 352 c 0
 238 352 88 449 88 665 c 0
 88 836 171 1108 418 1108 c 0
EndSplineSet
Colour: ffff
EndChar

StartChar: uniE006
Encoding: 57350 57350 229
Width: 945
VWidth: 2370
Flags: HMW
AnchorPoint: "Anchor-3" 552 921 basechar 0
AnchorPoint: "Anchor-1" 367 0 basechar 0
LayerCount: 2
Fore
SplineSet
470 208 m 1
 603 275 690 372 690 499 c 0
 690 647 608 746 483 746 c 0
 353 746 256 641 256 504 c 0
 256 373 339 275 470 208 c 1
945 -18 m 0
 780 -18 607 12 469 70 c 1
 330 12 157 -18 0 -18 c 0
 -34 -18 -62 11 -62 45 c 0
 -62 79 -34 108 0 108 c 0
 107 108 220 122 323 151 c 1
 210 233 130 353 130 504 c 0
 130 703 279 870 483 870 c 0
 692 870 814 693 814 499 c 0
 814 349 732 232 618 151 c 1
 719 122 833 108 945 108 c 0
 979 108 1008 79 1008 45 c 0
 1008 11 979 -18 945 -18 c 0
EndSplineSet
Colour: ffff
EndChar

StartChar: uni064E
Encoding: 1614 1614 230
Width: 0
VWidth: -1171
Flags: HMW
AnchorPoint: "Anchor-5" 206 944 mark 0
AnchorPoint: "Anchor-2" 206 944 mark 0
AnchorPoint: "Anchor-3" 206 944 mark 0
AnchorPoint: "Anchor-5" 206 1404 basemark 0
LayerCount: 2
Fore
SplineSet
28 1303 m 2
 23 1301 18 1301 14 1301 c 0
 -9 1301 -24 1322 -24 1343 c 0
 -24 1358 -16 1373 2 1379 c 2
 407 1523 l 2
 412 1525 417 1525 421 1525 c 0
 444 1525 459 1504 459 1483 c 0
 459 1468 451 1453 433 1447 c 2
 28 1303 l 2
EndSplineSet
Colour: ffff00
EndChar

StartChar: uni064F
Encoding: 1615 1615 234
Width: 0
VWidth: 2274
Flags: HMW
AnchorPoint: "Anchor-5" 162 858 mark 0
AnchorPoint: "Anchor-5" 171 1537 basemark 0
AnchorPoint: "Anchor-3" 162 858 mark 0
AnchorPoint: "Anchor-2" 162 858 mark 0
LayerCount: 2
Fore
SplineSet
235 1431 m 1
 238 1448 240 1467 240 1488 c 0
 240 1585 226 1638 191 1638 c 0
 140 1638 97 1572 97 1508 c 0
 97 1474 143 1444 235 1431 c 1
395 1383 m 0
 395 1361 377 1343 355 1343 c 0
 336 1343 315 1344 292 1345 c 1
 238 1233 117 1196 -33 1188 c 0
 -34 1188 -35 1188 -36 1188 c 0
 -61 1188 -74 1208 -74 1228 c 0
 -74 1247 -62 1267 -37 1268 c 0
 89 1275 167 1303 205 1355 c 1
 125 1369 17 1404 17 1508 c 0
 17 1592 72 1718 191 1718 c 0
 318 1718 320 1567 320 1495 c 2
 320 1488 l 2
 320 1466 318 1444 315 1424 c 1
 329 1423 343 1423 355 1423 c 0
 377 1423 395 1405 395 1383 c 0
EndSplineSet
Colour: ffff00
EndChar

StartChar: uni0651
Encoding: 1617 1617 235
Width: 0
VWidth: 2279
Flags: HMW
AnchorPoint: "Anchor-5" 239 858 mark 0
AnchorPoint: "Anchor-5" 239 1330 basemark 0
AnchorPoint: "Anchor-3" 239 858 mark 0
AnchorPoint: "Anchor-2" 239 858 mark 0
LayerCount: 2
Fore
SplineSet
381 1544 m 0
 378 1550 377 1555 377 1560 c 0
 377 1583 399 1599 420 1599 c 0
 434 1599 448 1592 455 1576 c 0
 477 1527 503 1449 503 1374 c 0
 503 1279 443 1223 364 1223 c 0
 310 1223 265 1255 238 1299 c 1
 209 1254 163 1224 110 1224 c 0
 39 1224 -24 1272 -24 1360 c 0
 -24 1426 6 1493 44 1542 c 0
 52 1553 63 1558 74 1558 c 0
 96 1558 117 1539 117 1517 c 0
 117 1509 114 1502 108 1494 c 0
 79 1457 56 1400 56 1360 c 0
 56 1316 75 1304 110 1304 c 0
 148 1304 194 1343 199 1444 c 0
 200 1463 216 1482 239 1482 c 0
 260 1482 278 1465 279 1444 c 0
 285 1341 328 1303 364 1303 c 0
 401 1303 423 1315 423 1374 c 0
 423 1429 399 1503 381 1544 c 0
EndSplineSet
Colour: ffff00
EndChar

StartChar: uni0670
Encoding: 1648 1648 236
Width: 0
VWidth: 1823
Flags: HMW
AnchorPoint: "Anchor-5" 33 861 mark 0
AnchorPoint: "Anchor-5" 33 1413 basemark 0
AnchorPoint: "Anchor-3" 33 861 mark 0
AnchorPoint: "Anchor-2" 33 861 mark 0
LayerCount: 2
Fore
SplineSet
-26 1624 m 0
 -26 1649 -5 1661 15 1661 c 0
 34 1661 52 1651 54 1627 c 0
 62 1549 66 1479 66 1409 c 0
 66 1335 59 1260 34 1186 c 0
 28 1168 14 1160 -1 1160 c 0
 -22 1160 -44 1176 -44 1199 c 0
 -44 1203 -44 1207 -42 1212 c 0
 -21 1276 -14 1341 -14 1409 c 0
 -14 1476 -26 1547 -26 1624 c 0
EndSplineSet
Colour: ffff00
EndChar

StartChar: uni064C
Encoding: 1612 1612 237
Width: 0
VWidth: 2274
Flags: HMW
AnchorPoint: "Anchor-5" 180 858 mark 0
AnchorPoint: "Anchor-5" 187 1497 basemark 0
AnchorPoint: "Anchor-3" 180 858 mark 0
AnchorPoint: "Anchor-2" 180 858 mark 0
LayerCount: 2
Fore
SplineSet
-138 1423 m 0
 -186 1423 -195 1521 -195 1561 c 0
 -195 1750 -28 1916 129 1928 c 1
 133 1928 l 2
 158 1928 171 1907 171 1887 c 0
 171 1868 159 1850 135 1848 c 0
 24 1840 -115 1706 -115 1561 c 0
 -115 1533 -110 1505 -99 1477 c 0
 -97 1472 -96 1467 -96 1462 c 0
 -96 1439 -117 1423 -138 1423 c 0
EndSplineSet
Refer: 234 1615 N 1 0 0 1 0 0 2
Colour: ffff00
EndChar

StartChar: uni0652
Encoding: 1618 1618 238
Width: 0
VWidth: 2274
Flags: HMW
AnchorPoint: "Anchor-5" 183 944 mark 0
AnchorPoint: "Anchor-5" 167 1441 basemark 0
AnchorPoint: "Anchor-3" 183 944 mark 0
AnchorPoint: "Anchor-2" 183 944 mark 0
LayerCount: 2
Fore
SplineSet
176 1629 m 0
 283 1629 353 1541 353 1452 c 0
 353 1341 273 1257 175 1257 c 0
 71 1257 -3 1344 -3 1434 c 0
 -3 1543 79 1629 176 1629 c 0
176 1549 m 0
 129 1549 77 1503 77 1434 c 0
 77 1386 119 1337 175 1337 c 0
 225 1337 273 1379 273 1452 c 0
 273 1501 235 1549 176 1549 c 0
EndSplineSet
Colour: ffff00
EndChar

StartChar: uni0653
Encoding: 1619 1619 239
Width: 0
VWidth: 1823
Flags: HMW
AnchorPoint: "Anchor-5" 308 858 mark 0
AnchorPoint: "Anchor-5" 316 1325 basemark 0
AnchorPoint: "Anchor-3" 308 858 mark 0
AnchorPoint: "Anchor-2" 308 858 mark 0
LayerCount: 2
Fore
SplineSet
535 1433 m 0
 542 1449 556 1455 569 1455 c 0
 590 1455 611 1438 611 1416 c 0
 611 1411 610 1405 607 1399 c 0
 573 1327 515 1248 419 1248 c 0
 377 1248 331 1264 283 1296 c 0
 248 1320 220 1329 194 1329 c 0
 145 1329 97 1296 64 1238 c 0
 56 1224 43 1218 31 1218 c 0
 10 1218 -12 1236 -12 1258 c 0
 -12 1264 -10 1271 -6 1278 c 0
 36 1352 107 1409 194 1409 c 0
 240 1409 286 1392 329 1362 c 0
 367 1336 397 1328 419 1328 c 0
 465 1328 503 1367 535 1433 c 0
EndSplineSet
Colour: ffff00
EndChar

StartChar: uni0654
Encoding: 1620 1620 240
Width: 0
VWidth: 2280
Flags: HMW
AnchorPoint: "Anchor-5" 236 858 mark 0
AnchorPoint: "Anchor-5" 236 1503 basemark 0
AnchorPoint: "Anchor-3" 236 858 mark 0
AnchorPoint: "Anchor-2" 236 858 mark 0
LayerCount: 2
Fore
SplineSet
384 1611 m 0
 390 1603 392 1596 392 1588 c 0
 392 1566 371 1547 350 1547 c 0
 339 1547 328 1552 320 1563 c 0
 292 1601 260 1614 228 1614 c 0
 162 1614 90 1550 90 1463 c 0
 90 1390 132 1363 221 1363 c 0
 276 1363 340 1376 406 1399 c 0
 410 1400 415 1401 419 1401 c 0
 444 1401 458 1380 458 1360 c 0
 458 1344 450 1329 432 1323 c 2
 27 1182 l 2
 22 1180 17 1180 13 1180 c 0
 -10 1180 -25 1201 -25 1222 c 0
 -25 1237 -17 1252 1 1258 c 2
 119 1299 l 1
 54 1323 10 1380 10 1463 c 0
 10 1592 114 1694 228 1694 c 0
 286 1694 342 1667 384 1611 c 0
EndSplineSet
Colour: ffff00
EndChar

StartChar: uni0615
Encoding: 1557 1557 244
Width: 0
VWidth: 1839
Flags: HMW
AnchorPoint: "Anchor-5" 256 768 mark 0
AnchorPoint: "Anchor-5" 247 1347 basemark 0
AnchorPoint: "Anchor-3" 256 768 mark 0
AnchorPoint: "Anchor-2" 256 768 mark 0
LayerCount: 2
Fore
SplineSet
205 1199 m 1
 222 1198 240 1197 258 1197 c 0
 376 1197 475 1234 475 1309 c 0
 475 1350 442 1382 393 1382 c 0
 308 1382 243 1302 205 1199 c 1
112 1712 m 0
 112 1714 111 1717 111 1719 c 0
 111 1744 133 1758 153 1758 c 0
 170 1758 187 1748 190 1726 c 0
 205 1634 214 1538 214 1441 c 0
 214 1418 214 1395 213 1372 c 1
 257 1423 317 1462 393 1462 c 0
 478 1462 555 1400 555 1309 c 0
 555 1148 370 1117 258 1117 c 0
 159 1117 80 1130 -2 1152 c 0
 -22 1157 -31 1173 -31 1189 c 0
 -31 1210 -16 1231 7 1231 c 0
 10 1231 14 1231 18 1230 c 0
 51 1221 85 1213 118 1208 c 1
 129 1288 134 1366 134 1441 c 0
 134 1534 127 1624 112 1712 c 0
EndSplineSet
Colour: ffff00
EndChar

StartChar: uniE007
Encoding: 57351 57351 251
Width: 1067
VWidth: 1839
Flags: HMW
LayerCount: 2
Fore
SplineSet
167 1351 m 0
 136 1351 105 1376 105 1413 c 0
 105 1435 117 1457 138 1468 c 2
 732 1785 l 2
 741 1790 751 1792 761 1792 c 0
 792 1792 823 1767 823 1730 c 0
 823 1708 811 1686 790 1675 c 2
 196 1358 l 2
 187 1353 177 1351 167 1351 c 0
EndSplineSet
Colour: ffff
EndChar

StartChar: uni0643
Encoding: 1603 1603 261
Width: 1610
VWidth: 1478
Flags: HMW
AnchorPoint: "Anchor-3" 801 883 basechar 0
AnchorPoint: "Anchor-1" 713 -30 basechar 0
LayerCount: 2
Fore
SplineSet
1301 1136 m 2
 1301 1169 1327 1198 1363 1198 c 0
 1394 1198 1421 1175 1425 1143 c 0
 1452 902 1472 707 1472 441 c 0
 1472 61 1191 -48 823 -48 c 0
 487 -48 98 0 98 382 c 0
 98 451 110 529 134 616 c 0
 142 643 168 661 195 661 c 0
 233 661 257 630 257 599 c 0
 257 594 256 587 254 582 c 0
 232 503 222 437 222 382 c 0
 222 130 465 78 823 78 c 0
 1177 78 1348 159 1348 441 c 0
 1348 701 1328 888 1301 1129 c 1
 1301 1136 l 2
EndSplineSet
Refer: 240 1620 N 1 0 0 1 575 -647 2
Substitution2: "'init' Initial Forms in Arabic lookup 6 subtable" uniFEDB
Substitution2: "'medi' Medial Forms in Arabic lookup 5 subtable" uniFEDC
Substitution2: "'fina' Terminal Forms in Arabic lookup 4 subtable" uniFEDA
Colour: ffff
EndChar

StartChar: uni065A
Encoding: 1626 1626 265
Width: 0
VWidth: -365
Flags: HMW
AnchorPoint: "Anchor-5" 240 826 mark 0
AnchorPoint: "Anchor-5" 240 1381 basemark 0
AnchorPoint: "Anchor-3" 240 826 mark 0
AnchorPoint: "Anchor-2" 240 826 mark 0
LayerCount: 2
Fore
SplineSet
203 1004 m 1
 203 1122 117 1380 -2 1495 c 0
 -11 1503 -14 1513 -14 1522 c 0
 -14 1544 6 1564 28 1564 c 0
 37 1564 46 1561 54 1553 c 0
 141 1469 204 1339 243 1217 c 1
 282 1337 345 1469 432 1553 c 0
 440 1561 449 1564 458 1564 c 0
 480 1564 500 1544 500 1522 c 0
 500 1513 497 1503 488 1495 c 0
 369 1380 283 1122 283 1004 c 1
 203 1004 l 1
EndSplineSet
Colour: ffff00
EndChar

StartChar: uni0621
Encoding: 1569 1569 266
Width: 883
VWidth: 2280
Flags: HMW
AnchorPoint: "Anchor-3" 447 703 basechar 0
AnchorPoint: "Anchor-1" 437 117 basechar 0
LayerCount: 2
Fore
SplineSet
692 625 m 0
 692 598 669 575 642 575 c 0
 629 575 616 581 606 591 c 0
 563 637 514 654 457 654 c 0
 353 654 236 545 236 414 c 0
 236 326 278 251 445 251 c 0
 511 251 631 260 717 271 c 0
 719 271 721 271 723 271 c 0
 749 271 773 249 773 221 c 0
 773 195 751 176 732 172 c 0
 544 136 363 65 186 -43 c 0
 178 -48 169 -50 160 -50 c 0
 135 -50 110 -29 110 -0 c 0
 110 17 119 34 134 43 c 0
 207 88 280 126 356 159 c 1
 205 187 136 297 136 414 c 0
 136 599 293 754 457 754 c 0
 538 754 615 725 678 659 c 0
 687 649 692 637 692 625 c 0
EndSplineSet
Colour: ff00
EndChar

StartChar: uni0640
Encoding: 1600 1600 267
Width: 668
VWidth: 1437
Flags: HMW
AnchorPoint: "Anchor-1" 334 -169 basechar 0
AnchorPoint: "Anchor-3" 334 520 basechar 0
LayerCount: 2
Fore
SplineSet
-62 45 m 0
 -62 79 -34 108 0 108 c 2
 668 108 l 2
 702 108 730 79 730 45 c 0
 730 11 702 -18 668 -18 c 2
 0 -18 l 2
 -34 -18 -62 11 -62 45 c 0
EndSplineSet
Colour: ffff
EndChar

StartChar: uni0660
Encoding: 1632 1632 275
Width: 737
VWidth: 2694
Flags: HMW
LayerCount: 2
Fore
SplineSet
110 475 m 0
 110 623 244 729 392 729 c 0
 530 729 627 618 627 484 c 0
 627 343 524 210 380 210 c 0
 232 210 110 332 110 475 c 0
210 475 m 0
 210 390 288 310 380 310 c 0
 456 310 527 387 527 484 c 0
 527 570 470 629 392 629 c 0
 288 629 210 555 210 475 c 0
EndSplineSet
PairPos2: "'kern' Horizontal Kerning in Arabic lookup 3 per glyph data 0" uni0667 dx=-89 dy=0 dh=-89 dv=0 dx=0 dy=0 dh=0 dv=0
PairPos2: "'kern' Horizontal Kerning in Arabic lookup 3 per glyph data 0" uni0666 dx=-89 dy=0 dh=-89 dv=0 dx=0 dy=0 dh=0 dv=0
PairPos2: "'kern' Horizontal Kerning in Arabic lookup 3 per glyph data 0" uni0662 dx=-111 dy=0 dh=-111 dv=0 dx=0 dy=0 dh=0 dv=0
Colour: ff00
EndChar

StartChar: uni0661
Encoding: 1633 1633 276
Width: 580
VWidth: 1823
Flags: HMW
LayerCount: 2
Fore
SplineSet
118 1171 m 0
 118 1202 142 1233 180 1233 c 0
 206 1233 230 1217 239 1191 c 0
 384 767 463 491 463 0 c 0
 463 -34 434 -62 400 -62 c 0
 366 -62 338 -34 338 -0 c 0
 338 477 266 729 121 1151 c 0
 119 1158 118 1164 118 1171 c 0
EndSplineSet
Colour: ffff
EndChar

StartChar: uni0662
Encoding: 1634 1634 277
Width: 1014
VWidth: 1823
Flags: HMW
LayerCount: 2
Fore
SplineSet
118 1164 m 0
 118 1195 141 1227 179 1227 c 0
 205 1227 229 1211 238 1189 c 0
 285 1076 331 949 397 855 c 0
 454 775 514 732 578 732 c 0
 700 732 792 899 792 1196 c 0
 792 1230 820 1258 854 1258 c 0
 888 1258 916 1230 916 1196 c 0
 916 908 832 606 578 606 c 0
 525 606 477 622 435 647 c 1
 483 474 516 290 516 98 c 0
 516 66 515 31 513 -4 c 0
 511 -37 483 -62 451 -62 c 0
 416 -62 389 -33 389 0 c 0
 389 31 390 65 390 98 c 0
 390 404 294 707 197 956 c 1
 166 1023 141 1089 121 1143 c 0
 118 1150 118 1157 118 1164 c 0
EndSplineSet
Colour: ffff
EndChar

StartChar: uni0663
Encoding: 1635 1635 278
Width: 1285
VWidth: 2315
Flags: HMW
LayerCount: 2
Fore
SplineSet
1051 1186 m 0
 1051 1218 1076 1248 1113 1248 c 0
 1143 1248 1170 1226 1175 1196 c 0
 1185 1137 1188 1081 1188 1035 c 0
 1188 861 1145 614 941 606 c 1
 831 606 762 677 722 758 c 1
 678 669 594 606 478 606 c 0
 456 606 435 608 414 612 c 1
 451 453 474 289 474 110 c 0
 474 92 475 73 475 54 c 0
 475 -6 468 -62 409 -62 c 0
 374 -62 347 -34 347 0 c 0
 347 33 348 78 348 110 c 0
 348 352 301 576 240 780 c 1
 211 849 185 950 159 1029 c 0
 147 1065 134 1102 121 1139 c 0
 119 1146 118 1152 118 1159 c 0
 118 1190 141 1222 179 1222 c 0
 205 1222 230 1207 239 1181 c 0
 283 1057 320 948 358 822 c 1
 372 790 385 770 397 758 c 0
 415 740 434 730 478 730 c 0
 575 730 623 795 642 928 c 0
 647 962 650 999 650 1038 c 0
 650 1083 643 1127 643 1166 c 0
 643 1200 671 1228 705 1228 c 0
 777 1228 772 1141 774 1075 c 0
 778 1029 785 981 794 936 c 0
 823 801 871 732 939 731 c 0
 1004 734 1062 848 1062 1035 c 0
 1062 1075 1059 1125 1051 1176 c 0
 1050 1179 1051 1183 1051 1186 c 0
EndSplineSet
Colour: ffff
EndChar

StartChar: uni0664
Encoding: 1636 1636 279
Width: 1037
VWidth: 2315
Flags: HMW
LayerCount: 2
Fore
SplineSet
877 142 m 0
 908 142 939 119 939 81 c 0
 939 57 925 33 902 23 c 0
 794 -23 678 -48 562 -48 c 0
 384 -48 98 -18 98 199 c 0
 98 346 239 436 317 490 c 0
 375 530 401 570 402 578 c 0
 400 585 374 619 325 649 c 0
 256 692 122 764 122 905 c 0
 122 1167 465 1244 650 1244 c 0
 684 1244 712 1216 712 1182 c 0
 712 1148 684 1120 650 1120 c 0
 461 1120 246 1031 246 905 c 0
 246 856 308 806 391 755 c 0
 453 717 528 663 528 579 c 0
 528 493 454 434 389 388 c 0
 301 326 222 258 222 199 c 0
 222 132 354 78 562 78 c 0
 662 78 760 97 852 137 c 0
 860 140 869 142 877 142 c 0
EndSplineSet
Colour: ffff
EndChar

StartChar: uni0665
Encoding: 1637 1637 280
Width: 1150
VWidth: 2370
Flags: HMW
LayerCount: 2
Fore
SplineSet
565 911 m 1
 404 765 222 547 222 348 c 0
 222 177 350 78 583 78 c 0
 802 78 928 163 928 332 c 0
 928 532 763 738 565 911 c 1
250 1186 m 0
 250 1222 280 1248 312 1248 c 0
 325 1248 337 1245 348 1237 c 0
 413 1191 488 1136 564 1075 c 1
 578 1086 594 1097 614 1097 c 0
 647 1097 676 1070 676 1035 c 0
 676 1020 671 1005 661 993 c 1
 859 817 1052 592 1052 332 c 0
 1052 69 832 -48 583 -48 c 0
 316 -48 98 87 98 348 c 0
 98 608 305 841 468 991 c 1
 401 1044 335 1093 276 1135 c 0
 259 1147 250 1166 250 1186 c 0
EndSplineSet
PairPos2: "'kern' Horizontal Kerning in Arabic lookup 3 per glyph data 0" uni0667 dx=-89 dy=0 dh=-89 dv=0 dx=0 dy=0 dh=0 dv=0
PairPos2: "'kern' Horizontal Kerning in Arabic lookup 3 per glyph data 0" uni0666 dx=-45 dy=0 dh=-45 dv=0 dx=0 dy=0 dh=0 dv=0
Colour: ffff
EndChar

StartChar: uni0666
Encoding: 1638 1638 281
Width: 1136
VWidth: 2315
Flags: HMW
LayerCount: 2
Fore
SplineSet
160 1094 m 0
 128 1094 98 1119 98 1156 c 0
 98 1186 120 1213 150 1218 c 0
 238 1233 325 1238 412 1238 c 0
 665 1238 864 1150 864 856 c 0
 864 416 884 304 1013 26 c 0
 1017 18 1018 10 1018 1 c 0
 1018 -30 994 -62 957 -62 c 0
 933 -62 909 -49 899 -26 c 0
 764 264 740 416 740 856 c 0
 740 1064 641 1114 412 1114 c 0
 331 1114 250 1107 170 1094 c 0
 167 1093 163 1094 160 1094 c 0
EndSplineSet
PairPos2: "'kern' Horizontal Kerning in Arabic lookup 3 per glyph data 0" uni0660 dx=-89 dy=0 dh=-89 dv=0 dx=0 dy=0 dh=0 dv=0
PairPos2: "'kern' Horizontal Kerning in Arabic lookup 3 per glyph data 0" uni066B dx=-134 dy=0 dh=-134 dv=0 dx=0 dy=0 dh=0 dv=0
PairPos2: "'kern' Horizontal Kerning in Arabic lookup 3 per glyph data 0" uni0668 dx=-89 dy=0 dh=-89 dv=0 dx=0 dy=0 dh=0 dv=0
Colour: ffff
EndChar

StartChar: uni0667
Encoding: 1639 1639 282
Width: 1158
VWidth: 2370
Flags: HMW
LayerCount: 2
Fore
SplineSet
98 1166 m 0
 98 1198 124 1228 160 1228 c 0
 181 1228 201 1218 213 1199 c 0
 384 929 516 695 595 383 c 1
 667 703 785 947 944 1228 c 0
 955 1248 977 1259 999 1259 c 0
 1036 1259 1060 1229 1060 1197 c 0
 1060 1187 1057 1176 1052 1166 c 0
 838 789 711 501 659 -6 c 0
 656 -36 631 -62 597 -62 c 0
 566 -62 538 -38 535 -6 c 0
 483 499 338 768 107 1133 c 0
 101 1143 98 1155 98 1166 c 0
EndSplineSet
PairPos2: "'kern' Horizontal Kerning in Arabic lookup 3 per glyph data 0" uni0660 dx=-89 dy=0 dh=-89 dv=0 dx=0 dy=0 dh=0 dv=0
PairPos2: "'kern' Horizontal Kerning in Arabic lookup 3 per glyph data 0" uni0665 dx=-89 dy=0 dh=-89 dv=0 dx=0 dy=0 dh=0 dv=0
PairPos2: "'kern' Horizontal Kerning in Arabic lookup 3 per glyph data 0" uni0668 dx=-134 dy=0 dh=-134 dv=0 dx=0 dy=0 dh=0 dv=0
PairPos2: "'kern' Horizontal Kerning in Arabic lookup 3 per glyph data 0" uni066B dx=-1002 dy=0 dh=-111 dv=0 dx=0 dy=0 dh=0 dv=0
Colour: ffff
EndChar

StartChar: uni0668
Encoding: 1640 1640 283
Width: 1168
VWidth: 1823
Flags: HMW
LayerCount: 2
Fore
SplineSet
1070 -14 m 0
 1070 -46 1045 -76 1008 -76 c 0
 987 -76 967 -66 955 -47 c 0
 782 233 655 468 579 781 c 1
 507 473 386 246 213 -33 c 0
 201 -52 181 -62 160 -62 c 0
 123 -62 98 -32 98 0 c 0
 98 11 101 23 107 33 c 0
 341 410 464 665 516 1172 c 0
 519 1202 544 1228 578 1228 c 0
 609 1228 637 1204 640 1172 c 0
 692 666 827 397 1061 19 c 0
 1067 9 1070 -3 1070 -14 c 0
EndSplineSet
PairPos2: "'kern' Horizontal Kerning in Arabic lookup 3 per glyph data 0" uni0663 dx=-89 dy=0 dh=-89 dv=0 dx=0 dy=0 dh=0 dv=0
PairPos2: "'kern' Horizontal Kerning in Arabic lookup 3 per glyph data 0" uni0662 dx=-89 dy=0 dh=-89 dv=0 dx=0 dy=0 dh=0 dv=0
PairPos2: "'kern' Horizontal Kerning in Arabic lookup 3 per glyph data 0" uni0667 dx=-134 dy=0 dh=-134 dv=0 dx=0 dy=0 dh=0 dv=0
Colour: ffff
EndChar

StartChar: uni0669
Encoding: 1641 1641 284
Width: 1022
VWidth: 2315
Flags: HMW
LayerCount: 2
Fore
SplineSet
603 635 m 0
 636 635 665 608 665 572 c 0
 665 541 642 514 611 510 c 0
 591 508 537 502 484 502 c 0
 294 502 98 584 98 823 c 0
 98 1009 203 1262 451 1262 c 0
 715 1262 778 1005 786 774 c 0
 798 437 817 182 897 29 c 0
 902 20 904 10 904 0 c 0
 904 -31 880 -62 843 -62 c 0
 820 -62 798 -50 787 -29 c 0
 687 162 673 434 661 770 c 0
 652 1007 597 1136 451 1136 c 0
 311 1136 222 983 222 823 c 0
 222 680 318 628 484 628 c 0
 535 628 582 635 603 635 c 0
EndSplineSet
PairPos2: "'kern' Horizontal Kerning in Arabic lookup 3 per glyph data 0" uni066B dx=-67 dy=0 dh=-67 dv=0 dx=0 dy=0 dh=0 dv=0
PairPos2: "'kern' Horizontal Kerning in Arabic lookup 3 per glyph data 0" uni0668 dx=-134 dy=0 dh=-134 dv=0 dx=0 dy=0 dh=0 dv=0
PairPos2: "'kern' Horizontal Kerning in Arabic lookup 3 per glyph data 0" uni0665 dx=-45 dy=0 dh=-45 dv=0 dx=0 dy=0 dh=0 dv=0
Colour: ffff
EndChar

StartChar: uni06F4
Encoding: 1780 1780 290
Width: 1118
VWidth: 2370
Flags: HMW
LayerCount: 2
Fore
SplineSet
938 665 m 0
 971 665 1000 639 1000 603 c 0
 1000 572 976 544 944 541 c 0
 901 537 861 536 824 536 c 0
 639 536 496 579 384 647 c 1
 451 443 471 232 471 0 c 0
 471 -34 442 -62 408 -62 c 0
 374 -62 346 -34 346 -0 c 0
 346 347 298 630 127 896 c 0
 121 905 118 918 118 930 c 0
 118 963 145 992 180 992 c 0
 200 992 219 983 231 966 c 0
 279 899 333 836 402 784 c 1
 426 1027 545 1232 806 1303 c 0
 811 1304 817 1305 822 1305 c 0
 853 1305 884 1281 884 1243 c 0
 884 1216 866 1190 838 1183 c 0
 620 1123 528 955 522 715 c 1
 603 681 701 660 824 660 c 0
 861 660 899 665 938 665 c 0
EndSplineSet
PairPos2: "'kern' Horizontal Kerning in Arabic lookup 3 per glyph data 1" uni06F0 dx=100 dy=0 dh=100 dv=0 dx=0 dy=0 dh=0 dv=0
PairPos2: "'kern' Horizontal Kerning in Arabic lookup 3 per glyph data 1" uni06F8 dx=-111 dy=0 dh=-111 dv=0 dx=0 dy=0 dh=0 dv=0
Colour: ffff
EndChar

StartChar: uni06F5
Encoding: 1781 1781 291
Width: 1155
VWidth: 2370
Flags: HMW
LayerCount: 2
Fore
SplineSet
596 908 m 1
 409 780 222 569 222 317 c 0
 222 131 309 76 378 76 c 0
 422 76 476 101 520 169 c 0
 531 185 551 197 572 197 c 0
 590 197 609 189 621 174 c 0
 675 107 738 74 772 74 c 0
 843 74 932 153 932 342 c 0
 932 536 771 747 596 908 c 1
304 1169 m 0
 304 1205 334 1231 366 1231 c 0
 378 1231 391 1228 401 1221 c 0
 455 1185 529 1131 609 1064 c 1
 620 1070 635 1077 650 1077 c 0
 682 1077 712 1052 712 1015 c 0
 712 1003 709 991 702 981 c 1
 876 816 1058 590 1058 342 c 0
 1058 123 945 -52 772 -52 c 0
 699 -52 631 -11 576 40 c 1
 519 -18 449 -50 378 -50 c 0
 221 -50 98 89 98 317 c 0
 98 619 304 853 499 993 c 1
 435 1045 375 1088 331 1117 c 0
 313 1129 304 1149 304 1169 c 0
EndSplineSet
PairPos2: "'kern' Horizontal Kerning in Arabic lookup 3 per glyph data 1" uni06F2 dx=-22 dy=0 dh=-22 dv=0 dx=0 dy=0 dh=0 dv=0
PairPos2: "'kern' Horizontal Kerning in Arabic lookup 3 per glyph data 1" uni06F3 dx=-22 dy=0 dh=-22 dv=0 dx=0 dy=0 dh=0 dv=0
PairPos2: "'kern' Horizontal Kerning in Arabic lookup 3 per glyph data 1" uni06F7 dx=-89 dy=0 dh=-89 dv=0 dx=0 dy=0 dh=0 dv=0
PairPos2: "'kern' Horizontal Kerning in Arabic lookup 3 per glyph data 1" uni06F9 dx=-67 dy=0 dh=-67 dv=0 dx=0 dy=0 dh=0 dv=0
Colour: ffff
EndChar

StartChar: uni06F6
Encoding: 1782 1782 292
Width: 976
VWidth: 2370
Flags: HMW
LayerCount: 2
Fore
SplineSet
745 1136 m 0
 745 1100 715 1074 683 1074 c 0
 670 1074 657 1078 646 1086 c 0
 597 1122 548 1136 501 1136 c 0
 360 1136 222 997 222 839 c 0
 222 694 352 618 528 618 c 0
 626 618 709 643 792 678 c 0
 800 681 807 682 815 682 c 0
 846 682 878 659 878 622 c 0
 878 597 862 573 844 564 c 0
 559 420 382 229 241 -30 c 0
 230 -51 208 -62 186 -62 c 0
 149 -62 124 -31 124 0 c 0
 124 10 126 21 131 30 c 0
 229 210 347 364 504 493 c 1
 311 500 98 601 98 839 c 0
 98 1063 284 1262 501 1262 c 0
 574 1262 651 1238 720 1186 c 0
 736 1174 745 1155 745 1136 c 0
EndSplineSet
Colour: ffff
EndChar

StartChar: uni066B
Encoding: 1643 1643 296
Width: 454
VWidth: 1823
Flags: HMW
LayerCount: 2
Fore
SplineSet
355 566 m 0
 393 566 416 534 416 503 c 0
 416 495 414 487 411 479 c 2
 29 -408 l 2
 19 -431 -5 -445 -29 -445 c 0
 -67 -445 -90 -413 -90 -382 c 0
 -90 -374 -88 -366 -85 -358 c 2
 297 529 l 2
 307 552 331 566 355 566 c 0
EndSplineSet
PairPos2: "'kern' Horizontal Kerning in Arabic lookup 3 per glyph data 1" uni06F7 dx=-89 dy=0 dh=-89 dv=0 dx=0 dy=0 dh=0 dv=0
PairPos2: "'kern' Horizontal Kerning in Arabic lookup 3 per glyph data 1" uni06F0 dx=-45 dy=0 dh=-45 dv=0 dx=0 dy=0 dh=0 dv=0
PairPos2: "'kern' Horizontal Kerning in Arabic lookup 3 per glyph data 1" uni06F3 dx=-67 dy=0 dh=-67 dv=0 dx=0 dy=0 dh=0 dv=0
PairPos2: "'kern' Horizontal Kerning in Arabic lookup 3 per glyph data 1" uni06F2 dx=-89 dy=0 dh=-89 dv=0 dx=0 dy=0 dh=0 dv=0
PairPos2: "'kern' Horizontal Kerning in Arabic lookup 3 per glyph data 0" uni0663 dx=-134 dy=0 dh=-134 dv=0 dx=0 dy=0 dh=0 dv=0
PairPos2: "'kern' Horizontal Kerning in Arabic lookup 3 per glyph data 0" uni0662 dx=-89 dy=0 dh=-89 dv=0 dx=0 dy=0 dh=0 dv=0
PairPos2: "'kern' Horizontal Kerning in Arabic lookup 3 per glyph data 1" uni066B dx=-45 dy=0 dh=-45 dv=0 dx=0 dy=0 dh=0 dv=0
PairPos2: "'kern' Horizontal Kerning in Arabic lookup 3 per glyph data 0" uni0667 dx=-89 dy=0 dh=-89 dv=0 dx=0 dy=0 dh=0 dv=0
Colour: ffff
EndChar

StartChar: uni060C
Encoding: 1548 1548 298
Width: 644
VWidth: 1839
Flags: HMW
LayerCount: 2
Fore
SplineSet
237 331 m 1
 267 357 305 367 335 367 c 0
 447 367 504 258 504 168 c 0
 504 78 453 -25 335 -25 c 0
 217 -25 140 69 140 204 c 0
 140 239 144 273 150 307 c 0
 173 434 237 550 323 633 c 0
 331 641 340 644 349 644 c 0
 371 644 391 624 391 602 c 0
 391 593 388 583 379 575 c 0
 314 512 262 426 237 331 c 1
223 253 m 1
 221 237 220 220 220 204 c 0
 220 99 269 55 335 55 c 0
 393 55 424 100 424 168 c 0
 424 234 383 287 335 287 c 0
 315 287 291 276 284 264 c 0
 276 250 263 243 249 243 c 0
 240 243 230 247 223 253 c 1
EndSplineSet
Colour: ffff00
EndChar

StartChar: quoteleft
Encoding: 8216 8216 300
Width: 644
VWidth: 1424
Flags: HMW
LayerCount: 2
Fore
SplineSet
237 1098 m 1
 262 1003 314 917 379 854 c 0
 388 846 391 836 391 827 c 0
 391 805 371 785 349 785 c 0
 340 785 331 788 323 796 c 0
 237 879 173 995 150 1122 c 0
 144 1156 140 1190 140 1225 c 0
 140 1360 217 1454 335 1454 c 0
 453 1454 504 1351 504 1261 c 0
 504 1171 447 1062 335 1062 c 0
 305 1062 267 1072 237 1098 c 1
223 1176 m 1
 230 1182 240 1185 249 1185 c 0
 263 1185 276 1179 284 1165 c 0
 291 1153 315 1142 335 1142 c 0
 383 1142 424 1195 424 1261 c 0
 424 1329 393 1374 335 1374 c 0
 269 1374 220 1330 220 1225 c 0
 220 1209 221 1192 223 1176 c 1
EndSplineSet
Colour: ffff00
EndChar

StartChar: uni061F
Encoding: 1567 1567 311
Width: 925
VWidth: 0
Flags: HMW
LayerCount: 2
Fore
SplineSet
390 89 m 0
 390 146 436 196 497 196 c 0
 556 196 604 148 604 89 c 0
 604 28 555 -18 497 -18 c 0
 438 -18 390 30 390 89 c 0
728 846 m 0
 691 846 666 877 666 909 c 0
 666 920 668 930 674 940 c 0
 685 959 702 1018 702 1066 c 0
 702 1178 627 1254 527 1254 c 0
 332 1254 222 1090 222 983 c 0
 222 932 284 867 374 790 c 0
 473 705 572 609 572 466 c 0
 572 432 544 404 509 404 c 0
 476 404 448 431 447 464 c 0
 445 547 392 610 292 696 c 0
 212 765 98 852 98 983 c 0
 98 1158 258 1378 527 1378 c 0
 699 1378 828 1240 828 1066 c 0
 828 996 810 924 782 876 c 0
 770 856 750 846 728 846 c 0
EndSplineSet
Colour: ffff
EndChar

StartChar: section
Encoding: 167 167 313
Width: 916
VWidth: 2426
Flags: HMW
LayerCount: 2
Fore
SplineSet
822 1159 m 0
 822 1127 797 1097 760 1097 c 0
 731 1097 705 1117 699 1146 c 0
 680 1233 590 1284 472 1284 c 0
 346 1284 231 1192 222 1101 c 1
 224 977 316 951 476 934 c 0
 625 918 828 841 828 632 c 0
 828 530 770 474 696 442 c 1
 771 392 828 316 828 209 c 0
 828 1 596 -48 457 -48 c 0
 311 -48 196 6 111 74 c 0
 96 86 88 104 88 123 c 0
 88 158 117 185 150 185 c 0
 164 185 178 181 189 172 c 0
 257 118 343 78 457 78 c 0
 598 78 704 129 704 209 c 0
 704 314 568 390 437 403 c 0
 301 417 96 474 96 673 c 0
 96 763 151 829 226 872 c 1
 152 914 96 984 96 1104 c 0
 96 1105 97 1107 97 1109 c 0
 112 1289 299 1408 472 1408 c 0
 618 1408 784 1341 821 1172 c 0
 822 1168 822 1163 822 1159 c 0
446 528 m 1
 599 528 704 561 704 632 c 0
 704 734 602 794 466 809 c 1
 326 808 220 726 220 673 c 0
 220 590 310 542 446 528 c 1
EndSplineSet
Colour: ffff
EndChar

StartChar: uni00B2
Encoding: 178 178 314
Width: 718
VWidth: 2426
Flags: HMW
LayerCount: 2
Fore
SplineSet
180 1258 m 0
 158 1258 140 1276 140 1298 c 0
 140 1410 218 1517 343 1517 c 0
 453 1517 528 1430 528 1327 c 0
 528 1195 452 1121 366 1038 c 2
 292 967 l 1
 536 980 l 2
 537 980 538 980 539 980 c 0
 564 980 577 960 577 940 c 0
 577 921 565 901 540 900 c 2
 189 881 l 1
 187 881 l 2
 165 881 147 900 147 921 c 0
 147 931 151 942 159 950 c 2
 310 1096 l 2
 398 1181 448 1231 448 1327 c 0
 448 1392 407 1437 343 1437 c 0
 270 1437 220 1376 220 1298 c 0
 220 1276 202 1258 180 1258 c 0
EndSplineSet
Colour: ffff00
EndChar

StartChar: uni00B3
Encoding: 179 179 315
Width: 664
VWidth: 2426
Flags: HMW
LayerCount: 2
Fore
SplineSet
444 1075 m 0
 441 1121 406 1149 343 1149 c 0
 314 1149 284 1137 258 1137 c 0
 233 1137 220 1157 220 1177 c 0
 220 1194 229 1211 249 1216 c 0
 321 1233 428 1263 428 1326 c 0
 428 1377 388 1419 343 1419 c 0
 293 1419 258 1383 248 1339 c 0
 243 1318 227 1309 211 1309 c 0
 190 1309 169 1324 169 1348 c 0
 169 1351 169 1354 170 1357 c 0
 186 1431 251 1499 343 1499 c 0
 438 1499 508 1417 508 1326 c 0
 508 1273 479 1233 443 1206 c 1
 489 1182 522 1137 524 1077 c 0
 524 952 420 880 310 880 c 0
 256 880 199 897 155 933 c 0
 145 941 140 952 140 962 c 0
 140 983 159 1004 181 1004 c 0
 189 1004 197 1001 205 995 c 0
 233 973 272 960 310 960 c 0
 388 960 443 1004 444 1075 c 0
EndSplineSet
Colour: ffff00
EndChar

StartChar: eth
Encoding: 240 240 316
Width: 1089
VWidth: 2426
Flags: HMW
LayerCount: 2
Fore
SplineSet
195 1421 m 0
 195 1459 227 1482 258 1482 c 0
 265 1482 272 1481 279 1478 c 0
 387 1437 480 1386 560 1330 c 1
 661 1393 758 1444 823 1465 c 0
 829 1467 836 1468 842 1468 c 0
 873 1468 905 1444 905 1406 c 0
 905 1380 887 1355 861 1347 c 0
 819 1333 747 1294 666 1245 c 1
 919 1015 1002 721 1002 525 c 0
 1002 169 787 -48 523 -48 c 0
 276 -48 88 175 88 427 c 0
 88 692 288 916 565 916 c 0
 599 916 628 888 628 854 c 0
 628 820 599 792 565 792 c 0
 361 792 212 630 212 427 c 0
 212 233 356 78 523 78 c 0
 709 78 876 221 876 525 c 0
 876 696 802 967 556 1175 c 1
 435 1095 319 1007 274 958 c 0
 262 945 245 938 228 938 c 0
 193 938 166 967 166 1000 c 0
 166 1015 171 1030 182 1042 c 0
 234 1099 335 1180 446 1256 c 1
 384 1296 314 1332 235 1362 c 0
 210 1371 195 1396 195 1421 c 0
EndSplineSet
Colour: ffff
EndChar

StartChar: uni06DD
Encoding: 1757 1757 327
Width: 2048
VWidth: 0
LayerCount: 2
Back
SplineSet
236 -240 m 0
 1971 -240 l 1032
933 -410 m 0
 933 -316 1009 -240 1103 -240 c 0
 1197 -240 1273 -316 1273 -410 c 0
 1273 -504 1197 -580 1103 -580 c 0
 1009 -580 933 -504 933 -410 c 0
1103 -580 m 1024
427 -580 m 0
 1779 -580 l 1024
933 -750 m 0
 933 -656 1009 -580 1103 -580 c 0
 1197 -580 1273 -656 1273 -750 c 0
 1273 -844 1197 -920 1103 -920 c 0
 1009 -920 933 -844 933 -750 c 0
156 213 m 0
 156 838 580 1346 1103 1346 c 0
 1626 1346 2050 838 2050 213 c 0
 2050 -412 1626 -920 1103 -920 c 0
 580 -920 156 -412 156 213 c 0
EndSplineSet
EndChar

StartChar: uni06DE
Encoding: 1758 1758 328
Width: 2048
VWidth: 0
LayerCount: 2
Back
SplineSet
888 716 m 4
 888 860 1004 976 1148 976 c 4
 1292 976 1408 860 1408 716 c 4
 1408 572 1292 456 1148 456 c 4
 1004 456 888 572 888 716 c 4
1136 1694 m 5
 2134 696 l 5
 1144 -294 l 5
 146 704 l 5
 1136 1694 l 5
434 1400 m 5
 1846 1400 l 5
 1846 0 l 5
 434 0 l 5
 434 1400 l 5
EndSplineSet
EndChar

StartChar: uniE008
Encoding: 57352 57352 329
Width: 250
VWidth: 1437
Flags: HMW
LayerCount: 2
Fore
SplineSet
-62 45 m 0
 -62 79 -34 108 0 108 c 2
 250 108 l 2
 284 108 312 79 312 45 c 0
 312 11 284 -18 250 -18 c 2
 0 -18 l 2
 -34 -18 -62 11 -62 45 c 0
EndSplineSet
Colour: ffff
EndChar

StartChar: uniE009
Encoding: 57353 57353 330
Width: 150
VWidth: 1437
Flags: HMW
LayerCount: 2
Fore
SplineSet
-62 45 m 0
 -62 79 -34 108 0 108 c 2
 150 108 l 2
 184 108 212 79 212 45 c 0
 212 11 184 -18 150 -18 c 2
 0 -18 l 2
 -34 -18 -62 11 -62 45 c 0
EndSplineSet
Colour: ffff
EndChar

StartChar: underscore
Encoding: 95 95 331
Width: 600
VWidth: 1823
Flags: HMW
LayerCount: 2
Fore
SplineSet
662 45 m 0
 662 11 634 -18 600 -18 c 2
 0 -18 l 2
 -34 -18 -62 11 -62 45 c 0
 -62 79 -34 108 0 108 c 2
 600 108 l 2
 634 108 662 79 662 45 c 0
EndSplineSet
Colour: ffff
EndChar

StartChar: seven
Encoding: 55 55 332
Width: 1080
VWidth: 2426
Flags: HMW
LayerCount: 2
Fore
SplineSet
542 -62 m 0
 505 -62 480 -32 480 0 c 0
 480 3 479 7 480 10 c 0
 555 468 662 859 849 1232 c 0
 853 1240 856 1248 857 1257 c 1
 854 1257 848 1258 843 1258 c 0
 826 1258 812 1255 797 1254 c 2
 165 1203 l 1
 160 1203 l 2
 127 1203 98 1229 98 1265 c 0
 98 1297 123 1324 155 1327 c 2
 784 1378 l 2
 806 1382 824 1382 843 1382 c 0
 875 1382 923 1380 957 1339 c 0
 975 1318 982 1291 982 1265 c 0
 982 1235 975 1205 961 1176 c 0
 782 817 677 440 604 -10 c 0
 599 -40 572 -62 542 -62 c 0
EndSplineSet
Colour: ffff
EndChar

StartChar: nine
Encoding: 57 57 333
Width: 1208
VWidth: 2426
Flags: HMW
LayerCount: 2
Fore
SplineSet
575 544 m 0
 687 544 794 573 878 616 c 1
 889 671 896 737 896 795 c 0
 896 1135 723 1250 556 1250 c 0
 347 1250 222 1081 222 886 c 0
 222 635 385 544 575 544 c 0
1046 721 m 0
 1079 721 1111 694 1111 660 c 0
 1111 643 1104 627 1091 614 c 0
 1060 584 1025 557 987 534 c 1
 920 282 764 46 514 -62 c 0
 506 -65 498 -67 490 -67 c 0
 459 -67 427 -44 427 -6 c 0
 427 18 441 42 464 52 c 0
 636 126 761 282 832 461 c 1
 753 435 666 420 575 420 c 0
 339 420 98 555 98 886 c 0
 98 1133 265 1376 556 1376 c 0
 799 1376 1022 1187 1022 795 c 0
 1022 768 1020 741 1018 714 c 1
 1027 719 1036 721 1046 721 c 0
EndSplineSet
Colour: ffff
EndChar

StartChar: uniFD3E
Encoding: 64830 64830 334
Width: 866
VWidth: 0
Flags: HMW
LayerCount: 2
Fore
SplineSet
569 1430 m 0
 606 1430 630 1398 630 1367 c 0
 630 1358 628 1349 624 1340 c 0
 545 1180 496 1037 474 881 c 1
 519 909 572 926 629 926 c 0
 715 926 778 858 778 774 c 0
 778 686 693 656 637 642 c 1
 668 616 696 576 696 524 c 0
 696 505 693 486 684 469 c 0
 652 408 589 404 562 404 c 0
 559 404 556 404 554 404 c 0
 529 404 505 409 483 417 c 1
 509 266 556 111 624 -28 c 0
 628 -37 630 -46 630 -55 c 0
 630 -86 606 -118 569 -118 c 0
 546 -118 523 -106 512 -84 c 0
 437 69 386 238 359 403 c 1
 325 381 283 368 237 368 c 0
 177 368 128 415 128 476 c 0
 128 549 160 608 207 648 c 1
 148 677 88 731 88 819 c 0
 88 844 95 868 109 887 c 0
 144 935 199 942 234 942 c 0
 280 942 320 928 352 907 c 1
 377 1075 430 1230 512 1396 c 0
 523 1418 546 1430 569 1430 c 0
327 738 m 1
 310 789 286 816 234 816 c 0
 226 816 217 815 213 814 c 1
 216 785 248 757 327 738 c 1
337 581 m 1
 284 558 260 532 254 494 c 1
 296 500 324 525 337 581 c 1
488 581 m 1
 505 541 518 530 554 530 c 0
 559 530 565 530 570 531 c 1
 565 542 535 566 488 581 c 1
506 747 m 1
 575 756 636 769 653 780 c 1
 651 795 647 800 629 800 c 0
 577 800 537 780 506 747 c 1
EndSplineSet
Colour: ffff
EndChar

StartChar: uniFD3F
Encoding: 64831 64831 335
Width: 861
VWidth: 0
Flags: HMW
LayerCount: 2
Fore
SplineSet
228 1367 m 0
 228 1398 252 1430 289 1430 c 0
 312 1430 335 1418 346 1396 c 0
 431 1224 484 1064 508 890 c 1
 542 912 584 926 630 926 c 0
 690 926 774 884 774 792 c 0
 774 713 721 662 667 638 c 1
 704 603 730 552 730 493 c 0
 730 470 723 448 712 430 c 0
 681 380 628 368 593 368 c 0
 558 368 525 378 498 394 c 1
 471 230 421 68 346 -84 c 0
 335 -106 313 -118 290 -118 c 0
 253 -118 228 -86 228 -55 c 0
 228 -46 230 -37 234 -28 c 0
 300 105 346 247 372 390 c 1
 351 383 329 378 305 378 c 0
 244 378 168 434 168 526 c 0
 168 576 193 617 224 644 c 1
 168 660 88 694 88 781 c 0
 88 872 164 936 247 936 c 0
 298 936 344 922 382 898 c 1
 359 1047 310 1185 234 1340 c 0
 230 1349 228 1358 228 1367 c 0
386 585 m 1
 312 566 292 539 292 526 c 0
 292 517 300 508 309 504 c 1
 346 505 370 527 386 585 c 1
361 746 m 1
 333 789 298 812 247 812 c 0
 227 812 214 797 213 784 c 1
 225 774 291 755 361 746 c 1
532 732 m 1
 625 745 648 764 648 792 c 1
 648 792 648 800 630 800 c 0
 585 800 554 777 532 732 c 1
519 584 m 1
 519 579 518 573 518 568 c 0
 533 516 561 494 593 494 c 0
 595 494 600 494 604 496 c 1
 603 533 581 560 519 584 c 1
EndSplineSet
Colour: ffff
EndChar

StartChar: dollar
Encoding: 36 36 336
Width: 1182
VWidth: 1823
Flags: HMW
LayerCount: 2
Fore
SplineSet
575 1682 m 0
 609 1682 638 1653 638 1619 c 2
 638 -142 l 2
 638 -176 609 -204 575 -204 c 0
 541 -204 512 -176 512 -142 c 2
 512 1619 l 2
 512 1653 541 1682 575 1682 c 0
EndSplineSet
Refer: 31 83 N 1 0 0 1 0 0 2
Colour: ffff
EndChar

StartChar: ampersand
Encoding: 38 38 337
Width: 1194
VWidth: 2426
Flags: HMW
LayerCount: 2
Fore
SplineSet
383 598 m 1
 281 542 222 482 222 364 c 0
 222 182 369 78 549 78 c 0
 642 78 742 101 822 140 c 1
 674 268 508 428 383 598 c 1
426 758 m 1
 445 766 465 775 484 783 c 0
 666 861 800 922 800 1095 c 0
 800 1223 694 1298 569 1298 c 0
 440 1298 320 1217 320 1063 c 0
 320 972 358 867 426 758 c 1
926 1095 m 0
 926 816 679 730 499 653 c 1
 620 493 784 336 928 213 c 1
 946 231 960 250 970 269 c 0
 981 290 1003 302 1026 302 c 0
 1063 302 1087 271 1087 240 c 0
 1087 230 1085 220 1080 211 c 0
 1065 183 1046 156 1024 133 c 1
 1051 111 1096 89 1096 45 c 0
 1096 10 1067 -17 1034 -17 c 0
 1020 -17 1006 -13 995 -4 c 0
 973 14 949 33 924 53 c 1
 816 -13 680 -48 549 -48 c 0
 323 -48 98 96 98 364 c 0
 98 535 199 637 314 703 c 1
 243 820 194 941 194 1063 c 0
 194 1299 390 1424 569 1424 c 0
 740 1424 926 1309 926 1095 c 0
EndSplineSet
Colour: ffff
EndChar

StartChar: question
Encoding: 63 63 338
Width: 975
VWidth: 0
Flags: HMW
LayerCount: 2
Fore
SplineSet
546 89 m 0
 546 30 499 -18 440 -18 c 0
 383 -18 332 28 332 89 c 0
 332 148 381 196 440 196 c 0
 501 196 546 147 546 89 c 0
269 923 m 0
 269 892 244 861 207 861 c 0
 184 861 162 873 151 894 c 0
 115 963 98 1032 98 1097 c 0
 98 1297 268 1424 491 1424 c 0
 716 1424 878 1270 878 1058 c 0
 878 888 740 779 633 690 c 0
 529 603 502 578 502 469 c 0
 502 452 510 434 510 417 c 0
 510 386 486 355 448 355 c 0
 393 355 376 415 376 469 c 0
 376 624 447 697 553 786 c 0
 668 881 752 962 752 1058 c 0
 752 1198 656 1298 491 1298 c 0
 310 1298 222 1211 222 1097 c 0
 222 1056 235 1007 263 952 c 0
 268 943 269 933 269 923 c 0
EndSplineSet
Colour: ffff
EndChar

StartChar: at
Encoding: 64 64 339
Width: 2213
VWidth: 2426
Flags: HMW
LayerCount: 2
Fore
SplineSet
1421 781 m 1
 1333 836 1241 862 1152 862 c 0
 934 862 730 676 730 372 c 0
 730 199 844 78 1021 78 c 0
 1246 78 1348 281 1375 463 c 2
 1421 781 l 1
1620 -262 m 0
 1652 -262 1682 -287 1682 -324 c 0
 1682 -345 1672 -365 1653 -377 c 0
 1501 -472 1321 -528 1129 -528 c 0
 588 -528 138 -152 138 400 c 0
 138 946 611 1458 1162 1458 c 0
 1655 1458 2076 1072 2076 564 c 0
 2076 338 1961 -36 1674 -36 c 0
 1545 -36 1453 61 1406 177 c 1
 1332 53 1210 -48 1021 -48 c 0
 776 -48 606 135 606 372 c 0
 606 734 858 986 1152 986 c 0
 1278 986 1409 946 1526 862 c 0
 1543 850 1551 829 1551 810 c 2
 1551 802 l 1
 1500 450 l 1
 1500 422 1494 390 1494 362 c 0
 1494 218 1590 88 1674 88 c 0
 1831 88 1950 344 1950 564 c 0
 1950 998 1591 1332 1162 1332 c 0
 687 1332 262 880 262 400 c 0
 262 -74 644 -402 1129 -402 c 0
 1297 -402 1453 -354 1587 -271 c 0
 1597 -265 1609 -262 1620 -262 c 0
EndSplineSet
Colour: ffff
EndChar

StartChar: b
Encoding: 98 98 340
Width: 1163
VWidth: 1823
Flags: HMW
LayerCount: 2
Fore
SplineSet
242 1423 m 0
 277 1423 305 1393 304 1359 c 2
 289 886 l 1
 367 1006 489 1064 651 1064 c 0
 947 1064 1066 757 1066 495 c 0
 1066 199 829 -48 515 -48 c 0
 463 -48 409 -40 358 -27 c 0
 330 -20 312 5 312 33 c 0
 312 71 344 95 375 95 c 0
 380 95 385 94 390 93 c 0
 431 82 473 78 515 78 c 0
 761 78 940 267 940 495 c 0
 940 741 835 938 651 938 c 0
 346 938 295 712 262 42 c 0
 260 11 234 -17 200 -17 c 0
 165 -17 137 12 138 47 c 2
 180 1363 l 2
 181 1396 209 1423 242 1423 c 0
EndSplineSet
Colour: ffff
EndChar

StartChar: d
Encoding: 100 100 341
Width: 1197
VWidth: 2426
Flags: HMW
LayerCount: 2
Fore
SplineSet
1079 45 m 0
 1079 12 1052 -17 1017 -17 c 0
 999 -17 981 -10 969 5 c 0
 932 50 912 102 901 172 c 1
 827 48 705 -48 534 -48 c 0
 254 -48 98 183 98 465 c 0
 98 735 258 1062 567 1062 c 0
 675 1062 787 1015 881 914 c 0
 887 907 892 898 895 889 c 1
 899 1047 904 1205 908 1363 c 0
 909 1397 937 1423 970 1423 c 0
 1006 1423 1033 1393 1032 1360 c 2
 1013 510 l 1
 1013 207 1024 135 1065 85 c 0
 1074 74 1079 59 1079 45 c 0
894 850 m 1
 886 827 862 809 835 809 c 0
 818 809 801 815 789 828 c 0
 715 907 639 936 567 936 c 0
 364 936 222 705 222 465 c 0
 222 225 340 78 534 78 c 0
 770 78 881 338 888 612 c 2
 894 850 l 1
EndSplineSet
Colour: ffff
EndChar

StartChar: h
Encoding: 104 104 342
Width: 1083
VWidth: 2426
Flags: HMW
LayerCount: 2
Fore
SplineSet
290 1433 m 0
 327 1433 354 1402 352 1367 c 2
 314 782 l 1
 386 933 494 1064 655 1064 c 0
 886 1064 946 799 946 609 c 0
 946 470 924 254 924 119 c 0
 924 70 928 37 933 25 c 0
 936 17 938 9 938 1 c 0
 938 -30 915 -62 877 -62 c 0
 801 -62 798 47 798 119 c 0
 798 254 820 471 820 609 c 0
 820 805 756 938 655 938 c 0
 429 938 288 381 262 -4 c 0
 260 -36 233 -62 200 -62 c 0
 164 -62 136 -32 138 4 c 2
 228 1375 l 2
 230 1408 258 1433 290 1433 c 0
EndSplineSet
Colour: ffff
EndChar

StartChar: k
Encoding: 107 107 345
Width: 1019
VWidth: 2426
Flags: HMW
LayerCount: 2
Fore
SplineSet
260 1423 m 0
 296 1423 324 1393 322 1358 c 2
 291 642 l 1
 458 741 615 875 726 1011 c 0
 738 1026 756 1033 774 1033 c 0
 809 1033 836 1004 836 971 c 0
 836 957 831 942 822 931 c 0
 695 776 520 628 330 520 c 1
 489 349 700 166 891 54 c 0
 911 42 921 22 921 -0 c 0
 921 -37 891 -62 859 -62 c 0
 848 -62 837 -60 827 -54 c 0
 638 57 440 226 280 391 c 1
 262 1 l 2
 261 -32 233 -58 200 -58 c 0
 164 -58 136 -28 138 7 c 2
 198 1364 l 2
 199 1397 227 1423 260 1423 c 0
EndSplineSet
Colour: ffff
EndChar

StartChar: l
Encoding: 108 108 346
Width: 419
VWidth: 2426
Flags: HMW
LayerCount: 2
Fore
SplineSet
219 1412 m 0
 254 1412 281 1383 281 1350 c 0
 281 1014 263 413 263 18 c 0
 263 12 263 6 263 0 c 0
 263 -34 234 -62 200 -62 c 0
 155 -62 138 -27 138 19 c 0
 138 414 141 1013 157 1353 c 0
 159 1386 186 1412 219 1412 c 0
EndSplineSet
Colour: ffff
EndChar

StartChar: m
Encoding: 109 109 347
Width: 1562
VWidth: 2426
Flags: HMW
LayerCount: 2
Fore
SplineSet
187 988 m 2
 187 1020 213 1050 249 1050 c 0
 280 1050 307 1027 311 996 c 0
 313 983 314 970 315 956 c 1
 367 1020 444 1064 540 1064 c 0
 709 1064 794 954 826 829 c 1
 880 953 969 1064 1112 1064 c 0
 1344 1064 1420 833 1420 651 c 0
 1420 516 1404 302 1404 169 c 0
 1404 112 1410 61 1422 16 c 0
 1423 11 1425 5 1425 0 c 0
 1425 -31 1401 -62 1363 -62 c 0
 1335 -62 1309 -44 1302 -16 c 0
 1286 43 1280 104 1280 169 c 0
 1280 304 1294 516 1294 651 c 0
 1294 821 1232 938 1112 938 c 0
 1007 938 926 804 879 571 c 0
 864 494 852 412 844 332 c 1
 839 216 832 97 823 -5 c 0
 820 -37 793 -62 761 -62 c 0
 723 -62 699 -29 699 0 c 0
 699 91 708 213 720 340 c 0
 723 413 724 485 724 549 c 0
 724 778 710 938 540 938 c 0
 435 938 377 859 339 713 c 0
 321 646 310 570 302 496 c 2
 262 3 l 2
 259 -30 232 -54 200 -54 c 0
 164 -54 138 -24 138 8 c 2
 138 13 l 1
 171 438 l 2
 173 462 175 484 178 508 c 2
 180 531 l 2
 190 617 196 725 196 824 c 0
 196 883 193 937 187 980 c 1
 187 988 l 2
EndSplineSet
Colour: ffff
EndChar

StartChar: n
Encoding: 110 110 348
Width: 1083
VWidth: 2426
Flags: HMW
LayerCount: 2
Fore
SplineSet
258 1028 m 0
 295 1028 322 997 320 962 c 2
 307 731 l 1
 386 905 503 1062 681 1062 c 0
 917 1062 946 790 946 609 c 0
 946 471 924 254 924 119 c 0
 924 70 928 37 933 25 c 0
 936 17 938 9 938 1 c 0
 938 -30 915 -62 877 -62 c 0
 801 -62 798 47 798 119 c 0
 798 256 820 473 820 609 c 0
 820 814 777 938 681 938 c 0
 453 938 288 377 262 -4 c 0
 260 -35 233 -62 200 -62 c 0
 165 -62 136 -31 138 4 c 2
 196 970 l 2
 198 1003 226 1028 258 1028 c 0
EndSplineSet
Colour: ffff
EndChar

StartChar: p
Encoding: 112 112 349
Width: 1187
VWidth: 2426
Flags: HMW
LayerCount: 2
Fore
SplineSet
193 -495 m 0
 157 -495 129 -465 131 -430 c 2
 163 256 l 2
 164 273 165 290 166 307 c 0
 166 342 169 377 172 410 c 0
 176 479 178 543 178 603 c 0
 178 742 160 870 124 943 c 0
 120 952 118 961 118 970 c 0
 118 1001 143 1033 180 1033 c 0
 203 1033 225 1021 236 999 c 0
 265 940 282 868 292 791 c 1
 396 964 549 1064 698 1064 c 0
 916 1064 1090 873 1090 568 c 0
 1090 307 921 -48 436 -48 c 0
 402 -48 374 -19 374 15 c 0
 374 49 402 78 436 78 c 0
 841 78 964 355 964 568 c 0
 964 827 830 938 698 938 c 0
 529 938 308 731 291 289 c 0
 291 277 288 263 287 250 c 2
 255 -436 l 2
 253 -469 226 -495 193 -495 c 0
EndSplineSet
Colour: ffff
EndChar

StartChar: q
Encoding: 113 113 350
Width: 1163
VWidth: 2426
Flags: HMW
LayerCount: 2
Fore
SplineSet
842 885 m 0
 842 852 815 823 780 823 c 0
 761 823 743 831 731 846 c 0
 688 900 623 938 532 938 c 0
 336 938 222 723 222 484 c 0
 222 236 307 76 490 76 c 0
 677 76 784 255 842 488 c 0
 862 569 875 652 884 728 c 1
 889 813 895 898 901 982 c 0
 903 1009 928 1039 963 1039 c 0
 997 1039 1025 1011 1025 977 c 0
 1025 911 1022 832 1009 718 c 1
 998 513 992 300 992 87 c 0
 992 -83 1003 -254 1003 -425 c 0
 1003 -458 975 -487 940 -487 c 0
 907 -487 879 -461 878 -428 c 0
 871 -256 866 -84 866 87 c 0
 866 125 867 163 867 201 c 1
 791 64 669 -48 490 -48 c 0
 199 -48 98 222 98 484 c 0
 98 741 224 1064 532 1064 c 0
 661 1064 764 1006 829 924 c 0
 838 913 842 899 842 885 c 0
EndSplineSet
Colour: ffff
EndChar

StartChar: r
Encoding: 114 114 351
Width: 905
VWidth: 2426
Flags: HMW
LayerCount: 2
Fore
SplineSet
745 1053 m 0
 777 1053 807 1028 807 991 c 0
 807 962 787 936 757 930 c 0
 488 878 385 704 330 441 c 0
 303 311 291 140 276 -7 c 0
 273 -36 247 -62 214 -62 c 0
 180 -62 152 -34 152 0 c 0
 152 54 160 110 165 162 c 0
 173 277 178 406 178 532 c 0
 178 704 165 867 140 953 c 0
 138 959 138 965 138 971 c 0
 138 1002 162 1033 200 1033 c 0
 227 1033 252 1016 260 989 c 0
 280 921 292 833 298 734 c 1
 380 893 517 1010 733 1052 c 0
 737 1053 741 1053 745 1053 c 0
EndSplineSet
Colour: ffff
EndChar

StartChar: u
Encoding: 117 117 352
Width: 1083
VWidth: 2426
Flags: HMW
LayerCount: 2
Fore
SplineSet
925 971 m 0
 925 869 916 748 916 639 c 0
 916 436 926 241 945 54 c 0
 945 52 946 50 946 48 c 0
 946 15 919 -14 883 -14 c 0
 852 -14 824 10 821 42 c 0
 816 92 812 144 808 196 c 1
 749 63 648 -48 490 -48 c 0
 138 -48 138 352 138 584 c 0
 138 747 162 869 187 984 c 0
 193 1013 219 1033 248 1033 c 0
 285 1033 310 1003 310 971 c 0
 310 967 310 962 309 958 c 0
 284 845 262 735 262 584 c 0
 262 312 282 78 490 78 c 0
 638 78 724 250 765 514 c 0
 789 667 792 813 801 974 c 0
 803 1004 829 1033 863 1033 c 0
 897 1033 925 1005 925 971 c 0
EndSplineSet
Colour: ffff
EndChar

StartChar: asciitilde
Encoding: 126 126 353
Width: 870
VWidth: 2426
Flags: HMW
LayerCount: 2
Fore
SplineSet
115 1090 m 0
 77 1090 53 1121 53 1152 c 0
 53 1158 54 1166 56 1172 c 0
 88 1269 162 1354 279 1354 c 0
 368 1354 435 1313 487 1275 c 0
 530 1244 563 1226 602 1226 c 0
 624 1226 661 1243 705 1343 c 0
 715 1366 739 1380 763 1380 c 0
 801 1380 824 1348 824 1317 c 0
 824 1309 822 1301 819 1293 c 0
 770 1181 702 1102 602 1102 c 0
 521 1102 460 1140 413 1175 c 0
 367 1209 330 1228 279 1228 c 0
 232 1228 196 1199 174 1132 c 0
 165 1106 141 1090 115 1090 c 0
EndSplineSet
Colour: ffff
EndChar

StartChar: cent
Encoding: 162 162 356
Width: 1031
VWidth: 1823
Flags: HMW
LayerCount: 2
Fore
SplineSet
547 938 m 0
 513 938 484 967 484 1001 c 2
 484 1316 l 2
 484 1350 513 1378 547 1378 c 0
 581 1378 610 1350 610 1316 c 2
 610 1001 l 2
 610 967 581 938 547 938 c 0
547 -428 m 0
 513 -428 484 -399 484 -365 c 2
 484 15 l 2
 484 49 513 78 547 78 c 0
 581 78 610 49 610 15 c 2
 610 -365 l 2
 610 -399 581 -428 547 -428 c 0
EndSplineSet
Refer: 1 99 N 1 0 0 1 0 0 2
Colour: ffff
EndChar

StartChar: sterling
Encoding: 163 163 357
Width: 1454
VWidth: 2426
Flags: HMW
LayerCount: 2
Fore
SplineSet
349 740 m 0
 380 740 406 730 436 725 c 1
 436 976 l 2
 436 1158 442 1408 621 1408 c 0
 735 1408 788 1304 788 1196 c 0
 788 1162 760 1134 726 1134 c 0
 692 1134 664 1162 664 1196 c 0
 664 1276 637 1284 621 1284 c 0
 602 1284 562 1184 562 939 c 2
 562 716 l 1
 578 716 l 2
 687 716 797 729 887 746 c 0
 891 747 895 747 899 747 c 0
 931 747 962 722 962 685 c 0
 962 656 941 630 911 624 c 0
 815 605 697 590 578 590 c 0
 572 590 567 591 561 591 c 1
 558 426 542 267 475 151 c 1
 557 116 695 78 828 78 c 0
 1051 78 1218 136 1243 267 c 0
 1249 297 1275 317 1304 317 c 0
 1341 317 1367 287 1367 255 c 0
 1367 251 1367 247 1366 243 c 0
 1321 2 1047 -48 828 -48 c 0
 670 -48 519 -4 423 37 c 0
 410 42 398 47 385 51 c 1
 340 20 286 4 225 4 c 0
 158 4 88 39 88 110 c 0
 88 190 170 206 219 206 c 0
 258 206 304 202 352 191 c 1
 409 267 430 422 435 599 c 1
 374 606 287 611 287 678 c 0
 287 715 317 740 349 740 c 0
EndSplineSet
Colour: ffff
EndChar

StartChar: currency
Encoding: 164 164 358
Width: 1109
VWidth: 1823
Flags: HMW
LayerCount: 2
Fore
SplineSet
251 218 m 0
 286 218 313 188 313 155 c 0
 313 140 308 125 297 113 c 2
 197 3 l 2
 185 -10 168 -17 151 -17 c 0
 116 -17 89 12 89 45 c 0
 89 60 94 75 105 87 c 2
 204 197 l 2
 216 210 234 218 251 218 c 0
959 1032 m 0
 994 1032 1021 1003 1021 970 c 0
 1021 955 1016 941 1006 929 c 2
 905 815 l 2
 893 801 875 794 858 794 c 0
 823 794 796 823 796 856 c 0
 796 871 802 886 812 898 c 2
 912 1011 l 2
 924 1025 942 1032 959 1032 c 0
325 848 m 0
 325 815 297 786 263 786 c 0
 246 786 229 793 217 806 c 2
 104 928 l 2
 93 940 88 955 88 970 c 0
 88 1003 116 1032 150 1032 c 0
 167 1032 184 1025 196 1012 c 2
 309 890 l 2
 320 878 325 863 325 848 c 0
1021 45 m 0
 1021 12 994 -17 959 -17 c 0
 941 -17 924 -10 912 4 c 2
 792 142 l 2
 782 154 777 168 777 183 c 0
 777 216 804 246 839 246 c 0
 857 246 874 238 886 224 c 2
 1006 86 l 2
 1016 74 1021 60 1021 45 c 0
EndSplineSet
Refer: 5 111 N 1 0 0 1 0 0 2
Colour: ffff
EndChar

StartChar: brokenbar
Encoding: 166 166 360
Width: 419
VWidth: 2426
Flags: HMW
LayerCount: 2
Fore
SplineSet
219 559 m 0
 254 559 281 531 281 497 c 0
 281 316 272 144 264 -3 c 0
 262 -36 234 -62 201 -62 c 0
 166 -62 139 -33 139 0 c 0
 139 146 153 317 157 498 c 0
 158 532 186 559 219 559 c 0
200 833 m 0
 166 833 138 861 138 895 c 0
 138 1058 142 1216 142 1361 c 0
 142 1395 170 1424 204 1424 c 0
 238 1424 266 1395 266 1361 c 0
 266 1216 266 1057 263 894 c 0
 262 860 234 833 200 833 c 0
EndSplineSet
Colour: ffff
EndChar

StartChar: dieresis
Encoding: 168 168 361
Width: 688
VWidth: 1823
Flags: HMW
LayerCount: 2
Fore
SplineSet
185 1129 m 0
 139 1129 110 1172 110 1214 c 0
 110 1261 147 1298 194 1298 c 0
 236 1298 279 1269 279 1223 c 0
 279 1169 239 1129 185 1129 c 0
199 1217 m 0
 198 1218 196 1218 194 1218 c 0
 191 1218 190 1217 190 1214 c 0
 190 1212 190 1210 191 1209 c 0
 197 1210 198 1210 199 1217 c 0
409 1210 m 0
 409 1255 437 1298 486 1298 c 0
 538 1298 578 1259 578 1211 c 0
 578 1161 536 1129 493 1129 c 0
 444 1129 409 1170 409 1210 c 0
493 1209 m 2
 496 1209 498 1210 498 1211 c 0
 498 1213 498 1217 490 1218 c 1
 490 1217 489 1216 489 1213 c 0
 490 1211 493 1209 493 1209 c 2
EndSplineSet
Colour: ffff00
EndChar

StartChar: ordfeminine
Encoding: 170 170 363
Width: 936
VWidth: 2426
Flags: HMW
LayerCount: 2
Fore
SplineSet
634 1406 m 1
 646 1442 657 1498 695 1498 c 0
 716 1498 737 1481 737 1459 c 0
 737 1454 736 1448 733 1442 c 0
 708 1391 672 1246 672 1134 c 0
 672 1018 707 936 756 936 c 0
 778 936 796 918 796 896 c 0
 796 874 778 856 756 856 c 0
 675 856 633 915 612 984 c 1
 568 911 498 856 394 856 c 0
 240 856 140 992 140 1156 c 0
 140 1337 259 1499 437 1499 c 0
 519 1499 591 1469 634 1406 c 1
593 1176 m 0
 594 1193 596 1211 598 1228 c 2
 598 1247 l 2
 598 1376 535 1419 437 1419 c 0
 315 1419 220 1307 220 1156 c 0
 220 1020 296 936 394 936 c 0
 513 936 576 1051 593 1176 c 0
EndSplineSet
Colour: ffff00
EndChar

StartChar: logicalnot
Encoding: 172 172 364
Width: 975
VWidth: 1823
Flags: HMW
LayerCount: 2
Fore
SplineSet
88 661 m 0
 88 695 116 724 150 724 c 2
 795 724 l 2
 833 724 858 688 858 661 c 2
 858 388 l 2
 858 354 829 326 795 326 c 0
 761 326 732 354 732 388 c 2
 732 598 l 1
 150 598 l 2
 116 598 88 627 88 661 c 0
EndSplineSet
Colour: ffff
EndChar

StartChar: degree
Encoding: 176 176 368
Width: 830
VWidth: 2426
Flags: HMW
LayerCount: 2
Fore
SplineSet
690 1398 m 0
 690 1250 554 1129 400 1129 c 0
 261 1129 140 1250 140 1391 c 0
 140 1542 271 1679 414 1679 c 0
 568 1679 690 1542 690 1398 c 0
610 1398 m 0
 610 1500 520 1599 414 1599 c 0
 321 1599 220 1498 220 1391 c 0
 220 1296 307 1209 400 1209 c 0
 516 1209 610 1300 610 1398 c 0
EndSplineSet
Colour: ffff00
EndChar

StartChar: acute
Encoding: 180 180 369
Width: 522
VWidth: 2426
Flags: HMW
LayerCount: 2
Fore
SplineSet
362 1543 m 0
 397 1543 424 1514 424 1481 c 0
 424 1467 420 1453 411 1442 c 0
 336 1348 272 1264 217 1143 c 0
 207 1120 184 1107 160 1107 c 0
 122 1107 98 1139 98 1170 c 0
 98 1179 99 1187 103 1195 c 0
 164 1330 238 1426 313 1520 c 0
 325 1535 344 1543 362 1543 c 0
EndSplineSet
Colour: ffff
EndChar

StartChar: mu
Encoding: 181 181 370
Width: 1099
VWidth: 1823
Flags: HMW
LayerCount: 2
Fore
SplineSet
947 1015 m 0
 947 898 940 727 940 587 c 0
 940 401 943 226 961 54 c 0
 961 52 962 50 962 48 c 0
 962 15 935 -14 899 -14 c 0
 868 -14 840 10 837 42 c 0
 833 83 829 123 826 164 c 1
 764 44 662 -48 511 -48 c 0
 411 -48 330 -16 272 40 c 1
 281 -129 295 -296 310 -441 c 0
 310 -443 310 -445 310 -447 c 0
 310 -480 284 -509 248 -509 c 0
 217 -509 189 -485 186 -453 c 0
 162 -211 138 84 138 367 c 0
 138 421 140 477 143 533 c 0
 143 534 142 534 142 535 c 0
 142 658 164 789 185 895 c 0
 194 946 205 992 216 1032 c 0
 224 1059 250 1077 277 1077 c 0
 315 1077 338 1044 338 1014 c 0
 338 1009 338 1004 337 999 c 0
 302 863 278 695 268 529 c 1
 268 445 271 362 285 292 c 0
 312 156 365 78 511 78 c 0
 658 78 740 213 784 437 c 0
 800 518 810 606 815 693 c 1
 815 800 817 921 823 1019 c 0
 825 1045 849 1077 885 1077 c 0
 919 1077 947 1049 947 1015 c 0
EndSplineSet
Colour: ffff
EndChar

StartChar: paragraph
Encoding: 182 182 371
Width: 1319
VWidth: 2426
Flags: HMW
LayerCount: 2
Fore
SplineSet
1042 351 m 0
 1042 317 1017 295 986 285 c 1
 986 -442 l 2
 986 -476 957 -504 923 -504 c 0
 889 -504 860 -476 860 -442 c 2
 860 254 l 1
 823 248 787 246 750 246 c 0
 728 246 705 247 682 249 c 1
 682 -382 l 2
 682 -416 654 -444 620 -444 c 0
 586 -444 558 -416 558 -382 c 2
 558 272 l 1
 311 340 98 534 98 811 c 0
 98 1146 385 1408 715 1408 c 0
 927 1408 1093 1318 1206 1188 c 0
 1216 1176 1221 1162 1221 1147 c 0
 1221 1114 1194 1085 1159 1085 c 0
 1141 1085 1124 1092 1112 1106 c 0
 1019 1212 889 1284 715 1284 c 0
 449 1284 222 1072 222 811 c 0
 222 618 369 465 558 402 c 1
 558 1020 l 2
 558 1054 586 1082 620 1082 c 0
 654 1082 682 1054 682 1020 c 2
 682 374 l 1
 704 371 727 370 750 370 c 0
 787 370 824 374 860 381 c 1
 860 960 l 2
 860 994 889 1022 923 1022 c 0
 957 1022 986 994 986 960 c 2
 986 412 l 1
 1015 409 1042 386 1042 351 c 0
EndSplineSet
Colour: ffff
EndChar

StartChar: uni00B9
Encoding: 185 185 373
Width: 526
VWidth: 2426
Flags: HMW
LayerCount: 2
Fore
SplineSet
366 830 m 2
 365 806 346 794 327 794 c 0
 306 794 284 809 286 836 c 2
 320 1371 l 1
 274 1339 228 1313 175 1292 c 0
 170 1290 165 1289 160 1289 c 0
 137 1289 121 1310 121 1331 c 0
 121 1345 128 1359 145 1366 c 0
 218 1395 283 1439 339 1489 c 0
 345 1495 356 1499 366 1499 c 0
 389 1499 407 1479 406 1456 c 2
 366 830 l 2
EndSplineSet
Colour: ffff00
EndChar

StartChar: onequarter
Encoding: 188 188 375
Width: 2006
VWidth: 1839
Flags: HMW
LayerCount: 2
Fore
SplineSet
386 458 m 0
 349 458 322 489 324 524 c 2
 386 1473 l 1
 325 1422 260 1375 192 1335 c 0
 182 1329 172 1327 161 1327 c 0
 129 1327 98 1352 98 1389 c 0
 98 1411 109 1432 129 1443 c 0
 216 1494 304 1564 378 1633 c 0
 387 1642 405 1650 421 1650 c 2
 456 1650 l 2
 490 1650 520 1619 518 1583 c 2
 448 516 l 2
 446 483 418 458 386 458 c 0
1627 436 m 0
 1663 436 1689 407 1689 374 c 2
 1689 367 l 1
 1643 -39 l 1
 1707 -28 1770 -15 1831 -0 c 0
 1836 1 1841 1 1846 1 c 0
 1878 1 1909 -24 1909 -61 c 0
 1909 -89 1889 -115 1861 -122 c 0
 1786 -140 1707 -156 1628 -169 c 1
 1605 -372 l 2
 1601 -404 1574 -427 1543 -427 c 0
 1507 -427 1481 -398 1481 -365 c 2
 1481 -358 l 1
 1500 -186 l 1
 1419 -195 1337 -200 1255 -200 c 0
 1220 -200 1186 -200 1147 -194 c 0
 1119 -190 1064 -181 1037 -127 c 0
 1029 -112 1026 -95 1026 -78 c 0
 1026 -38 1043 -10 1055 7 c 0
 1226 256 1349 499 1466 787 c 0
 1476 811 1500 826 1525 826 c 0
 1563 826 1586 794 1586 763 c 0
 1586 755 1585 748 1582 741 c 0
 1463 447 1336 196 1157 -65 c 0
 1155 -67 1156 -68 1155 -69 c 1
 1187 -76 1219 -76 1255 -76 c 0
 1341 -76 1428 -70 1515 -59 c 1
 1565 381 l 2
 1569 413 1596 436 1627 436 c 0
485 -17 m 0
 451 -17 423 11 423 45 c 0
 423 60 429 76 440 88 c 0
 796 466 1239 1051 1457 1444 c 0
 1468 1464 1491 1476 1513 1476 c 0
 1550 1476 1574 1445 1574 1414 c 0
 1574 1404 1572 1393 1567 1384 c 0
 1341 977 894 388 530 2 c 0
 518 -11 502 -17 485 -17 c 0
EndSplineSet
Colour: ffff
EndChar

StartChar: onehalf
Encoding: 189 189 376
Width: 2060
VWidth: 2426
Flags: HMW
LayerCount: 2
Fore
SplineSet
386 458 m 0
 349 458 322 489 324 524 c 2
 386 1473 l 1
 325 1422 260 1375 192 1335 c 0
 182 1329 172 1327 161 1327 c 0
 129 1327 98 1352 98 1389 c 0
 98 1411 109 1432 129 1443 c 0
 216 1494 304 1564 378 1633 c 0
 387 1642 405 1650 421 1650 c 2
 456 1650 l 2
 490 1650 520 1619 518 1583 c 2
 448 516 l 2
 446 483 418 458 386 458 c 0
485 -17 m 0
 451 -17 423 11 423 45 c 0
 423 60 429 76 440 88 c 0
 797 466 1239 1050 1457 1444 c 0
 1468 1464 1491 1476 1513 1476 c 0
 1550 1476 1574 1445 1574 1414 c 0
 1574 1404 1572 1393 1567 1384 c 0
 1341 976 895 388 530 2 c 0
 518 -11 502 -17 485 -17 c 0
1293 308 m 0
 1259 308 1230 336 1230 370 c 0
 1230 574 1372 768 1597 768 c 0
 1799 768 1922 609 1922 424 c 0
 1922 179 1767 23 1576 -122 c 1
 1425 -259 l 1
 1485 -256 1544 -256 1604 -256 c 0
 1702 -256 1803 -260 1903 -265 c 0
 1936 -267 1963 -294 1963 -327 c 0
 1963 -362 1933 -389 1900 -389 c 0
 1899 -389 1898 -389 1897 -389 c 0
 1798 -384 1698 -380 1604 -380 c 0
 1486 -380 1371 -385 1255 -397 c 1
 1248 -397 l 2
 1214 -397 1187 -369 1187 -335 c 0
 1187 -318 1194 -301 1207 -289 c 2
 1494 -28 l 1
 1498 -24 l 1
 1687 118 1798 240 1798 424 c 0
 1798 555 1723 642 1597 642 c 0
 1454 642 1356 522 1356 370 c 0
 1356 336 1327 308 1293 308 c 0
EndSplineSet
Colour: ffff
EndChar

StartChar: threequarters
Encoding: 190 190 377
Width: 2156
VWidth: 1839
Flags: HMW
LayerCount: 2
Fore
SplineSet
214 1289 m 0
 177 1289 152 1319 152 1351 c 0
 152 1355 152 1361 153 1365 c 0
 189 1527 340 1622 479 1622 c 0
 623 1622 758 1515 758 1307 c 0
 758 1200 698 1120 625 1069 c 1
 716 1027 784 943 788 828 c 1
 788 668 694 558 567 507 c 1
 561 479 536 458 506 458 c 0
 487 458 470 466 459 479 c 1
 440 477 421 476 402 476 c 0
 302 476 199 509 120 574 c 0
 105 586 98 604 98 622 c 0
 98 657 127 684 160 684 c 0
 174 684 189 679 200 670 c 0
 254 625 330 600 402 600 c 0
 553 600 661 687 662 826 c 1
 658 919 584 978 464 978 c 0
 415 978 363 962 321 953 c 0
 317 952 311 952 307 952 c 0
 275 952 245 977 245 1014 c 0
 245 1072 305 1079 355 1090 c 0
 392 1100 428 1111 462 1124 c 0
 570 1167 632 1222 632 1307 c 0
 632 1453 557 1496 479 1496 c 0
 392 1496 297 1433 275 1337 c 0
 269 1308 243 1289 214 1289 c 0
1777 436 m 0
 1813 436 1839 407 1839 374 c 2
 1839 367 l 1
 1793 -39 l 1
 1857 -28 1920 -15 1981 -0 c 0
 1986 1 1991 1 1996 1 c 0
 2028 1 2059 -24 2059 -61 c 0
 2059 -89 2039 -115 2011 -122 c 0
 1936 -140 1857 -156 1778 -169 c 1
 1755 -372 l 2
 1751 -404 1724 -427 1693 -427 c 0
 1657 -427 1631 -398 1631 -365 c 2
 1631 -358 l 1
 1650 -186 l 1
 1569 -195 1487 -200 1405 -200 c 0
 1370 -200 1336 -200 1297 -194 c 0
 1269 -190 1214 -181 1187 -127 c 0
 1179 -112 1176 -95 1176 -78 c 0
 1176 -38 1193 -10 1205 7 c 0
 1376 256 1499 499 1616 787 c 0
 1626 811 1650 826 1675 826 c 0
 1713 826 1736 794 1736 763 c 0
 1736 755 1735 748 1732 741 c 0
 1613 447 1486 196 1307 -65 c 0
 1305 -67 1306 -68 1305 -69 c 1
 1337 -76 1369 -76 1405 -76 c 0
 1491 -76 1578 -70 1665 -59 c 1
 1715 381 l 2
 1719 413 1746 436 1777 436 c 0
635 -17 m 0
 601 -17 573 11 573 45 c 0
 573 60 579 76 590 88 c 0
 946 466 1389 1051 1607 1444 c 0
 1618 1464 1641 1476 1663 1476 c 0
 1700 1476 1724 1445 1724 1414 c 0
 1724 1404 1722 1393 1717 1384 c 0
 1491 977 1044 388 680 2 c 0
 668 -11 652 -17 635 -17 c 0
EndSplineSet
Colour: ffff
EndChar

StartChar: Eth
Encoding: 208 208 394
Width: 1341
VWidth: 1823
Flags: HMW
LayerCount: 2
Fore
SplineSet
706 729 m 0
 706 693 676 667 643 667 c 2
 638 667 l 1
 558 674 469 678 372 678 c 0
 287 678 194 675 94 667 c 1
 89 667 l 2
 56 667 27 693 27 729 c 0
 27 761 52 788 84 791 c 0
 187 799 283 803 372 803 c 0
 473 803 564 798 648 791 c 0
 680 788 706 761 706 729 c 0
EndSplineSet
Refer: 16 68 N 1 0 0 1 150 0 2
Colour: ffff
EndChar

StartChar: multiply
Encoding: 215 215 401
Width: 872
VWidth: 1823
Flags: HMW
LayerCount: 2
Fore
SplineSet
192 338 m 0
 157 338 130 367 130 400 c 0
 130 414 134 428 143 439 c 0
 213 527 283 608 357 687 c 1
 280 753 199 816 127 861 c 0
 108 873 98 893 98 914 c 0
 98 950 128 976 160 976 c 0
 171 976 183 973 193 967 c 0
 274 916 363 849 445 778 c 1
 508 841 573 902 641 964 c 0
 653 975 668 980 683 980 c 0
 716 980 745 953 745 918 c 0
 745 901 738 884 725 872 c 0
 660 813 597 754 537 694 c 1
 626 611 731 493 768 418 c 0
 772 409 774 400 774 391 c 0
 774 360 750 328 713 328 c 0
 690 328 667 340 656 362 c 0
 635 404 575 481 496 560 c 0
 482 574 466 589 450 604 c 1
 378 527 309 447 241 361 c 0
 229 346 211 338 192 338 c 0
EndSplineSet
Colour: ffff
EndChar

StartChar: germandbls
Encoding: 223 223 408
Width: 1124
VWidth: 2426
Flags: HMW
LayerCount: 2
Fore
SplineSet
200 -58 m 0
 165 -58 138 -29 138 4 c 0
 138 373 186 726 224 1019 c 0
 258 1282 386 1408 561 1408 c 0
 779 1408 894 1216 894 1060 c 0
 894 915 856 847 763 773 c 0
 711 731 674 673 674 619 c 0
 674 573 698 547 766 512 c 0
 871 459 1026 366 1026 182 c 0
 1026 9 817 -48 672 -48 c 0
 600 -48 527 -38 463 -2 c 0
 443 9 431 31 431 53 c 0
 431 90 462 115 494 115 c 0
 504 115 515 113 524 108 c 0
 560 88 614 76 672 76 c 0
 815 76 902 141 902 182 c 0
 902 284 815 347 710 400 c 0
 634 439 548 503 548 619 c 0
 548 727 615 815 685 871 c 0
 762 933 770 935 770 1060 c 0
 770 1166 693 1284 561 1284 c 0
 462 1284 378 1234 348 1003 c 0
 310 711 287 372 262 -0 c 0
 260 -33 232 -58 200 -58 c 0
EndSplineSet
Colour: ffff
EndChar

StartChar: ae
Encoding: 230 230 415
Width: 1885
VWidth: 2426
Flags: HMW
LayerCount: 2
Fore
SplineSet
1041 529 m 1
 1080 525 1116 522 1153 522 c 0
 1346 522 1630 631 1630 784 c 0
 1630 865 1549 938 1457 938 c 0
 1253 938 1085 751 1041 529 c 1
895 914 m 0
 895 879 866 852 833 852 c 0
 818 852 804 857 792 867 c 0
 743 911 671 938 604 938 c 0
 397 938 222 661 222 419 c 0
 222 231 349 78 529 78 c 0
 762 78 866 281 905 486 c 0
 929 613 959 832 976 963 c 0
 980 994 1007 1017 1038 1017 c 0
 1074 1017 1101 987 1101 955 c 0
 1101 952 1100 950 1100 947 c 0
 1098 932 1096 917 1094 900 c 1
 1187 999 1311 1064 1457 1064 c 0
 1607 1064 1756 947 1756 784 c 0
 1756 491 1342 398 1153 398 c 0
 1112 398 1071 400 1030 404 c 1
 1043 219 1186 78 1372 78 c 0
 1476 78 1592 145 1683 227 c 0
 1695 238 1710 243 1725 243 c 0
 1758 243 1787 216 1787 181 c 0
 1787 164 1780 147 1767 135 c 0
 1666 43 1526 -48 1372 -48 c 0
 1179 -48 1021 66 948 225 c 1
 875 82 742 -48 529 -48 c 0
 267 -48 98 177 98 419 c 0
 98 693 287 1064 604 1064 c 0
 703 1064 801 1025 874 961 c 0
 888 949 895 931 895 914 c 0
EndSplineSet
Colour: ffff
EndChar

StartChar: oslash
Encoding: 248 248 432
Width: 1144
VWidth: 1823
Flags: HMW
LayerCount: 2
Fore
SplineSet
160 -62 m 0
 124 -62 98 -32 98 0 c 0
 98 12 100 24 107 34 c 0
 347 405 654 789 941 1062 c 0
 953 1073 968 1079 984 1079 c 0
 1018 1079 1046 1051 1046 1017 c 0
 1046 1000 1040 984 1027 972 c 0
 750 709 447 329 213 -34 c 0
 201 -52 181 -62 160 -62 c 0
EndSplineSet
Refer: 5 111 N 1 0 0 1 26 0 2
Colour: ffff
EndChar

StartChar: thorn
Encoding: 254 254 438
Width: 1166
VWidth: 1823
Flags: HMW
LayerCount: 2
Fore
SplineSet
234 1423 m 0
 269 1423 297 1394 296 1360 c 2
 262 -366 l 2
 261 -400 234 -427 200 -427 c 0
 165 -427 137 -398 138 -364 c 2
 172 1362 l 2
 173 1396 200 1423 234 1423 c 0
EndSplineSet
Refer: 5 111 N 1 0 0 1 57 0 2
Colour: ffff
EndChar

StartChar: OE
Encoding: 338 338 440
Width: 2327
VWidth: 2426
Flags: HMW
LayerCount: 2
Fore
SplineSet
1075 1181 m 0
 1075 1149 1049 1119 1013 1119 c 0
 994 1119 975 1127 963 1144 c 0
 903 1226 815 1284 699 1284 c 0
 433 1284 222 974 222 643 c 0
 222 312 438 78 696 78 c 0
 1024 78 1164 326 1209 711 c 0
 1206 718 1206 725 1206 732 c 0
 1206 745 1209 757 1215 766 c 1
 1224 859 1228 959 1228 1065 c 0
 1228 1152 1221 1242 1221 1329 c 0
 1221 1366 1254 1391 1284 1391 c 2
 1291 1391 l 1
 1523 1360 1718 1334 1889 1334 c 0
 1977 1334 2057 1341 2134 1359 c 0
 2139 1360 2144 1360 2148 1360 c 0
 2180 1360 2211 1335 2211 1298 c 0
 2211 1270 2191 1244 2162 1237 c 0
 2073 1217 1983 1210 1889 1210 c 0
 1725 1210 1551 1230 1349 1257 c 1
 1351 1194 1352 1128 1352 1065 c 0
 1352 971 1350 877 1342 786 c 1
 1443 775 1573 766 1701 766 c 0
 1804 766 1906 771 1994 783 c 1
 2002 783 l 2
 2034 783 2065 757 2065 721 c 0
 2065 690 2041 663 2010 659 c 0
 1914 647 1808 642 1701 642 c 0
 1568 642 1434 649 1328 661 c 1
 1273 264 1110 -48 696 -48 c 0
 354 -48 98 260 98 643 c 0
 98 1008 329 1408 699 1408 c 0
 861 1408 985 1324 1063 1218 c 0
 1071 1207 1075 1194 1075 1181 c 0
1257 106 m 0
 1257 143 1287 168 1319 168 c 0
 1323 168 1329 168 1333 167 c 0
 1502 129 1679 110 1849 110 c 0
 1956 110 2060 118 2158 133 c 0
 2161 133 2164 133 2167 133 c 0
 2199 133 2230 108 2230 71 c 0
 2230 41 2207 14 2176 9 c 0
 2072 -6 1962 -14 1849 -14 c 0
 1669 -14 1484 5 1305 45 c 0
 1276 51 1257 77 1257 106 c 0
EndSplineSet
Colour: ffff
EndChar

StartChar: dotlessi
Encoding: 305 305 442
Width: 415
VWidth: 2426
Flags: HMW
LayerCount: 2
Fore
SplineSet
215 1033 m 0
 250 1033 277 1004 277 971 c 0
 277 741 263 223 263 8 c 2
 263 0 l 2
 263 -34 234 -62 200 -62 c 0
 161 -62 138 -31 138 8 c 0
 138 224 142 739 153 974 c 0
 155 1007 182 1033 215 1033 c 0
EndSplineSet
Colour: ffff
EndChar

StartChar: uniE00A
Encoding: 57354 57354 443
Width: 645
VWidth: 1823
Flags: HMW
AnchorPoint: "Anchor-1" 342 0 basechar 0
AnchorPoint: "Anchor-3" 508 1631 basechar 0
LayerCount: 2
Fore
SplineSet
880 1761 m 0
 917 1761 942 1731 942 1699 c 0
 942 1689 939 1678 934 1668 c 0
 881 1575 810 1504 705 1504 c 0
 643 1504 579 1528 511 1567 c 0
 447 1604 397 1616 362 1616 c 0
 300 1616 206 1542 188 1463 c 0
 182 1434 156 1415 127 1415 c 0
 90 1415 65 1445 65 1477 c 0
 65 1481 65 1487 66 1491 c 0
 96 1626 230 1742 362 1742 c 0
 427 1742 497 1718 573 1675 c 0
 631 1642 675 1630 705 1630 c 0
 746 1630 781 1651 826 1730 c 0
 837 1750 858 1761 880 1761 c 0
EndSplineSet
Refer: 80 1575 N 1 0 0 1 200 0 2
PairPos2: "'kern' Horizontal Kerning in Arabic lookup 2 per glyph data 0" uniFEDF dx=-120 dy=0 dh=-120 dv=0 dx=0 dy=0 dh=0 dv=0
PairPos2: "'kern' Horizontal Kerning in Arabic lookup 2 per glyph data 0" uni0622 dx=300 dy=0 dh=300 dv=0 dx=0 dy=0 dh=0 dv=0
PairPos2: "'kern' Horizontal Kerning in Arabic lookup 2 per glyph data 0" uniE00A dx=300 dy=0 dh=300 dv=0 dx=0 dy=0 dh=0 dv=0
Colour: ffff
EndChar

StartChar: uniE00C
Encoding: 57356 57356 445
Width: 1069
VWidth: 1823
Flags: HMW
LayerCount: 2
Fore
SplineSet
541 1034 m 0
 855 1034 998 775 998 508 c 0
 998 241 855 -18 541 -18 c 0
 227 -18 84 242 84 508 c 0
 84 774 227 1034 541 1034 c 0
541 908 m 0
 317 908 210 738 210 508 c 0
 210 278 317 108 541 108 c 0
 765 108 874 279 874 508 c 0
 874 737 765 908 541 908 c 0
EndSplineSet
Colour: ffff
EndChar

StartChar: uniE00D
Encoding: 57357 57357 446
Width: 950
VWidth: 1823
Flags: HMW
LayerCount: 2
Fore
SplineSet
147 -62 m 0
 113 -62 84 -34 84 0 c 2
 84 584 l 2
 84 815 208 1034 482 1034 c 0
 756 1034 880 815 880 584 c 2
 880 0 l 2
 880 -34 851 -62 817 -62 c 0
 783 -62 754 -34 754 0 c 2
 754 584 l 2
 754 777 668 908 482 908 c 0
 296 908 210 777 210 584 c 2
 210 0 l 2
 210 -34 181 -62 147 -62 c 0
EndSplineSet
Colour: ffff
EndChar

StartChar: uniE00E
Encoding: 57358 57358 447
Width: 850
VWidth: 1823
Flags: HMW
LayerCount: 2
Fore
SplineSet
147 -62 m 0
 113 -62 84 -34 84 0 c 2
 84 598 l 2
 84 824 190 1034 432 1034 c 0
 674 1034 780 824 780 598 c 2
 780 0 l 2
 780 -34 751 -62 717 -62 c 0
 683 -62 654 -34 654 0 c 2
 654 598 l 2
 654 796 578 908 432 908 c 0
 286 908 210 796 210 598 c 2
 210 0 l 2
 210 -34 181 -62 147 -62 c 0
EndSplineSet
Colour: ffff
EndChar

StartChar: uniE00F
Encoding: 57359 57359 448
Width: 1089
VWidth: 1437
Flags: HW
AnchorPoint: "Anchor-3" 608 1160 basechar 0
AnchorPoint: "Anchor-1" 469 -164 basechar 0
LayerCount: 2
Fore
SplineSet
816 420 m 0
 816 245 909 108 1089 108 c 0
 1123 108 1152 79 1152 45 c 0
 1152 11 1123 -18 1089 -18 c 0
 905 -18 781 92 726 228 c 1
 610 18 406 -122 134 -122 c 0
 100 -122 72 -94 72 -60 c 0
 72 -26 100 2 134 2 c 0
 445 2 638 218 699 517 c 0
 699 519 700 521 700 523 c 2
 748 821 l 2
 753 852 780 873 810 873 c 0
 847 873 872 843 872 811 c 0
 872 808 872 804 872 801 c 2
 831 541 l 2
 825 504 816 460 816 420 c 0
EndSplineSet
Colour: ffff
EndChar

StartChar: uniE010
Encoding: 57360 57360 451
Width: 435
VWidth: 2296
Flags: HW
AnchorPoint: "Anchor-1" 83 -394 basechar 0
AnchorPoint: "Anchor-3" 205 1361 basechar 0
LayerCount: 2
Fore
SplineSet
343 679 m 0
 307 679 281 709 281 741 c 0
 281 753 284 766 291 776 c 0
 302 792 308 810 308 845 c 0
 308 912 259 958 176 958 c 0
 108 958 52 904 52 849 c 0
 52 782 85 750 143 697 c 0
 156 685 163 668 163 651 c 0
 163 616 134 589 101 589 c 0
 86 589 71 594 59 605 c 0
 3 656 -72 726 -72 849 c 0
 -72 984 48 1084 176 1084 c 0
 311 1084 434 992 434 845 c 0
 434 780 412 679 343 679 c 0
-250 -519 m 0
 -282 -519 -312 -493 -312 -457 c 0
 -312 -426 -290 -399 -259 -395 c 0
 54 -352 222 -187 222 181 c 0
 222 238 218 297 208 353 c 0
 207 357 207 361 207 364 c 0
 207 396 232 426 269 426 c 0
 299 426 326 405 331 375 c 0
 342 311 348 245 348 181 c 0
 348 -241 124 -468 -241 -519 c 0
 -244 -519 -247 -519 -250 -519 c 0
EndSplineSet
Colour: ffff
EndChar

StartChar: uniE011
Encoding: 57361 57361 452
Width: 593
VWidth: 2234
Flags: HW
AnchorPoint: "Anchor-1" 99 -394 basechar 0
AnchorPoint: "Anchor-3" 209 1361 basechar 0
LayerCount: 2
Fore
SplineSet
301 679 m 0
 265 679 239 709 239 741 c 0
 239 753 242 766 249 776 c 0
 260 792 266 810 266 845 c 0
 266 912 217 958 134 958 c 0
 66 958 10 904 10 849 c 0
 10 782 43 750 101 697 c 0
 114 685 121 668 121 651 c 0
 121 616 92 589 59 589 c 0
 44 589 29 594 17 605 c 0
 -39 656 -114 726 -114 849 c 0
 -114 984 6 1084 134 1084 c 0
 269 1084 392 992 392 845 c 0
 392 780 370 679 301 679 c 0
115 383 m 0
 115 413 137 446 176 446 c 0
 202 446 227 429 236 403 c 0
 294 226 342 108 593 108 c 0
 627 108 656 79 656 45 c 0
 656 11 627 -18 593 -18 c 0
 454 -18 351 18 278 81 c 1
 261 -227 97 -436 -235 -518 c 0
 -240 -519 -245 -519 -250 -519 c 0
 -282 -519 -312 -494 -312 -457 c 0
 -312 -429 -293 -403 -265 -396 c 0
 38 -321 154 -152 154 137 c 0
 154 232 148 260 117 367 c 0
 116 372 115 378 115 383 c 0
EndSplineSet
Colour: ffff
EndChar

